<svg id="Layer_1" data-name="Layer 1" xmlns="http://www.w3.org/2000/svg" viewBox="0 0 453.18 159.07"><defs><style>.cls-1{fill:#aedcff;}.cls-2{fill:#9bc1f9;}</style></defs><title>airplane</title><polygon class="cls-1" points="453.18 6.34 353.26 98.31 312.68 31.15 453.18 6.34"/><polygon class="cls-2" points="311.59 0 312.68 31.15 453.18 6.34 311.59 0"/><polygon class="cls-2" points="310.41 42.51 453.18 6.34 310.54 89.78 310.41 42.51"/><path class="cls-2" d="M515.49,611.71a3.59,3.59,0,0,1,3.93-3.21c.22,0,22.8,2.1,53.75-9.54,30.49-11.47,45.54-38.34,46.53-41.67a3.59,3.59,0,0,1,7,1.47c-1,5.09-18.25,34.58-51,46.91s-56,10.06-57,10A3.58,3.58,0,0,1,515.49,611.71Zm104.2-54.35v0Z" transform="translate(-313.21 -459.96)"/><path class="cls-2" d="M369.87,619A373.24,373.24,0,0,0,494.3,597.5c33.2-11.73,62.5-33.88,95.76-42.78a3.59,3.59,0,0,0-1.86-6.93c-34.42,9.22-63.53,31.37-96.29,43a366.32,366.32,0,0,1-122,21.11c-15.23,0-32.8-2.37-52.22-7.1a3.59,3.59,0,0,0-1.7,7C333.19,615.92,352,619,369.87,619Z" transform="translate(-313.21 -459.96)"/></svg>