<svg id="Layer_1" data-name="Layer 1" xmlns="http://www.w3.org/2000/svg" viewBox="0 0 537.73 270.01"><defs><style>.cls-1{fill:#c7e5fd;}.cls-2{fill:#2699fb;}.cls-3{fill:#e9f5fe;}.cls-4{fill:#7fc4fd;}.cls-5{fill:#aedcff;}</style></defs><title>blog-landing-mobile</title><path class="cls-1" d="M733.05,864.65H692.39c-1.13,0-2-1.59-2-3.56V837.61c0-2,.92-3.56,2-3.56h40.66c1.14,0,2.06,1.6,2.06,3.56v23.48c0,2-.92,3.56-2.06,3.56Z" transform="translate(-315.27 -809.99)"/><polygon class="cls-1" points="384.48 50.59 384.48 64.43 399.7 50.59 384.48 50.59 384.48 50.59"/><path class="cls-2" d="M696.61,846.32a.44.44,0,0,1-.24-.8c.14-.09.44-.29,31.66-.07a.44.44,0,0,1,0,.87h0c-12-.09-30.23-.16-31.29,0Z" transform="translate(-315.27 -809.99)"/><path class="cls-2" d="M718.6,854H705.5a.44.44,0,0,1-.44-.44.44.44,0,0,1,.44-.43h13.1a.44.44,0,0,1,.44.43A.44.44,0,0,1,718.6,854Z" transform="translate(-315.27 -809.99)"/><path class="cls-2" d="M488.15,1073.72l-3.4-.67,16-81.26a22.3,22.3,0,0,1,2.91-7.35l2.94,1.83a18.92,18.92,0,0,0-2.45,6.2Z" transform="translate(-315.27 -809.99)"/><path class="cls-2" d="M558.37,1073.75l-17.61-81.63a19,19,0,0,0-1-3.18l3.2-1.34a21.82,21.82,0,0,1,1.19,3.78L561.76,1073Z" transform="translate(-315.27 -809.99)"/><polygon class="cls-3" points="323.61 251.68 314.51 222.78 300.04 222.01 309.12 253.02 323.08 253.11 323.61 251.68 323.61 251.68"/><path class="cls-4" d="M587.89,949.06l12.58.79a20.9,20.9,0,0,1,18.79,15.23L639,1041l-27.32-2.54-22-66.7-1.74-22.71Z" transform="translate(-315.27 -809.99)"/><polygon class="cls-3" points="270.85 251.68 270.43 223.16 255.96 222.39 256.36 253.02 270.32 253.11 270.85 251.68 270.85 251.68"/><path class="cls-4" d="M521.42,932.39l28.45,16.88,29.39.6c8.57,0,15.56,5.18,15.69,13.75.39,26.37-1.65,81.18-2.89,80.93-1.67-.33-25.76,0-25.76,0l-2.45-59.88L545,986.73c-4.65,0-18.25.91-22.4-1.19-8.59-4.35-15.18-9-7.7-32.31Z" transform="translate(-315.27 -809.99)"/><path class="cls-3" d="M620.1,904.41l15.81-7.91s12.91-1,20.75.75a1.49,1.49,0,0,1,1.14,1.8h0a1.47,1.47,0,0,1-1.6,1.13l-7.24-.8,3.9,2.66a1.65,1.65,0,0,1-.21,2.86h0a1.67,1.67,0,0,1-1.51,0c-2.16-1.2-9-4.32-15.61-.59l6.19,2.78a2,2,0,0,1,.65,3.11h0a1.94,1.94,0,0,1-1.7.63l-5.76-.75s-6.78,2.76-13.06-.25l-1.75-5.39Z" transform="translate(-315.27 -809.99)"/><path class="cls-5" d="M608.61,945.72h48V940.3h-48A2.72,2.72,0,0,0,605.9,943h0a2.71,2.71,0,0,0,2.71,2.71Z" transform="translate(-315.27 -809.99)"/><path class="cls-4" d="M650.31,945.72h68.93a8.16,8.16,0,0,0,7.87-6L740.7,890.9a2.81,2.81,0,0,0-2.7-3.57H668.24a3.36,3.36,0,0,0-3.24,2.51l-14.69,55.88Z" transform="translate(-315.27 -809.99)"/><rect class="cls-2" x="354.16" y="142.16" width="3.47" height="121.23"/><rect class="cls-2" x="303.1" y="142.16" width="3.47" height="121.23"/><polygon class="cls-2" points="248.93 148.59 460.86 148.59 460.86 135.73 248.93 135.73 248.93 148.59 248.93 148.59"/><path class="cls-2" d="M574.26,831.51l-17.82,1.06c.7-2.82,1.41-5.64,1.84-8.52s.4-5.54,1.56-8.2c.43-1,1.71-2.67,1.64-3.78s-.68-1.11-2-1.39a24,24,0,0,0-6.26-.61,29.93,29.93,0,0,0-8.45,1.89c-10.37,3.75-14,16.77-19.63,25-1.75,2.57-3.42,5.2-4.94,7.92-8.46,15.22.55,35.36.55,35.36l41.34,1.81C575.28,859.39,574.26,831.51,574.26,831.51Z" transform="translate(-315.27 -809.99)"/><path class="cls-4" d="M573.68,879c5,12.27,11.56,38.18,11.56,38.18l39.59-18.65,5.23,13.59-33.58,22.93-36.73-1.53L557,904.81l16-24.32Z" transform="translate(-315.27 -809.99)"/><path class="cls-5" d="M567.07,871a20.3,20.3,0,0,1,6.61,8l2.37,68.56s-42.08,8.86-64.93-1.35c0,0,.64-57.42,13.66-72.62,0,0,4.1-8.07,25-8.11A28.63,28.63,0,0,1,567.07,871Z" transform="translate(-315.27 -809.99)"/><path class="cls-3" d="M565.24,840.65a3.85,3.85,0,1,0,4.36-3.26,3.85,3.85,0,0,0-4.36,3.26Z" transform="translate(-315.27 -809.99)"/><path class="cls-3" d="M558.12,855.17l-1.82,13.21c-.63,4.64-3.83,6.73-8.38,6.07h0c-3.9-.56-7.27-3.09-7.19-7l3.86-20.64,13.53,8.39Z" transform="translate(-315.27 -809.99)"/><path class="cls-3" d="M556.61,863.87c-7.91,1.17-13.06-11.49-13.06-11.49l14.71,2.12-1.65,10Z" transform="translate(-315.27 -809.99)"/><path class="cls-3" d="M553.93,857h0c6.38-.5,14.76-5.1,15.46-11.48L571,830.48a14.93,14.93,0,0,0-12.71-16.41h0c-8.15-1.17-17.14,4.28-18.32,12.44l-1.13,12.13C537.93,848,543.89,856,553.93,857Z" transform="translate(-315.27 -809.99)"/><path class="cls-2" d="M553.24,831.86s3.34-.7,3.51.39c0,0,.08.73-2.83,1.3s-3.7.5-4-.15,1.8-1.3,3.37-1.54Z" transform="translate(-315.27 -809.99)"/><path class="cls-2" d="M566.86,832.62s-2.8,0-3,1c0,0-.09.71,2.37.66s3.23-.37,3.42-1-1.5-.86-2.83-.76Z" transform="translate(-315.27 -809.99)"/><path class="cls-2" d="M555.42,837.36a1.34,1.34,0,0,1-1.67.93,1.35,1.35,0,1,1,1.67-.93Z" transform="translate(-315.27 -809.99)"/><path class="cls-2" d="M567.93,837.49a1.36,1.36,0,1,1-.94-1.67A1.37,1.37,0,0,1,567.93,837.49Z" transform="translate(-315.27 -809.99)"/><path class="cls-2" d="M560.15,843.13a.55.55,0,0,1-.18,0l-1.74-.38a.1.1,0,0,1-.08-.13.11.11,0,0,1,.13-.09l1.74.38a.72.72,0,0,0,.57-.14,1.23,1.23,0,0,0,.45-.9l.19-3.31a.11.11,0,0,1,.12-.1.11.11,0,0,1,.11.12l-.19,3.3a1.46,1.46,0,0,1-.55,1.07A.94.94,0,0,1,560.15,843.13Z" transform="translate(-315.27 -809.99)"/><path class="cls-2" d="M557.69,849.18h0a7.38,7.38,0,0,1-4.47-2.32l-.14-.14a.11.11,0,0,1-.05-.15.12.12,0,0,1,.16-.05s.07.05.2.18A7.12,7.12,0,0,0,557.7,849a.12.12,0,0,1,.1.13A.1.1,0,0,1,557.69,849.18Z" transform="translate(-315.27 -809.99)"/><path class="cls-3" d="M534.33,838.5a3.85,3.85,0,1,0,4.36-3.26,3.85,3.85,0,0,0-4.36,3.26Z" transform="translate(-315.27 -809.99)"/><path class="cls-2" d="M539.12,835.3c-1.21.51.57-15.92,4.38-19,1.72-1.41,14.59-6.89,17.73-5,3.45,2-3.06,11.38-3.06,11.38S553.25,829.41,539.12,835.3Z" transform="translate(-315.27 -809.99)"/><path class="cls-2" d="M558.25,822.34l12.52,10,3.39-.37s5.28-14.78-12.45-20.75S558.25,822.34,558.25,822.34Z" transform="translate(-315.27 -809.99)"/><path class="cls-3" d="M607.54,933.63l10.4-5.65s9.76-1,11.87,2.26c1.55,2.37,1.77,6.43,1,9.1a1.86,1.86,0,0,1-2.78,1.11c-1.75-1.09-4.63-2.61-7.14-2.76,0,0-7.17,6.55-12.17,5.89-2.54-.33-9.36-7.24-9.36-7.24l8.15-2.71Z" transform="translate(-315.27 -809.99)"/><path class="cls-5" d="M538.83,859.05c.57.21,20.23,1,20.3,1.66s.59,10.26.59,10.26l-2.79,6.43s-8.33,1.14-9,.93-8-2.07-8-2.07Z" transform="translate(-315.27 -809.99)"/><path class="cls-4" d="M548,894.46l5.58,28.09a4.77,4.77,0,0,0,4.51,4l48.55,2.11a4.77,4.77,0,0,1,4.57,4.77v10.7a4.79,4.79,0,0,1-4.89,4.78L550,947.57h-.28a6.67,6.67,0,0,1-4.92-1.62.7.7,0,0,0-.78-.1.76.76,0,0,1-.39.06c-1.94-.2-16.08-3.41-20.76-53-.86-9.16,12.16-13.37,18.84-9.23,2.34,1.46,4.59,3.84,5,6.66Z" transform="translate(-315.27 -809.99)"/><path class="cls-2" d="M560.51,990.44H521.25a46.3,46.3,0,0,1-16.93-3.06c-13.95-5.47-23.56-18.13-26.36-34.73l-9.74-57.83a2.17,2.17,0,0,1,4.28-.72l9.74,57.83c2.57,15.28,11,26.44,23.66,31.41a42,42,0,0,0,15.35,2.76h39.26a2.17,2.17,0,1,1,0,4.34Z" transform="translate(-315.27 -809.99)"/><path class="cls-2" d="M568.35,1070l1.62-8a2.28,2.28,0,0,1,2.57-1.81c3.06.48,8.72.7,12-3.22a2.25,2.25,0,0,1,2.55-.63l23.59,9.19a2.27,2.27,0,0,1,1.45,1.91h0a2.29,2.29,0,0,1-2,2.49l-39.16,3.86a2.29,2.29,0,0,1-2.5-2l-.1-1A2.21,2.21,0,0,1,568.35,1070Z" transform="translate(-315.27 -809.99)"/><path class="cls-5" d="M761.21,923.31h-14.3a.67.67,0,0,0-.67.67v21.07a.67.67,0,0,0,.67.67h14.3a.67.67,0,0,0,.67-.67v-3.31a.67.67,0,0,1,.55-.66,6.7,6.7,0,0,0,0-13.13.67.67,0,0,1-.55-.66V924A.67.67,0,0,0,761.21,923.31Zm1.64,14.59a.68.68,0,0,1-1-.61v-5.55a.68.68,0,0,1,1-.61,3.81,3.81,0,0,1,0,6.77Z" transform="translate(-315.27 -809.99)"/><path class="cls-2" d="M618.51,1069.26l2.44-7.8a2.29,2.29,0,0,1,2.75-1.53c3,.79,8.6,1.59,12.26-2a2.26,2.26,0,0,1,2.6-.36l22.51,11.59a2.26,2.26,0,0,1,1.24,2h0a2.28,2.28,0,0,1-2.3,2.26l-39.34-.23a2.27,2.27,0,0,1-2.27-2.3v-1A2.47,2.47,0,0,1,618.51,1069.26Z" transform="translate(-315.27 -809.99)"/><rect class="cls-2" y="259.84" width="537.73" height="10.17"/></svg>