<svg id="Layer_1" data-name="Layer 1" xmlns="http://www.w3.org/2000/svg" viewBox="0 0 603.24 503.94"><defs><style>.cls-1{fill:#2699fb;}.cls-2{fill:#7fc4fd;}.cls-3{fill:#e9f5fe;}.cls-4{fill:#c7e5fd;}.cls-5{fill:#aedcff;}.cls-6{fill:#9bc1f9;}.cls-7{fill:#d9e5ef;}.cls-8{fill:#86b1f2;}</style></defs><title>consumers-landing</title><path class="cls-1" d="M527.24,757.11,515,727.33c-5.69-13.8-24.23-25.85-37.76-19.57L443.79,637.3A13.52,13.52,0,0,0,426.14,630h0a13.51,13.51,0,0,0-7.33,17.64l33,69.64c-30.91,11.3-2.23,52.13,3.48,66,0,0-9.38,20.13-4.53,38.63,13.37,51,45.22,54.57,69.15,44.69l14.55-6c23.94-9.88,23.36-56.77,10.81-83C541.92,770.5,527.24,757.11,527.24,757.11Z" transform="translate(-237.84 -576.06)"/><path class="cls-1" d="M616,697.76c1.79-8.11,3.53-16.28-1.17-25.19a22.87,22.87,0,0,0-18-12.26c-21.58-2.56-23.48,16.72-44,25.16-8.76,3.61-17.74,2.58-25.56,7.24-14.13,8.41-8.93,18.6.44,40.6,23,53.85,62.42,22.67,69.38,12.06C602.31,737.48,614.88,703,616,697.76Z" transform="translate(-237.84 -576.06)"/><path class="cls-2" d="M603.58,725.43c-11.58,3.62-36.11,21.68-37.68,21.3L537.33,724l-17.57,15.43s39.21,29,41.44,30.1c1.65.78,32.73-25.63,49-33.59C610,730.63,606.18,730.07,603.58,725.43Z" transform="translate(-237.84 -576.06)"/><path class="cls-1" d="M558.13,736.73l-17.9,23.17s-18.87-14.5-25.83-22.3c-8.44-9.47-17.67-29.79-16.31-30.54,3.82-2.08,12.07-3.75,17.76-2.48C535.54,709,558.13,736.73,558.13,736.73Z" transform="translate(-237.84 -576.06)"/><path class="cls-2" d="M602.84,738.4l-2.21-11.53a19.32,19.32,0,0,1,10.67,8c4.14,6.45,11.09,28.23,12.27,28.88s14.31-19.58,16.61-22.76c2.84-3.94,3.9-8.47,5.67-11.91s8-4.6,10.41-4.18S653,735.39,653,735.39s-14.22,24.71-19,38.24-19.55,20-21.92,18S602.84,738.4,602.84,738.4Z" transform="translate(-237.84 -576.06)"/><path class="cls-3" d="M605.41,773l18.11-10.34S615.3,728,600.63,726.87Z" transform="translate(-237.84 -576.06)"/><path class="cls-4" d="M646,731s.59-2.61,2.19-3.14a11.18,11.18,0,0,1,4.55,0,32.81,32.81,0,0,0,3.25-1.6L653.46,731s-5,5.85-6.62,3.66S646,731,646,731Z" transform="translate(-237.84 -576.06)"/><path class="cls-2" d="M656.89,726.46s1.79,9.13,1.34,11-1.6.89-1.81.47c-.88-1.71-1.5-7.57-1.5-7.57Z" transform="translate(-237.84 -576.06)"/><path class="cls-2" d="M653,734.05s.85,5.66,1.73,6.33c.57.43,1.3.17,1.54-1s-1.14-8.12-1.14-8.12Z" transform="translate(-237.84 -576.06)"/><path class="cls-1" d="M647.8,750.11l-3-1.45,12.65-25.94h0a3.31,3.31,0,0,1,1.52,4.43Z" transform="translate(-237.84 -576.06)"/><path class="cls-4" d="M529.73,1038s-1.54,15.61-5.49,18.47-9.21,13.46-6.58,19.19A6.65,6.65,0,0,0,522,1079a11.53,11.53,0,0,0,13.82-6.48,32.71,32.71,0,0,0,2.71-11.89c.59-12.68,4.54-19.13,4.54-19.13Z" transform="translate(-237.84 -576.06)"/><path class="cls-4" d="M590.43,1044.34s1.25,15.74.24,20.86c-.54,2.74-3.56,8.38-2.17,11a7,7,0,0,0,3,3.22l35.83.57c2,0,.66-1.22-.91-2.37-2.58-1.89-4.66-3.14-12.89-7.11-.53-.26-2.49-1.5-3.19-1.93a25.08,25.08,0,0,1-5.13-4.52c-2.57-2.86-2.79-16.72-2.79-16.72Z" transform="translate(-237.84 -576.06)"/><path class="cls-1" d="M618.44,835.08S623,860.64,620,877.4s-17.18,172.08-17.18,172.08l-15.81.89s-3.31-64.88-2.72-73.91,5.29-24.12,5.29-24.12L588,900l19.94-68.82Z" transform="translate(-237.84 -576.06)"/><path class="cls-1" d="M572,829.7s-12.45,18.69-15.41,34.16,2.17,63-3.52,83.28c-3.09,11-14.78,27.92-16.56,42.09s-8.75,51.33-8.75,51.33l15.8,3.12,36.7-92.76,28.8-83.84,7.37-43.18Z" transform="translate(-237.84 -576.06)"/><path class="cls-3" d="M582.07,723.36A30.93,30.93,0,0,0,567.18,731c-13.63,13.33,8,64.77,9.19,73.8s-9.71,30.07-9.71,30.07,40.72,7.52,51.78.22c0,0,1.3-72.4.11-78.85s-14.44-26.33-16.81-28.91S582.07,723.36,582.07,723.36Z" transform="translate(-237.84 -576.06)"/><path class="cls-4" d="M566.66,737a5.72,5.72,0,0,1,7.72-3.37c4.21,1.82,10,5.27,12.85,11.18,4.74,9.89,21.33,43.83,26.47,45.12s26.07-35.23,26.07-35.23-.59-6.45,1.19-10.1,7.11-7.52,7.9-6.23-3,4.51-3,5.15,1.58,1.08,3.76-.21a9.8,9.8,0,0,0,3.35-3.9s3.56,6.48-.19,12.28-5.34,8.16-5.34,8.16-24.29,53.93-33.18,54.57C606,815.05,558.34,762.18,566.66,737Z" transform="translate(-237.84 -576.06)"/><path class="cls-4" d="M587.55,701.39s-.08.48-.24,1.31c-.73,3.95-3.56,17.06-5.47,20.67-2.31,4.35,7.91,18.25,17.74,16.55,2.92-.5-2.48-12.76-2.22-14.06.5-2.49,1.17-5.88,1.86-9.36.39-2,.79-4,1.16-5.82l1.91-9.66Z" transform="translate(-237.84 -576.06)"/><path class="cls-1" d="M587.31,702.7c.16-.83.24-1.31.24-1.31l14.74-.37-1.91,9.66c-.37,1.86-.76,3.84-1.15,5.79a13.87,13.87,0,0,1-7-3.52,18.48,18.48,0,0,1-5.33-7.91C587.05,704.11,587.2,703.31,587.31,702.7Z" transform="translate(-237.84 -576.06)"/><path class="cls-4" d="M596.42,666.37a17.46,17.46,0,0,0-10.37,6.45c-4.35,5.62-9,23,1.77,32.44s21.5-1.24,23.08-12.58S612.17,666,596.42,666.37Z" transform="translate(-237.84 -576.06)"/><path class="cls-4" d="M614.36,688.81c-1.29,2.5-3.45,3.89-4.83,3.09s-1.46-3.46-.17-6,3.46-3.89,4.84-3.09S615.65,686.3,614.36,688.81Z" transform="translate(-237.84 -576.06)"/><path class="cls-1" d="M598.25,666.11S589,682.63,582.33,683.4s-7.51,9.54-7.51,9.54,2.38-20.23,8.95-24.13S598.25,666.11,598.25,666.11Z" transform="translate(-237.84 -576.06)"/><path class="cls-4" d="M584.5,687.33c.54,2.94-.54,5.63-2.42,6s-3.84-1.68-4.38-4.61.54-5.63,2.42-6S584,684.4,584.5,687.33Z" transform="translate(-237.84 -576.06)"/><path class="cls-1" d="M536.9,1069.75c-8.61,1.57-14.34-3.46-17.32-7.22-2.19,4.26-3.53,9.58-1.92,13.08,1.42,3.09,5.13,3.34,8.39,3.46,3.45.12,6.82-1.08,8.53-4.08A28.41,28.41,0,0,0,536.9,1069.75Z" transform="translate(-237.84 -576.06)"/><path class="cls-1" d="M610.29,1068.53c-9.47,2.43-16.48.78-20.39-.8-1,2.86-2.36,6.45-1.64,8.52.87,2.53,2.1,3.1,3.2,3.13,8.65.22,31.7.53,38.3.62a1.08,1.08,0,0,0,.84-1.77C629,1076.28,611,1069,610.29,1068.53Z" transform="translate(-237.84 -576.06)"/><path class="cls-3" d="M580,784.43l21.34-14s-8.89-25.11-18.67-34-14.4-6.73-16.45-4.89c-5.66,5.11-4.66,17.56,1.78,32.89S580,784.43,580,784.43Z" transform="translate(-237.84 -576.06)"/><path class="cls-4" d="M546.45,1047.1s-.83,14.7-.84,14.73c-.3,1.86-1.51,6.47-1.51,8.17,0,6.37,28.36-5.41,22-8.24-.57-.25-3.58-2.18-3.77-4.35-.29-3.35-1-10.11-1-10.11Z" transform="translate(-237.84 -576.06)"/><path class="cls-1" d="M566,1061.7a102.38,102.38,0,0,1-10.06,2.44c-3.41.49-8.26-1.84-10.67-.73-2.65,1.22-1.79,15.67-1.79,15.67s36,.92,48,.3C595.63,1079.16,579.64,1066.24,566,1061.7Z" transform="translate(-237.84 -576.06)"/><path class="cls-4" d="M484,1048.51s-.83,14.7-.84,14.73c-.3,1.86-1.51,6.47-1.51,8.17,0,6.37,28.36-5.41,22-8.24-.57-.25-4.48-3.63-4.67-5.8-.29-3.34-.14-8.66-.14-8.66Z" transform="translate(-237.84 -576.06)"/><path class="cls-1" d="M503.56,1063.11a102.38,102.38,0,0,1-10.06,2.44c-3.41.49-7.91-3.62-10.32-2.51-2.66,1.22-3.34,15.92-3.34,15.92s39.17,1.75,48.34.44C532.32,1078.81,517.17,1067.65,503.56,1063.11Z" transform="translate(-237.84 -576.06)"/><path class="cls-1" d="M528.91,836.33l12,5.18,25.22,120.42-1,90.28-20.22.47s-9.4-79-9.4-85.09-43.55-107.1-43.55-107.1Z" transform="translate(-237.84 -576.06)"/><path class="cls-5" d="M519.66,843s-3.35,91.36-3.35,107-4.77,103.57-4.77,103.57l-28.13.92s-1.47-26.69-3.64-65.94c-.34-6.15.44-18.55,0-24.92-3.15-45.77-9.39-88.86-6.41-105.94.48-2.75,1.38-9.94,3.14-11.76C489.77,832.17,519.66,843,519.66,843Z" transform="translate(-237.84 -576.06)"/><path class="cls-1" d="M486.29,704.2s-14,1.95-17.67,4.65c-4.14,3-8.74,9.85-8.74,9.85s17.17,81.15,17.2,94.81c0,10.56-3.72,36.5-3.72,36.5s51.88,3.28,71.53-4.48c0,0-6.21-30.85-6.21-38.95s-7.42-81.76-9.11-86.91c-1.53-4.67-4.33-13-13.81-15.12S486.29,704.2,486.29,704.2Z" transform="translate(-237.84 -576.06)"/><path class="cls-4" d="M490.1,682.36l-3.34,21.89s10.51,18.76,18.06,16.42c6.33-2,4.44-16.85,4.44-16.85s-3.45-12.82-2.41-19.24S490.1,682.36,490.1,682.36Z" transform="translate(-237.84 -576.06)"/><path class="cls-1" d="M506.85,684.58c1-6.41-16.75-2.22-16.75-2.22l-.28,1.87a10.19,10.19,0,0,0,1.93,3.16,23.42,23.42,0,0,0,15.54,7A34.45,34.45,0,0,1,506.85,684.58Z" transform="translate(-237.84 -576.06)"/><path class="cls-4" d="M487.19,650.3c-.5-.18-4,25.81,2.66,33s19.72,9.49,24.4,3.86c5.17-6.23,4.91-34.17-5.49-41.52S487.19,650.3,487.19,650.3Z" transform="translate(-237.84 -576.06)"/><path class="cls-1" d="M504.8,631.69a28.92,28.92,0,0,0-15.16,8.59c-3.65.43-8.61,2.44-13.74,10.86-6.3,10.36-1.64,21.84,5.69,27.47a18.52,18.52,0,0,1,6.55,8.78,1,1,0,0,0,1.84,0h0a18.57,18.57,0,0,0,.92-7.93,15.28,15.28,0,0,0-1.19-4.76c-1.76-3.77,3.79-6.26,5.35-9.39,1.2-2.41,1.26-7.93,3.14-11.91l2.26-3s5.2-4,10.3-2.89S515.11,629.61,504.8,631.69Z" transform="translate(-237.84 -576.06)"/><path class="cls-4" d="M494.72,669.93c0,3.17-1.4,5.77-3.24,5.8S488.1,673.22,488,670s1.4-5.76,3.24-5.79S494.66,666.76,494.72,669.93Z" transform="translate(-237.84 -576.06)"/><rect class="cls-1" x="521.79" y="781.12" width="44.35" height="5.62" rx="1.83" ry="1.83" transform="translate(-363.52 -471.85) rotate(-9.82)"/><path class="cls-4" d="M465.1,714.65c4.7-.13,8.86,30.9,5.88,34s-3.55,41.28-3.55,41.28l44.38-1.1h0c.86-.58,10.16-6.82,11.49-8.19s8.17-.71,10,1.25-3.45,1.29-5,2c-1.73.82.63,3.16.63,3.16s11.25,1.64,13.44-.69,8-6.26,8.85-3.94c.41,1.2-2.61,4.84-4.31,6.37,2.12-1.59,4.66-3.28,5.53-3,1.6.54.93,2.57.07,3.16s-9.79,7.42-11.19,7.89-22.13,1-25.71,1.78c0,0-58.53,13.33-61.86,12.49-2.92-.73-5.84-19.46-5.84-33.81S450.4,715.08,465.1,714.65Z" transform="translate(-237.84 -576.06)"/><path class="cls-1" d="M471.2,707.57A31.3,31.3,0,0,0,454.56,719c-6.72,9.42-12.54,57-12.54,57l26.56,4.3,2.12-23.42,7.09-10.7Z" transform="translate(-237.84 -576.06)"/><path class="cls-4" d="M598.82,725.92a6.66,6.66,0,0,1,5.29-1.79c3.46.24,8,4.62,8.62,6.19.33.8-1.84,7.18-2.79,8.58-.56.83-1.84,1.24-2.29.81-.3-.29,0-1.74.1-2.05.16-.61,1.31-4.55,1.31-4.55s-2.24,4-3.28,4.21a1.18,1.18,0,0,1-1.55-.93,24.75,24.75,0,0,1,2-4.91s-2.62,3.84-3.9,3.44-.75-1.78-.56-2.24,2-3.11,2-3.11-2.84,3.93-3.39,2.52c-.34-.86,1.51-4.58,1.51-4.58Z" transform="translate(-237.84 -576.06)"/><polygon class="cls-1" points="231.95 127.47 300.15 195.82 300.15 204.24 222.07 133.06 231.95 127.47"/><path class="cls-2" d="M570,601.9a8.92,8.92,0,0,1,5.71-5,6.88,6.88,0,0,1,8.65,4.76c1.26,4.2-.92,10.27-9.18,17.46-10.86-1.44-16-5.3-17.3-9.5a6.86,6.86,0,0,1,4.59-8.73A8.83,8.83,0,0,1,570,601.9Z" transform="translate(-237.84 -576.06)"/><path class="cls-2" d="M538.08,613.3a90.77,90.77,0,0,0,10.28-1.91c1-.26,2.87-.39,3.36-1.44a1.11,1.11,0,0,0-.35-1.48c-1-.66-2.42,0-3.45.3a105,105,0,0,1-10.4,2,1.29,1.29,0,0,0,.56,2.51Z" transform="translate(-237.84 -576.06)"/><path class="cls-2" d="M592.47,608.5c1.51-.35,3-.72,4.51-1.08s3.2-.52,4.44-1.34A1.12,1.12,0,0,0,601,604c-1.48-.15-3.1.51-4.54.86s-3,.74-4.5,1.14a1.29,1.29,0,0,0,.56,2.51Z" transform="translate(-237.84 -576.06)"/><path class="cls-2" d="M556.74,629.6c1.11-3.63,3.17-5.16,4.63-6.8a1,1,0,0,0-1.18-1.68c-3,1.26-5,4.73-5.9,7.74a1.28,1.28,0,0,0,2.45.74Z" transform="translate(-237.84 -576.06)"/><path class="cls-2" d="M576,633.33a11.32,11.32,0,0,1-.35-4.7c.14-1,1.33-3.88-.55-3.92s-2,2.92-2.12,4.17a13.47,13.47,0,0,0,.5,5c.46,1.59,3,1,2.52-.56Z" transform="translate(-237.84 -576.06)"/><path class="cls-2" d="M586.44,620.78l2.95,1.21c1,.4,2,1.09,3,.6a1.13,1.13,0,0,0,.47-1.5c-.37-1-1.85-1.26-2.75-1.62l-2.95-1.2a1.31,1.31,0,0,0-.76,2.51Z" transform="translate(-237.84 -576.06)"/><path class="cls-2" d="M557.42,595.19c-5-6.91-5-7-5.8-7.44a1.14,1.14,0,0,0-1.69,1.2c.23.95.21.79,5.55,8a1.34,1.34,0,0,0,1.87.07,1.36,1.36,0,0,0,.07-1.87Z" transform="translate(-237.84 -576.06)"/><path class="cls-2" d="M571.11,591.79a19.76,19.76,0,0,0,.12-4.21c-.1-1.3-.08-3.32-1.46-3.91a1,1,0,0,0-1,.22c-.89,1-.25,2.64-.17,3.85a22.67,22.67,0,0,1-.07,4,1.3,1.3,0,0,0,1.23,1.33,1.31,1.31,0,0,0,1.33-1.23Z" transform="translate(-237.84 -576.06)"/><path class="cls-2" d="M590.77,588.36c.08-.64-.52-1.07-1.07-1.15-1.14-.16-2.25,1.17-3,1.9a22,22,0,0,0-2.37,2.73,1.3,1.3,0,0,0,.42,1.78,1.33,1.33,0,0,0,1.78-.42C589.39,589.63,590.57,589.94,590.77,588.36Z" transform="translate(-237.84 -576.06)"/><path class="cls-2" d="M357.67,724.47a6.81,6.81,0,1,1,7.26,6.32A6.81,6.81,0,0,1,357.67,724.47Z" transform="translate(-237.84 -576.06)"/><path class="cls-2" d="M369.21,743.69a45.07,45.07,0,0,0-1.33-6,1.55,1.55,0,0,0-3,.62,48.9,48.9,0,0,0,1.28,6.44,1.62,1.62,0,0,0,2.06,1,1.65,1.65,0,0,0,1-2.06Z" transform="translate(-237.84 -576.06)"/><path class="cls-2" d="M380.87,735.26a68.5,68.5,0,0,1-6.3-4.55,1.55,1.55,0,0,0-2,2.34,29.59,29.59,0,0,0,6.88,5.18,1.66,1.66,0,0,0,2.21-.75,1.68,1.68,0,0,0-.75-2.22Z" transform="translate(-237.84 -576.06)"/><path class="cls-2" d="M376.6,723.08a1.17,1.17,0,0,0-.3,1.57c.77,1.38,2.7,1.31,4.08,1.26a14.59,14.59,0,0,0,4.23-.8c2-.68.91-3.8-1.1-3.11C379.57,723.34,378.08,721.89,376.6,723.08Z" transform="translate(-237.84 -576.06)"/><path class="cls-2" d="M374.43,709.84c-2,2.9-3.6,3.88-3.34,5.47a1.37,1.37,0,0,0,1.78,1.18c1.07-.24,1.65-1.37,2.28-2.16s1.21-1.52,1.76-2.33a1.69,1.69,0,0,0-.16-2.32,1.66,1.66,0,0,0-2.32.16Z" transform="translate(-237.84 -576.06)"/><path class="cls-2" d="M366.72,709.34c-.64-1.76-.78-2.4-1.6-3.21a1.42,1.42,0,0,0-2.32.79c-.11,1.21.14,1.67.81,3.51a1.65,1.65,0,1,0,3.11-1.09Z" transform="translate(-237.84 -576.06)"/><path class="cls-2" d="M358.38,713.59c-2.85-2.17-3.44-2.78-4.56-2.66a1.36,1.36,0,0,0-1.25,1.44c.27,1.37,1.06,1.74,3.69,3.66a1.66,1.66,0,0,0,2.28-.16,1.63,1.63,0,0,0-.16-2.28Z" transform="translate(-237.84 -576.06)"/><path class="cls-2" d="M346.91,723.53a1.52,1.52,0,0,0,.55,2.71c1.16.15,1.61,0,7.28-1.07a1.69,1.69,0,0,0,1.53-1.76,1.64,1.64,0,0,0-1.75-1.53C348.63,722.94,348,722.94,346.91,723.53Z" transform="translate(-237.84 -576.06)"/><path class="cls-2" d="M355.79,732.81c-3.11,3-3.56,2.47-4.79,4.31a1.4,1.4,0,0,0,1.34,2c1.26-.23,1.59-.44,3.23-1.73.95-.75,1.86-1.56,2.73-2.4a1.67,1.67,0,0,0-.16-2.34,1.69,1.69,0,0,0-2.35.16Z" transform="translate(-237.84 -576.06)"/><polygon class="cls-6" points="255.44 1.84 253.15 7.8 258.18 10.76 255.1 17.41 262.07 18.81 258.94 26.38 264.95 28.42 263.23 35.81 260.07 35.99 261.35 30.47 255.01 28.31 258.01 21.04 250.93 19.61 254.33 12.28 249.42 9.39 251.54 3.86 247.66 2.68 249.39 0 255.44 1.84"/><polygon class="cls-5" points="128.97 71.7 121.51 73.57 117.19 61.9 105.94 63.28 101.28 55.07 97.13 57.44 103.36 68.41 114.02 67.1 118.52 79.24 129.75 76.44 128.97 71.7"/><polygon class="cls-2" points="168.32 19.78 161.64 19.24 160.73 25.43 154.12 25.18 152.52 30.98 147.54 31.61 147.86 34.13 154.51 33.29 156.03 27.79 162.91 28.05 163.8 21.96 169.86 22.45 168.32 19.78"/><polygon class="cls-1" points="425.91 33.04 406.27 39.5 413.71 24.3 425.91 33.04"/><path class="cls-7" d="M237.84,800.11l8.27,39.75,55-11.44a3.17,3.17,0,0,0,2.46-3.76l-7-33.52a3.18,3.18,0,0,0-3.76-2.47Z" transform="translate(-237.84 -576.06)"/><path class="cls-1" d="M254.83,824.71l2.33-6.31-2.78.35a.41.41,0,0,0-.35.3l-1.71,6.54,1.93-.4A.83.83,0,0,0,254.83,824.71Z" transform="translate(-237.84 -576.06)"/><path class="cls-1" d="M248.64,821.2l1.16-1.87-1.18.18a.19.19,0,0,0-.15.1l-.91,1.91.82-.17A.42.42,0,0,0,248.64,821.2Z" transform="translate(-237.84 -576.06)"/><path class="cls-1" d="M251.87,810.52l4.65,4.85-2.68.8a.43.43,0,0,1-.44-.14l-4.18-5.32,1.94-.4A.79.79,0,0,1,251.87,810.52Z" transform="translate(-237.84 -576.06)"/><path class="cls-1" d="M247.6,816.21l1.81,1.25-1.15.3a.21.21,0,0,1-.18,0l-1.6-1.4.82-.17A.43.43,0,0,1,247.6,816.21Z" transform="translate(-237.84 -576.06)"/><path class="cls-1" d="M256.65,815.5l-7.85,2.35c-.35.11-1.44.65-1.36,1s1.29.42,1.65.37l8.13-1c.83-.1,4.2-1.47,4-2.28S257.44,815.26,256.65,815.5Z" transform="translate(-237.84 -576.06)"/><path class="cls-1" d="M249,811.66l-5.07,1.05a.21.21,0,0,1-.25-.16h0a.22.22,0,0,1,.16-.26l5.07-1a.21.21,0,0,1,.25.16h0A.23.23,0,0,1,249,811.66Z" transform="translate(-237.84 -576.06)"/><path class="cls-1" d="M249.8,813.09l-5.07,1a.2.2,0,0,1-.25-.16h0a.2.2,0,0,1,.16-.25l5.07-1.06a.21.21,0,0,1,.25.17h0A.22.22,0,0,1,249.8,813.09Z" transform="translate(-237.84 -576.06)"/><path class="cls-1" d="M251.74,824.91,246.68,826a.22.22,0,0,0-.17.25h0a.21.21,0,0,0,.25.17l5.07-1.06a.21.21,0,0,0,.17-.25h0A.22.22,0,0,0,251.74,824.91Z" transform="translate(-237.84 -576.06)"/><path class="cls-1" d="M251.91,823.27l-5.06,1.05a.22.22,0,0,0-.17.26h0a.22.22,0,0,0,.25.16l5.07-1a.22.22,0,0,0,.17-.26h0A.23.23,0,0,0,251.91,823.27Z" transform="translate(-237.84 -576.06)"/><path class="cls-7" d="M322.64,782.46l-22.22,4.62c-2.49.52-4.22,2.34-3.86,4.06l7,33.52c.36,1.72,2.67,2.69,5.16,2.17l22.21-4.62Z" transform="translate(-237.84 -576.06)"/><path class="cls-8" d="M244,829.58l2.14,10.28,55-11.44a3.17,3.17,0,0,0,2.46-3.76l-1.49-7.17Z" transform="translate(-237.84 -576.06)"/><path class="cls-8" d="M298.18,798.88l-1.62-7.74a3.18,3.18,0,0,0-3.76-2.47l-55,11.44L240.1,811Z" transform="translate(-237.84 -576.06)"/><rect class="cls-5" x="267.55" y="804.94" width="29.16" height="2.17" transform="translate(-396.2 -501.64) rotate(-11.76)"/><rect class="cls-5" x="307.61" y="799.77" width="11.95" height="2.17" transform="translate(-394.49 -495.33) rotate(-11.76)"/><rect class="cls-5" x="299.38" y="789" width="22.17" height="2.17" transform="translate(-392.36 -496.2) rotate(-11.76)"/><rect class="cls-5" x="268.31" y="808.62" width="29.16" height="2.17" transform="translate(-396.94 -501.4) rotate(-11.76)"/><rect class="cls-5" x="269.16" y="812.69" width="29.16" height="2.17" transform="translate(-397.75 -501.14) rotate(-11.76)"/><rect class="cls-5" x="316.11" y="822.37" width="14.82" height="1.36" transform="translate(-398.8 -492.84) rotate(-11.76)"/><rect class="cls-5" x="315.77" y="820.88" width="14.82" height="1.05" transform="translate(-398.48 -492.94) rotate(-11.76)"/><rect class="cls-5" x="315.46" y="819.39" width="14.82" height="1.05" transform="translate(-398.18 -493.04) rotate(-11.76)"/><rect class="cls-5" x="313.36" y="809.3" width="14.82" height="1.05" transform="translate(-396.16 -493.68) rotate(-11.76)"/><rect class="cls-5" x="313.13" y="808.39" width="14.82" height="0.65" transform="translate(-395.95 -493.75) rotate(-11.76)"/><rect class="cls-5" x="312.94" y="807.48" width="14.82" height="0.65" transform="translate(-395.76 -493.81) rotate(-11.76)"/><rect class="cls-5" x="315.06" y="817.04" width="14.82" height="1.92" transform="translate(-397.8 -493.16) rotate(-11.76)"/><rect class="cls-5" x="314.61" y="814.89" width="14.82" height="1.92" transform="translate(-397.37 -493.3) rotate(-11.76)"/><rect class="cls-5" x="314.16" y="812.74" width="14.82" height="1.92" transform="translate(-396.93 -493.44) rotate(-11.76)"/><rect class="cls-5" x="313.71" y="810.59" width="14.82" height="1.92" transform="translate(-396.5 -493.58) rotate(-11.76)"/><rect class="cls-5" x="306.62" y="793.65" width="2.33" height="5.86" transform="translate(-393.71 -496.62) rotate(-11.76)"/><rect class="cls-5" x="309.43" y="793.07" width="2.33" height="5.86" transform="translate(-393.57 -496.04) rotate(-11.76)"/><rect class="cls-5" x="313.23" y="792.27" width="2.33" height="5.86" transform="translate(-393.31 -495.29) rotate(-11.76)"/><rect class="cls-5" x="316.04" y="791.69" width="2.33" height="5.86" transform="translate(-393.17 -494.7) rotate(-11.76)"/><polygon class="cls-5" points="603.24 210.75 570 241.35 556.5 219.01 603.24 210.75"/><polygon class="cls-6" points="556.14 208.64 556.5 219.01 603.24 210.75 556.14 208.64"/><polygon class="cls-6" points="555.75 222.78 603.24 210.75 555.79 238.51 555.75 222.78"/><path class="cls-2" d="M757.61,835.19a1.19,1.19,0,0,1,1.31-1.07c.07,0,7.59.7,17.88-3.18s15.15-12.75,15.48-13.86a1.19,1.19,0,0,1,2.33.49c-.33,1.69-6.07,11.51-17,15.61s-18.64,3.34-19,3.31A1.2,1.2,0,0,1,757.61,835.19Zm34.67-18.08v0Z" transform="translate(-237.84 -576.06)"/><path class="cls-2" d="M709.17,837.62a124.11,124.11,0,0,0,41.39-7.16c11.05-3.9,20.8-11.27,31.86-14.23a1.2,1.2,0,0,0-.62-2.31c-11.45,3.07-21.13,10.44-32,14.29a121.76,121.76,0,0,1-40.6,7,74.22,74.22,0,0,1-17.37-2.36,1.19,1.19,0,1,0-.57,2.32A77.59,77.59,0,0,0,709.17,837.62Z" transform="translate(-237.84 -576.06)"/><path class="cls-2" d="M798,728.09a5.12,5.12,0,0,1,3.29-2.89,3.94,3.94,0,0,1,5,2.74c.73,2.41-.53,5.91-5.28,10-6.25-.83-9.23-3-10-5.47a4,4,0,0,1,2.64-5A5.12,5.12,0,0,1,798,728.09Z" transform="translate(-237.84 -576.06)"/><path class="cls-2" d="M779.61,734.66a53.71,53.71,0,0,0,5.91-1.11c.59-.14,1.65-.22,1.94-.82a.64.64,0,0,0-.2-.85c-.56-.39-1.4,0-2,.17-1.81.44-3.87.86-6,1.16a.75.75,0,0,0-.57.88.77.77,0,0,0,.89.57Z" transform="translate(-237.84 -576.06)"/><path class="cls-2" d="M810.91,731.89l2.6-.62a8.12,8.12,0,0,0,2.55-.77.64.64,0,0,0-.26-1.2,8.2,8.2,0,0,0-2.62.49c-.86.22-1.73.43-2.59.66a.74.74,0,0,0,.32,1.44Z" transform="translate(-237.84 -576.06)"/><path class="cls-2" d="M790.35,744a9.28,9.28,0,0,1,2.66-3.92.6.6,0,0,0-.68-1c-1.74.72-2.88,2.72-3.4,4.45a.74.74,0,0,0,1.42.43Z" transform="translate(-237.84 -576.06)"/><path class="cls-2" d="M801.43,746.18a6.48,6.48,0,0,1-.2-2.7c.07-.56.76-2.24-.32-2.26s-1.15,1.68-1.22,2.4a7.55,7.55,0,0,0,.29,2.88c.26.92,1.71.61,1.45-.32Z" transform="translate(-237.84 -576.06)"/><path class="cls-2" d="M807.44,739l1.7.7c.56.23,1.15.63,1.75.34a.65.65,0,0,0,.27-.86c-.21-.57-1.06-.73-1.58-.93l-1.7-.69a.76.76,0,0,0-.94.5.78.78,0,0,0,.5.94Z" transform="translate(-237.84 -576.06)"/><path class="cls-2" d="M790.74,724.23c-2.91-4-2.88-4-3.34-4.28a.65.65,0,0,0-1,.69c.13.55.12.45,3.19,4.63a.78.78,0,0,0,1.08,0,.79.79,0,0,0,0-1.08Z" transform="translate(-237.84 -576.06)"/><path class="cls-2" d="M798.62,722.27a11.51,11.51,0,0,0,.07-2.42c-.06-.75-.05-1.91-.84-2.25a.57.57,0,0,0-.57.13c-.51.56-.14,1.52-.09,2.21a13.36,13.36,0,0,1-.05,2.28.75.75,0,0,0,.71.76.76.76,0,0,0,.77-.71Z" transform="translate(-237.84 -576.06)"/><path class="cls-2" d="M809.93,720.3a.64.64,0,0,0-.61-.66c-.66-.09-1.3.67-1.73,1.09a12.65,12.65,0,0,0-1.36,1.57.76.76,0,0,0,.24,1,.77.77,0,0,0,1-.24C809.14,721,809.82,721.21,809.93,720.3Z" transform="translate(-237.84 -576.06)"/><polygon class="cls-6" points="465.1 54.03 462.82 59.99 467.84 62.95 464.77 69.6 471.73 71 468.61 78.57 474.62 80.61 472.9 88.01 469.73 88.19 471.01 82.66 464.68 80.5 467.68 73.23 460.6 71.8 463.99 64.47 459.08 61.58 461.2 56.05 457.32 54.87 459.06 52.19 465.1 54.03"/><polygon class="cls-2" points="486.75 137.05 480.06 136.51 479.15 142.7 472.54 142.46 470.94 148.26 465.97 148.88 466.29 151.4 472.94 150.56 474.45 145.06 481.33 145.32 482.23 139.23 488.29 139.72 486.75 137.05"/></svg>