<svg id="Layer_1" data-name="Layer 1" xmlns="http://www.w3.org/2000/svg" viewBox="0 0 4048.82 1513.75"><defs><style>.cls-1{fill:#e9f5fe;}.cls-2{fill:#fff;}.cls-3{fill:#2699fb;}.cls-4{fill:#7fc4fd;}.cls-5{fill:#c7e5fd;}.cls-6{fill:#aedcff;}.cls-7{fill:#9bc1f9;}.cls-8{fill:#efefef;}.cls-9{fill:#d9e5ef;}.cls-10{fill:#86b1f2;}</style></defs><title>consumers-landing-mobile</title><path class="cls-1" d="M4467.22,793.6a121.77,121.77,0,1,1,38.7-167.81A121.91,121.91,0,0,1,4467.22,793.6Z" transform="translate(-475.59 -243.12)"/><circle class="cls-1" cx="4402.67" cy="690.35" r="118.6" transform="translate(-339.49 1734.27) rotate(-25.7)"/><circle class="cls-2" cx="4402.96" cy="690.82" r="96.85" transform="translate(1004.43 3812.18) rotate(-57.93)"/><path class="cls-2" d="M4451.36,768.24a91.8,91.8,0,1,1,29.18-126.52A91.92,91.92,0,0,1,4451.36,768.24Z" transform="translate(-475.59 -243.12)"/><path class="cls-1" d="M4332.73,728.36l-13.94,8.71a4.9,4.9,0,0,0,5.19,8.31l13.94-8.72a4.89,4.89,0,1,0-5.19-8.3Z" transform="translate(-475.59 -243.12)"/><path class="cls-1" d="M4442.21,753.61a4.91,4.91,0,0,0-1.55,6.75l8.71,13.94a4.9,4.9,0,0,0,8.31-5.2L4449,755.16A4.9,4.9,0,0,0,4442.21,753.61Z" transform="translate(-475.59 -243.12)"/><path class="cls-1" d="M4481.4,635.41l-13.93,8.71a4.9,4.9,0,0,0,5.19,8.31l13.94-8.72a4.9,4.9,0,0,0-5.2-8.3Z" transform="translate(-475.59 -243.12)"/><path class="cls-1" d="M4349.27,604.93a4.91,4.91,0,0,0-1.56,6.75l8.71,13.94a4.9,4.9,0,1,0,8.31-5.19L4356,606.49A4.91,4.91,0,0,0,4349.27,604.93Z" transform="translate(-475.59 -243.12)"/><path class="cls-1" d="M4376.24,558.75l-1.76-19.19a2.86,2.86,0,0,1,2.59-3.12l22-2a2.86,2.86,0,0,1,3.12,2.59L4404,556.2a2.86,2.86,0,0,1-2.59,3.12l-22,2A2.88,2.88,0,0,1,4376.24,558.75Z" transform="translate(-475.59 -243.12)"/><path class="cls-1" d="M4297.22,608.71l-16.48-10a2.86,2.86,0,0,0-3.93,1l-11.46,18.9a2.86,2.86,0,0,0,1,3.93l16.48,10a2.87,2.87,0,0,0,3.94-1l11.46-18.9A2.87,2.87,0,0,0,4297.22,608.71Z" transform="translate(-475.59 -243.12)"/><path class="cls-1" d="M4315.47,573.81a2.78,2.78,0,0,1-3.84-.89l-7.36-11.76a2.8,2.8,0,0,1,.89-3.84l24-15a2.78,2.78,0,0,1,3.84.89l7.35,11.76a2.79,2.79,0,0,1-.88,3.84Z" transform="translate(-475.59 -243.12)"/><path class="cls-1" d="M4323,577.26a30.46,30.46,0,1,1,16.31-10.18l4,6.37a37.69,37.69,0,1,0-16.31,10.2Z" transform="translate(-475.59 -243.12)"/><path class="cls-1" d="M4336.83,585q4.2-2.62,8.52-4.87l-10.61-17-13.26,8.29L4332,588.24Q4334.35,586.59,4336.83,585Z" transform="translate(-475.59 -243.12)"/><path class="cls-1" d="M4410.23,685.48a8.93,8.93,0,1,1-12.31-2.84A8.94,8.94,0,0,1,4410.23,685.48Z" transform="translate(-475.59 -243.12)"/><path class="cls-1" d="M4400.27,616.62l5.53,73.46a3.36,3.36,0,1,1-6.7.5C4399.08,690.29,4399,693.58,4400.27,616.62Z" transform="translate(-475.59 -243.12)"/><path class="cls-1" d="M4472.21,715.66l-70.3-22a3.36,3.36,0,0,1,2-6.41C4404.2,687.31,4401.16,686.07,4472.21,715.66Z" transform="translate(-475.59 -243.12)"/><path class="cls-1" d="M4405.75,688.28a3.65,3.65,0,1,1-5-1.16A3.65,3.65,0,0,1,4405.75,688.28Z" transform="translate(-475.59 -243.12)"/><rect class="cls-3" x="2847.31" y="1468.54" width="37.14" height="35.21"/><rect class="cls-3" x="2996.04" y="1468.54" width="37.14" height="35.21"/><rect class="cls-3" x="2835.12" y="1453.41" width="29.81" height="22.49"/><path class="cls-3" d="M3369.11,1214.53a4.64,4.64,0,0,1,4.41-4.83h75.76a4.64,4.64,0,0,1,4.41,4.83v133.73h13.42V1214.53c0-10.75-8-19.49-17.83-19.49h-75.76c-9.83,0-17.83,8.74-17.83,19.49v133.73h13.42Z" transform="translate(-475.59 -243.12)"/><path class="cls-3" d="M3508.66,1720l-181.29-10.17c-9.69,0-17.55-8.25-17.55-18.42l-17.19-322.51c-.53-22.56,25-26.12,34.74-26.12h197.28c9.69,0,17.54,8.25,17.54,18.42v330.21C3542.27,1708.56,3525.43,1719.75,3508.66,1720Z" transform="translate(-475.59 -243.12)"/><rect class="cls-3" x="2816.99" y="1109.83" width="232.37" height="367.05" rx="21.64" ry="21.64"/><path class="cls-3" d="M2928.39,1222.16H2940a66.27,66.27,0,0,1,66.27,66.27v188.44a0,0,0,0,1,0,0H2862.11a0,0,0,0,1,0,0V1288.44A66.27,66.27,0,0,1,2928.39,1222.16Z"/><path class="cls-3" d="M3414.63,1329c18.26,0,33.73,8.1,34.36,17.82h14.64c-.54-16-22.26-28.88-49-28.88s-48.45,12.88-49,28.88h14.65C3380.91,1337.07,3396.38,1329,3414.63,1329Z" transform="translate(-475.59 -243.12)"/><rect class="cls-3" x="2897.46" y="948.96" width="77.58" height="18.71" rx="8.01" ry="8.01"/><path class="cls-4" d="M3200.12,334.42a26.67,26.67,0,0,1,17.16-15.11c11.78-3.54,22.72,3.38,26,14.28,3.79,12.63-2.78,30.89-27.61,52.51-32.64-4.33-48.2-15.94-52-28.56-3.28-10.91,2-22.71,13.81-26.26A26.67,26.67,0,0,1,3200.12,334.42Z" transform="translate(-475.59 -243.12)"/><path class="cls-4" d="M3104.22,368.7a275.84,275.84,0,0,0,30.89-5.77c3.07-.75,8.62-1.16,10.1-4.32a3.33,3.33,0,0,0-1.05-4.44c-2.89-2-7.27.15-10.36.91-9.44,2.32-20.23,4.5-31.26,6.07a3.89,3.89,0,0,0-2.93,4.61,4,4,0,0,0,4.61,2.94Z" transform="translate(-475.59 -243.12)"/><path class="cls-4" d="M3267.72,354.25c4.53-1,9-2.15,13.56-3.25,4.32-1.06,9.61-1.55,13.34-4,2.76-1.83,2.06-5.91-1.4-6.27-4.47-.47-9.33,1.51-13.65,2.58-4.52,1.12-9,2.23-13.53,3.41-4.8,1.27-3.19,8.67,1.68,7.55Z" transform="translate(-475.59 -243.12)"/><path class="cls-4" d="M3160.3,417.68c3.36-10.89,9.55-15.5,13.94-20.43a3.13,3.13,0,0,0-3.56-5.05c-9.1,3.79-15.08,14.23-17.75,23.25-1.41,4.75,5.91,7,7.37,2.23Z" transform="translate(-475.59 -243.12)"/><path class="cls-4" d="M3218.17,428.89a34.25,34.25,0,0,1-1-14.13c.41-2.92,4-11.66-1.66-11.76-5.31-.1-6,8.76-6.36,12.52a40.33,40.33,0,0,0,1.48,15.06c1.41,4.77,8.95,3.13,7.58-1.69Z" transform="translate(-475.59 -243.12)"/><path class="cls-4" d="M3249.6,391.17l8.86,3.64c2.95,1.22,6,3.28,9.13,1.81,1.77-.83,2-2.88,1.43-4.5-1.13-3-5.57-3.8-8.27-4.89l-8.87-3.59c-2-.8-4.33.72-4.9,2.62a4,4,0,0,0,2.62,4.91Z" transform="translate(-475.59 -243.12)"/><path class="cls-4" d="M3162.34,314.24c-15.18-20.77-15-20.93-17.42-22.36a3.42,3.42,0,0,0-5.08,3.62c.68,2.84.62,2.36,16.67,24.15,1.27,1.73,4.17,1.56,5.62.21,1.73-1.6,1.49-3.88.21-5.62Z" transform="translate(-475.59 -243.12)"/><path class="cls-4" d="M3203.5,304a58.62,58.62,0,0,0,.37-12.63c-.3-3.93-.24-10-4.39-11.78a3,3,0,0,0-2.94.68c-2.69,3-.77,7.94-.51,11.57a69.35,69.35,0,0,1-.22,11.88,3.89,3.89,0,0,0,3.7,4,3.94,3.94,0,0,0,4-3.71Z" transform="translate(-475.59 -243.12)"/><path class="cls-4" d="M3262.61,293.73c.24-1.92-1.57-3.24-3.23-3.48-3.41-.48-6.77,3.53-9,5.71a67.92,67.92,0,0,0-7.12,8.22c-1.25,1.69-.42,4.31,1.26,5.35,2,1.21,4,.38,5.34-1.26C3258.44,297.54,3262,298.47,3262.61,293.73Z" transform="translate(-475.59 -243.12)"/><path class="cls-1" d="M4108.93,473.26a20.46,20.46,0,1,1,21.82,19A20.46,20.46,0,0,1,4108.93,473.26Z" transform="translate(-475.59 -243.12)"/><path class="cls-1" d="M4143.62,531c-1.22-5.93-2-12.28-4-18-1.74-4.91-9.42-3.41-9,1.87.47,6.47,2.5,13,3.85,19.37.55,2.56,3.95,3.76,6.19,3,2.75-1,3.5-3.62,3-6.2Z" transform="translate(-475.59 -243.12)"/><path class="cls-1" d="M4178.69,505.69c-6.79-4-12.7-8.95-18.95-13.68-4.89-3.7-10.16,2.66-6.14,7.05,5.77,6.31,13.35,11.23,20.67,15.55,2.32,1.36,5.54,0,6.67-2.26a5.06,5.06,0,0,0-2.25-6.66Z" transform="translate(-475.59 -243.12)"/><path class="cls-1" d="M4165.84,469.06a3.52,3.52,0,0,0-.89,4.72c2.29,4.16,8.11,4,12.25,3.82a44.35,44.35,0,0,0,12.7-2.42c6-2.06,2.77-11.42-3.28-9.35C4174.78,469.87,4170.3,465.49,4165.84,469.06Z" transform="translate(-475.59 -243.12)"/><path class="cls-1" d="M4159.33,429.28c-6,8.71-10.82,11.65-10.07,16.45a4.13,4.13,0,0,0,5.37,3.53c3.2-.73,4.94-4.12,6.86-6.5s3.64-4.57,5.28-7c1.49-2.21,1.7-5.06-.48-7-1.83-1.6-5.45-1.73-7,.48Z" transform="translate(-475.59 -243.12)"/><path class="cls-1" d="M4136.13,427.77c-1.91-5.28-2.32-7.2-4.79-9.65-2.15-2.14-6.68-.78-7,2.37-.35,3.66.42,5,2.42,10.57a5,5,0,1,0,9.35-3.29Z" transform="translate(-475.59 -243.12)"/><path class="cls-1" d="M4111.07,440.55c-8.58-6.52-10.33-8.36-13.7-8-2,.21-4.2,2.11-3.77,4.33.8,4.13,3.2,5.24,11.1,11a5,5,0,0,0,6.85-.47c1.63-1.88,1.62-5.26-.48-6.85Z" transform="translate(-475.59 -243.12)"/><path class="cls-1" d="M4076.59,470.44c-3.38,1.8-2,7.64,1.64,8.12,3.51.46,4.87-.1,21.91-3.21,2.63-.48,4.8-2.41,4.6-5.29-.17-2.45-2.64-5.08-5.29-4.6C4081.75,468.66,4080,468.64,4076.59,470.44Z" transform="translate(-475.59 -243.12)"/><path class="cls-1" d="M4103.29,498.32c-9.34,9-10.71,7.44-14.4,13-1.68,2.53,1.1,6.56,4,6,3.77-.69,4.79-1.33,9.7-5.22,2.85-2.26,5.58-4.69,8.2-7.21,2-1.88,1.42-5.39-.49-7.05-2.18-1.9-5.1-1.39-7,.49Z" transform="translate(-475.59 -243.12)"/><path class="cls-3" d="M475.59,1750.55h0a6.32,6.32,0,0,0,6.32,6.33H4507.2a6.32,6.32,0,0,0,6.32-6.33h0a6.32,6.32,0,0,0-6.32-6.32H481.91A6.32,6.32,0,0,0,475.59,1750.55Z" transform="translate(-475.59 -243.12)"/><path class="cls-4" d="M2702.29,1184.26c-.07-2.88-24.51-171.51-27.54-176.42L2656,912.17,2596.58,906s23.89,123.88,26.27,130.13c1.46,3.83,54.83,195,54.83,195s-.68,24.86,8.1,24.86,39.78-9.07,39.78-9.07l3.8-15.79Z" transform="translate(-475.59 -243.12)"/><path class="cls-3" d="M2134.38,1027.31h242.39a39.93,39.93,0,0,1,39.93,39.93v151.57a39.94,39.94,0,0,1-39.94,39.94H2134.38a39.94,39.94,0,0,1-39.94-39.94V1067.25A39.93,39.93,0,0,1,2134.38,1027.31Z"/><path class="cls-3" d="M2662.67,1278.18v-11.41a19.91,19.91,0,0,1,19.89-19.89h46.8a19.91,19.91,0,0,1,19.89,19.89v11.41h15.8v-11.41a35.72,35.72,0,0,0-35.69-35.68h-46.8a35.71,35.71,0,0,0-35.68,35.68v11.41Z" transform="translate(-475.59 -243.12)"/><path class="cls-3" d="M2076.7,1027.31h242.39a39.94,39.94,0,0,1,39.94,39.94v151.57a39.94,39.94,0,0,1-39.94,39.94H2076.7a39.93,39.93,0,0,1-39.93-39.93V1067.25A39.94,39.94,0,0,1,2076.7,1027.31Z"/><path class="cls-3" d="M2631.21,905.53c-5.62-69.68-13.13-131.92-15.63-139.81-15.21-48-224.29-51.16-246.17,28.4-3.19,11.61-11.21,50.06,4.1,105.07L2496.16,850Z" transform="translate(-475.59 -243.12)"/><path class="cls-3" d="M2393.86,817.2c-8.54,31,23,344.12,36.57,357.73s182.52,2.63,207.09-21.94-8.52-373.85-21.94-387.27S2415.74,737.64,2393.86,817.2Z" transform="translate(-475.59 -243.12)"/><path class="cls-3" d="M2530,999.49l-9.52,1.63c-5.59-32.72-10.15-60.16-13.88-83.17-18.55-114.65-16.21-119.5-16.4-120.83a44,44,0,0,0-27.55-40.44l-32.35-13.16c4.86-1.61,9.89-3,15-4.29l20.94,8.52c35.05,14.26,33.53,50,33.57,50.09,0,13.41,8.51,69.5,16.48,119.14C2523.34,960.28,2529.89,998.66,2530,999.49Z" transform="translate(-475.59 -243.12)"/><path class="cls-3" d="M2616.87,993.34c-33.46-195.72-30-202.41-30.28-204A44,44,0,0,0,2559,748.91l-43.74-17.8,3.64-8.94,43.74,17.8c35.05,14.27,33.53,50,33.56,50.09,0,25.1,29.84,199.89,30.14,201.66Z" transform="translate(-475.59 -243.12)"/><path class="cls-3" d="M2412.62,1080.07c.43,3.33.85,6.61,1.28,9.83,47.42,4.85,172,13.62,204.53-10.24l-5.71-7.78C2582.76,1093.88,2455.07,1084.52,2412.62,1080.07Z" transform="translate(-475.59 -243.12)"/><path class="cls-5" d="M2363.3,1660.49s-12.58,12.33-12.86,16.85-1.11,53,4,57.51,20.21,7.73,15.37,12.82c-3.67,3.84-31.86,3-50.54,2-5.46-.3-12.3-44-14.46-50.44-3.14-9.33-14.44-29.63-11.59-36.14,1.39-3.16,11.72-10.39,21.08-16.46,9.86-6.4,19.29-20.63,19.29-20.63Z" transform="translate(-475.59 -243.12)"/><path class="cls-5" d="M2531.54,1690.77s-9.75,27.66-11.11,31.56c-.1.29-4.29,18-4.29,22.61,0,17.28,77.58-14.66,60.19-22.32-1.57-.7-6.51-6.23-7-12.11-.79-9.06,6.54-20.43,6.54-20.43Z" transform="translate(-475.59 -243.12)"/><path class="cls-3" d="M2638.6,1084.46l28.09,72.08s18.32,172,7.65,275c-4.46,43.06-101.07,273.6-101.07,273.6l-48-6.79,64.27-273L2565.9,1321l-33.47-206.37Z" transform="translate(-475.59 -243.12)"/><path class="cls-3" d="M2506.29,1088.21l-24.1,80.27-36.65,242.25L2321.6,1637.35s18.63,28.35,38.65,32.81l175.91-229,95.34-286.72-3.34-63.71Z" transform="translate(-475.59 -243.12)"/><path class="cls-1" d="M2665.43,946.22l-68.4,7s-3.13-56.32-3.13-83.18c0-32.6,6-73.38,9.84-72.19,10.65,3.29,22.65,7.15,31.47,19.32C2665.72,859.29,2665.43,946.22,2665.43,946.22Z" transform="translate(-475.59 -243.12)"/><path class="cls-3" d="M2375.46,1742.38c-4.53-5.31-19.68-10.68-22.69-11.73-11.34-4-37.82-84.45-37.82-84.45s-23,6.76-24.78,10.29,14.21,42.3,14.21,42.3c3,15.86,10.66,52,10.66,52h53.83C2373.07,1750.77,2380.4,1748.15,2375.46,1742.38Z" transform="translate(-475.59 -243.12)"/><path class="cls-3" d="M2511.73,1750.64l8.7-28.3s18.84,8,28.17,6.72,27.54-6.61,27.54-6.61c37.24,12.31,67.74,18.29,62.19,28.19h-126.6Z" transform="translate(-475.59 -243.12)"/><path class="cls-1" d="M2515,793.92s-36.21,5-45.74,11.92c-10.73,7.81-44,44.24-44,44.24s69.17,196.35,66.49,231.28-10.26,86.68-10.26,86.68,134.32,8.4,185.2-11.5c0,0-16.07-79.16-16.07-99.94s-9-228.54-15.44-239.42-19.37-17.07-43.91-22.38S2515,793.92,2515,793.92Z" transform="translate(-475.59 -243.12)"/><path class="cls-5" d="M2524.87,737.86l-8.93,56s32.7,71.32,52.24,65.32c16.39-5,6.3-66.29,6.3-66.29s-8.93-32.9-6.25-49.36S2524.87,737.86,2524.87,737.86Z" transform="translate(-475.59 -243.12)"/><path class="cls-3" d="M2568.23,743.58c2.68-16.46-43.36-5.72-43.36-5.72l-.74,4.82a26.78,26.78,0,0,0,5,8.11c10.29,10.89,26.36,17.43,40.26,17.93C2568,759.84,2567.13,750.33,2568.23,743.58Z" transform="translate(-475.59 -243.12)"/><path class="cls-5" d="M2517.32,655.61c-1.3-.47-10.43,66.22,6.89,84.56s51.08,24.36,63.18,9.91c13.39-16,12.72-87.66-14.21-106.53S2517.32,655.61,2517.32,655.61Z" transform="translate(-475.59 -243.12)"/><path class="cls-1" d="M2488.11,657.77c-15.46,27.1-4.27,56,14.72,70.5s18.65,31,18.65,31l3.07-8.5a47.47,47.47,0,0,0,2.38-20.33,39.13,39.13,0,0,0-3.07-12.23c-4.57-9.65,9.81-16.06,13.84-24.09,3.11-6.18,3.26-20.33,8.15-30.55l5.84-7.8s13.47-10.32,26.66-7.41S2522,598.41,2488.11,657.77Z" transform="translate(-475.59 -243.12)"/><path class="cls-5" d="M2536.82,706c.14,8.14-3.62,14.8-8.4,14.88s-8.75-6.45-8.88-14.58,3.61-14.8,8.39-14.88S2536.68,697.85,2536.82,706Z" transform="translate(-475.59 -243.12)"/><path class="cls-3" d="M2558.25,629.45c-5.11-3.56-14.71-10.46-24.3-15.6a35.83,35.83,0,0,0-39.46,3.77c-15.22,12.33-33.57,30.76-31.3,46.6,0,0,17.64,36.86,17.64,45.63v21.06s84.11-42,122.17-92.28C2603,638.63,2576.64,642.28,2558.25,629.45Z" transform="translate(-475.59 -243.12)"/><path class="cls-3" d="M2566.77,634.11c-28.25,35.85-70.26,58.21-88.11,66.61.41,1.2.76,2.34,1.07,3.4a296.78,296.78,0,0,0,37-20.68c16.47-10.85,37.12-27,53.47-48C2569.05,635,2567.91,634.59,2566.77,634.11Z" transform="translate(-475.59 -243.12)"/><path class="cls-3" d="M2423.71,1292.38h-11.54v-42.73a2.19,2.19,0,0,0-2.07-2.28H2347a2.19,2.19,0,0,0-2.07,2.28v42.73h-11.54v-42.73c0-8.27,6.11-15,13.61-15h63.07c7.51,0,13.61,6.73,13.61,15Z" transform="translate(-475.59 -243.12)"/><rect class="cls-1" x="1716.28" y="1024.8" width="383.44" height="219.47" rx="24.03" ry="24.03"/><path class="cls-1" d="M2554.66,1267.93h-34.07c11.4,0,20.65,8.17,20.65,18.25v183c0,10.08-9.25,18.26-20.65,18.26h34.07c11.4,0,20.65-8.18,20.65-18.26v-183C2575.31,1276.1,2566.06,1267.93,2554.66,1267.93Z" transform="translate(-475.59 -243.12)"/><path class="cls-4" d="M2398.44,1200c-2.52-1.65.17-43,.17-43s4.18-119,4.63-125.38l53.43-109.83-46.19-43.12s-55,121.1-56.78,128,10.94,168.54,11.61,182.81c0,0-9.67,21.56-12.68,32.51s2.27,22,1.89,25.21c-.06.48,11.95,7.43,15.14,6.52,9.5-2.72,14.83-3.5,17.06-3,13.23,3,8.85-16.12,11-16s9.59,0,10.89,0C2410.61,1234.65,2412,1208.86,2398.44,1200Z" transform="translate(-475.59 -243.12)"/><path class="cls-1" d="M2380.36,920.46l60.55,46.81s26.73-25.41,40.16-53.51c13.59-28.45,4.09-112.66-10.38-108.8C2438.33,813.59,2380.36,920.46,2380.36,920.46Z" transform="translate(-475.59 -243.12)"/><path class="cls-3" d="M2597.62,772.15V791l-1.41-3.75c.17.32,36.45,40.53,54.6,128.64l1.69,8.58c4.6,27.32,5.69,43.39,5.68,43.31,2.76,38.92,1.57,54.5-1,87a5.38,5.38,0,0,1-10.29,1.66c-7.56-17.63-10.54-35.84-13.41-53.47-2.3-15.15-4.16-41.21-4.15-41.12-.42-3.26-2.05-29.4-11-73-12.62-57.75-27.59-86.66-30.76-94.16l-1.4-1.67v-21a5.71,5.71,0,0,1,11.41,0Z" transform="translate(-475.59 -243.12)"/><path class="cls-3" d="M2501.31,776.21l.52,15.52v3.13c22.46,39.41,54.53,129,37.18,219.29-6.47,29.52-21,68.14-48.38,80.93-2.68,1.65-7.8-.69-9.46-3.37s5.12-10.61,5.08-10.52c14.2-26.36,20.58-112,19.58-136.37-.62-55.54-10.73-110.23-15.6-146.35l-.32-21.69a5.71,5.71,0,0,1,11.4-.57Z" transform="translate(-475.59 -243.12)"/><path class="cls-4" d="M2684,1253.46s-11.62-14.48-4.6-19.52,36.08,1.42,38.17,3.51,10.31,9.43,10.31,9.43Z" transform="translate(-475.59 -243.12)"/><path class="cls-3" d="M3093.6,887.07l-32.72-79.31c-15.16-36.74-64.52-68.84-100.57-52.1l-89-187.65a36,36,0,0,0-47-19.54h0a36,36,0,0,0-19.53,47l87.93,185.46c-82.3,30.1-5.94,138.82,9.27,175.68,0,0-25,53.61-12.06,102.87,35.6,135.88,120.42,145.33,184.17,119l38.75-16c63.74-26.29,62.19-151.19,28.78-221C3132.69,922.73,3093.6,887.07,3093.6,887.07Z" transform="translate(-475.59 -243.12)"/><path class="cls-3" d="M3330.05,729c4.76-21.6,9.41-43.34-3.12-67.07-10.13-19.2-27.66-30.25-47.94-32.66-57.47-6.82-62.53,44.54-117.12,67-23.32,9.6-47.24,6.85-68.08,19.26C3056.16,738,3070,765.12,3095,823.69c61.1,143.43,166.22,60.37,184.75,32.13C3293.51,834.81,3327,742.92,3330.05,729Z" transform="translate(-475.59 -243.12)"/><path class="cls-4" d="M3296.89,802.73c-30.83,9.63-96.16,57.72-100.34,56.71l-76.08-60.55L3073.66,840s104.43,77.32,110.37,80.16c4.38,2.09,87.17-68.25,130.52-89.45C3313.94,816.58,3303.8,815.07,3296.89,802.73Z" transform="translate(-475.59 -243.12)"/><path class="cls-3" d="M3175.84,832.8l-47.67,61.73s-50.25-38.63-68.78-59.41c-22.48-25.21-47.07-79.34-43.44-81.32,10.18-5.55,32.15-10,47.3-6.62C3115.69,758.9,3175.84,832.8,3175.84,832.8Z" transform="translate(-475.59 -243.12)"/><path class="cls-4" d="M3294.91,837.25,3289,806.56a51.3,51.3,0,0,1,28.4,21.31c11,17.16,29.55,75.18,32.7,76.89s38.11-52.13,44.22-60.61c7.56-10.5,10.38-22.55,15.11-31.71s21.41-12.27,27.72-11.12-8.67,27.92-8.67,27.92S3390.64,895,3378,931.08s-52.07,53.22-58.39,48.07S3294.91,837.25,3294.91,837.25Z" transform="translate(-475.59 -243.12)"/><path class="cls-1" d="M3301.76,929.37,3350,901.85s-21.9-92.33-61-95.29Z" transform="translate(-475.59 -243.12)"/><path class="cls-5" d="M3409.89,817.48s1.58-6.93,5.83-8.34,11.65-.16,12.12,0,8.66-4.25,8.66-4.25l-6.77,12.59s-13.22,15.59-17.63,9.76S3409.89,817.48,3409.89,817.48Z" transform="translate(-475.59 -243.12)"/><path class="cls-4" d="M3438.87,805.46s4.77,24.3,3.57,29.4-4.26,2.36-4.83,1.26c-2.35-4.57-4-20.16-4-20.16Z" transform="translate(-475.59 -243.12)"/><path class="cls-4" d="M3428.58,825.67s2.28,15.07,4.62,16.85c1.52,1.15,3.46.47,4.09-2.57s-3-21.63-3-21.63Z" transform="translate(-475.59 -243.12)"/><path class="cls-3" d="M3414.66,868.44l-7.93-3.87,33.67-69.07h0a8.81,8.81,0,0,1,4.06,11.79Z" transform="translate(-475.59 -243.12)"/><path class="cls-5" d="M3100.22,1635s-4.09,41.55-14.61,49.18-24.55,35.85-17.53,51.11c2.19,4.77,6.57,7.52,11.56,9.06,14.78,4.55,30.51-3.11,36.8-17.24a87.52,87.52,0,0,0,7.22-31.68c1.58-33.76,12.1-50.93,12.1-50.93Z" transform="translate(-475.59 -243.12)"/><path class="cls-5" d="M3261.88,1652s3.32,41.93.63,55.55c-1.45,7.3-9.47,22.32-5.79,29.18s7.89,8.59,7.89,8.59l95.43,1.53c5.19.08,1.76-3.25-2.43-6.33-6.86-5-12.4-8.36-34.31-18.94-1.43-.69-6.63-4-8.51-5.14-4.76-2.9-9.54-7.46-13.65-12-6.85-7.61-7.45-44.54-7.45-44.54Z" transform="translate(-475.59 -243.12)"/><path class="cls-3" d="M3336.47,1094.73s12,68.07,4.12,112.69-45.76,458.29-45.76,458.29l-42.08,2.37s-8.82-172.79-7.24-196.82,14.06-64.25,14.06-64.25l-4.19-139.51,53.11-183.28Z" transform="translate(-475.59 -243.12)"/><path class="cls-3" d="M3212.78,1080.41s-33.14,49.78-41,91,5.79,167.79-9.38,221.78c-8.22,29.22-39.36,74.35-44.09,112.11S3095,1641.94,3095,1641.94l42.07,8.33,97.76-247L3311.48,1180l19.65-115Z" transform="translate(-475.59 -243.12)"/><path class="cls-1" d="M3239.6,797.2S3216.88,801,3200,817.51c-36.29,35.52,21.33,172.51,24.48,196.54s-25.86,80.09-25.86,80.09,108.43,20,137.89.59c0,0,3.46-192.82.3-210s-38.46-70.14-44.78-77S3239.6,797.2,3239.6,797.2Z" transform="translate(-475.59 -243.12)"/><path class="cls-5" d="M3198.57,833.62a15.24,15.24,0,0,1,20.56-9c11.2,4.85,26.67,14,34.23,29.79,12.62,26.32,56.81,116.73,70.48,120.16s69.43-93.84,69.43-93.84-1.57-17.16,3.16-26.89,18.94-20,21-16.59-7.89,12-7.89,13.73,4.21,2.86,10-.57S3428.5,840,3428.5,840s9.49,17.24-.51,32.69-14.2,21.75-14.2,21.75-64.7,143.61-88.37,145.33C3303.38,1041.4,3176.42,900.58,3198.57,833.62Z" transform="translate(-475.59 -243.12)"/><path class="cls-5" d="M3254.21,738.69s-.23,1.29-.63,3.48c-2,10.53-9.49,45.45-14.58,55.05-6.15,11.6,21.05,48.61,47.24,44.09,7.79-1.34-6.59-34-5.9-37.46,1.32-6.62,3.12-15.65,4.95-24.91,1-5.23,2.09-10.53,3.07-15.5l5.09-25.73Z" transform="translate(-475.59 -243.12)"/><path class="cls-3" d="M3253.58,742.17c.4-2.19.63-3.48.63-3.48l39.24-1-5.09,25.73-3.05,15.41c-6.06-.89-12.39-3.83-18.73-9.37a49.46,49.46,0,0,1-14.2-21.07C3252.87,745.94,3253.27,743.81,3253.58,742.17Z" transform="translate(-475.59 -243.12)"/><path class="cls-5" d="M3277.81,645.44a46.3,46.3,0,0,0-27.59,17.18c-11.59,15-24.09,61.23,4.71,86.39s57.25-3.32,61.47-33.51S3319.76,644.35,3277.81,645.44Z" transform="translate(-475.59 -243.12)"/><path class="cls-5" d="M3325.61,705.18c-3.43,6.67-9.2,10.36-12.88,8.25s-3.88-9.23-.44-15.9,9.2-10.36,12.88-8.25S3329.05,698.51,3325.61,705.18Z" transform="translate(-475.59 -243.12)"/><path class="cls-3" d="M3282.69,644.74s-24.71,44-42.39,46-20,25.42-20,25.42,6.32-53.88,23.82-64.27S3282.69,644.74,3282.69,644.74Z" transform="translate(-475.59 -243.12)"/><path class="cls-5" d="M3246.08,701.26c1.44,7.81-1.45,15-6.45,16S3229.4,712.79,3228,705s1.46-15,6.46-16S3244.65,693.44,3246.08,701.26Z" transform="translate(-475.59 -243.12)"/><path class="cls-3" d="M3119.3,1719.7c-22.92,4.17-38.17-9.21-46.11-19.23-5.83,11.35-9.4,25.52-5.11,34.84,3.77,8.21,13.66,8.87,22.35,9.2,9.18.34,18.16-2.88,22.71-10.86A75.61,75.61,0,0,0,3119.3,1719.7Z" transform="translate(-475.59 -243.12)"/><path class="cls-3" d="M3314.78,1716.46c-25.24,6.46-43.9,2.06-54.33-2.14-2.69,7.62-6.26,17.17-4.37,22.67,2.32,6.75,5.62,8.27,8.53,8.35,23,.6,84.44,1.42,102,1.65a2.87,2.87,0,0,0,2.23-4.71C3364.5,1737.08,3316.66,1717.6,3314.78,1716.46Z" transform="translate(-475.59 -243.12)"/><path class="cls-1" d="M3234,959.85l56.82-37.29s-23.67-66.87-49.72-90.55-38.35-17.93-43.79-13c-15.09,13.61-12.43,46.76,4.73,87.6S3234,959.85,3234,959.85Z" transform="translate(-475.59 -243.12)"/><path class="cls-5" d="M3144.75,1659.37s-2.22,39.14-2.23,39.22c-.81,5-4,17.25-4,21.77,0,17,75.51-14.41,58.59-21.93-1.53-.68-9.56-5.83-10.06-11.61-.78-8.9-2.75-26.9-2.75-26.9Z" transform="translate(-475.59 -243.12)"/><path class="cls-3" d="M3196.9,1698.27s-17.73,5.19-26.81,6.49-22-4.91-28.4-2c-7.07,3.25-4.76,41.73-4.76,41.73s95.88,2.46,127.68.81C3275.72,1744.76,3233.15,1710.36,3196.9,1698.27Z" transform="translate(-475.59 -243.12)"/><path class="cls-5" d="M2978.38,1663.12s-2.22,39.15-2.23,39.23c-.82,5-4,17.24-4,21.76,0,17,75.51-14.4,58.59-21.93-1.53-.68-11.94-9.67-12.44-15.45-.78-8.9-.37-23.06-.37-23.06Z" transform="translate(-475.59 -243.12)"/><path class="cls-3" d="M3030.53,1702s-17.73,5.19-26.81,6.49-21-9.63-27.47-6.68c-7.07,3.25-8.89,42.4-8.89,42.4s104.32,4.64,128.73,1.16C3107.11,1743.82,3066.78,1714.11,3030.53,1702Z" transform="translate(-475.59 -243.12)"/><path class="cls-3" d="M3098.05,1098.07l31.92,13.77,67.16,320.72L3194.41,1673l-53.84,1.25s-25-210.31-25-226.61-116-285.23-116-285.23Z" transform="translate(-475.59 -243.12)"/><path class="cls-6" d="M3073.4,1115.72s-8.92,243.29-8.92,284.94-12.71,275.83-12.71,275.83l-74.92,2.45s-3.89-71.06-9.68-175.6c-.91-16.37,1.17-49.41,0-66.35-8.4-121.91-25-236.67-17.07-282.16,1.28-7.32,3.68-26.47,8.35-31.3C2993.79,1087,3073.4,1115.72,3073.4,1115.72Z" transform="translate(-475.59 -243.12)"/><path class="cls-3" d="M2984.52,746.18s-37.23,5.18-47,12.38c-11,8.1-23.28,26.24-23.28,26.24s45.72,216.11,45.8,252.48c.06,28.13-9.9,97.21-9.9,97.21s138.15,8.72,190.48-11.93c0,0-16.52-82.16-16.52-103.73s-19.77-217.75-24.27-231.45c-4.08-12.43-11.54-34.77-36.78-40.28S2984.52,746.18,2984.52,746.18Z" transform="translate(-475.59 -243.12)"/><path class="cls-5" d="M2994.69,688l-8.91,58.3s28,50,48.1,43.75c16.86-5.23,11.84-44.89,11.84-44.89s-9.19-34.14-6.44-51.23S2994.69,688,2994.69,688Z" transform="translate(-475.59 -243.12)"/><path class="cls-3" d="M3039.28,693.93c2.76-17.08-44.59-5.93-44.59-5.93l-.76,5a27.64,27.64,0,0,0,5.13,8.42c10.58,11.3,27.11,18.09,41.4,18.61C3039,710.81,3038.15,700.94,3039.28,693.93Z" transform="translate(-475.59 -243.12)"/><path class="cls-5" d="M2986.92,602.62c-1.34-.48-10.73,68.74,7.09,87.78s52.53,25.28,65,10.28c13.77-16.59,13.08-91-14.62-110.57S2986.92,602.62,2986.92,602.62Z" transform="translate(-475.59 -243.12)"/><path class="cls-3" d="M3033.83,553.08c-21.41,4.34-35.28,17.34-40.38,22.88-9.72,1.14-22.93,6.47-36.58,28.92C2940.09,632.47,2952.49,663,2972,678c10.55,8.1,15.3,17,17.44,23.36a2.59,2.59,0,0,0,4.9,0h0a49.81,49.81,0,0,0,2.45-21.11,41.14,41.14,0,0,0-3.16-12.69c-4.7-10,10.09-16.67,14.23-25,3.2-6.42,3.35-21.1,8.38-31.71l6-8.1s13.86-10.71,27.42-7.69S3061.3,547.52,3033.83,553.08Z" transform="translate(-475.59 -243.12)"/><path class="cls-5" d="M3007,654.91c.15,8.45-3.72,15.36-8.63,15.45s-9-6.7-9.14-15.14,3.72-15.36,8.63-15.45S3006.83,646.47,3007,654.91Z" transform="translate(-475.59 -243.12)"/><path class="cls-3" d="M3079.48,966l.89,5.15a4.87,4.87,0,0,0,5.63,4l106.79-18.49a4.87,4.87,0,0,0,4-5.63l-.89-5.16a4.88,4.88,0,0,0-5.63-4l-106.79,18.5A4.87,4.87,0,0,0,3079.48,966Z" transform="translate(-475.59 -243.12)"/><path class="cls-5" d="M2928.1,774c12.52-.36,23.61,82.28,15.66,90.43s-9.45,109.94-9.45,109.94l118.19-2.94,0,0c2.3-1.54,27.06-18.17,30.6-21.81,3.72-3.81,21.76-1.9,26.54,3.34s-9.2,3.42-13.34,5.39c-4.63,2.19,1.66,8.43,1.66,8.43s30,4.35,35.79-1.85,21.44-16.68,23.56-10.49c1.1,3.2-6.95,12.89-11.48,17,5.66-4.23,12.43-8.73,14.75-7.94,4.25,1.43,2.48,6.83.18,8.42s-26.08,19.74-29.79,21-58.94,2.61-68.49,4.73c0,0-155.87,35.49-164.73,33.27-7.77-1.94-15.55-51.83-15.55-90S2889,775.15,2928.1,774Z" transform="translate(-475.59 -243.12)"/><path class="cls-3" d="M2944.35,755.16s-27.24,6.36-44.33,30.33c-17.89,25.08-33.39,151.91-33.39,151.91l70.73,11.43,5.65-62.35L2961.9,858Z" transform="translate(-475.59 -243.12)"/><path class="cls-5" d="M3284.21,804s4.89-5.43,14.1-4.78,21.27,12.31,23,16.48c.87,2.15-4.92,19.13-7.44,22.86-1.48,2.21-4.9,3.31-6.1,2.15-.79-.77,0-4.63.26-5.46.43-1.61,3.48-12.11,3.48-12.11s-5.95,10.58-8.72,11.22-4.3-1.61-4.14-2.49c.84-4.48,5.48-13.08,5.48-13.08s-7,10.23-10.4,9.16-2-4.72-1.49-6,5.28-8.3,5.28-8.3-7.56,10.47-9,6.72c-.9-2.28,4-12.2,4-12.2Z" transform="translate(-475.59 -243.12)"/><polygon class="cls-3" points="2464.98 501.27 2646.62 683.31 2646.62 705.71 2438.68 516.14 2464.98 501.27"/><path class="cls-5" d="M1108.15,1652.91s12.58,12.44,12.86,17,1.12,53.48-4,58-20.21,7.81-15.36,12.94c3.66,3.88,31.85,3,50.54,2,5.45-.3,12.29-44.42,14.46-50.9,3.13-9.42,14.44-29.91,11.58-36.47-1.39-3.2-11.71-10.49-21.08-16.62-9.85-6.45-19.28-20.82-19.28-20.82Z" transform="translate(-475.59 -243.12)"/><path class="cls-5" d="M939.89,1683.47s9.75,27.91,11.12,31.85c.1.29,4.29,18.18,4.29,22.82,0,17.44-77.59-14.8-60.2-22.53,1.57-.7,6.51-6.29,7-12.22.79-9.15-6.54-20.61-6.54-20.61Z" transform="translate(-475.59 -243.12)"/><path class="cls-3" d="M832.82,1071.55l-28.09,72.75s-18.33,173.61-7.65,277.54C801.54,1465.3,898.16,1698,898.16,1698l48-6.86-64.29-275.53,23.66-105.36L939,1102Z" transform="translate(-475.59 -243.12)"/><path class="cls-3" d="M965.15,1075.34l24.1,81,36.65,244.49,124,228.71s-18.64,28.62-38.65,33.12L935.27,1431.51l-95.35-289.38,3.35-64.29Z" transform="translate(-475.59 -243.12)"/><path class="cls-4" d="M851.14,1021.26c2.38-6.31,26.27-131.34,26.27-131.34L818,896.21l-17.34,105.85L762.1,984.32s-34.79-15.74-36.3-18.15c-1.28-2,1.82-3-7.7-19.13-2.75-4.66-9.59-8.48-9.59-8.48s-8.45-4.63-10.11-3a4.63,4.63,0,0,0-.15,5.91c1.2,1.42,4.78,2.87,6,4.29s.77,7.19-.15,9.08-25.36-12.55-25.36-12.55-6.8-4.47-8.94-6.12c-1.83-1.42-7-6.06-7-6.06s-9-7-10.87-4.57c-2.24,3,26.7,27.49,25.76,29.06-1.14,1.9-14.73-5.72-14.73-5.72s-5.57-5-8.63-6.38c-2.9-3.65-10.36-8.06-12.37-5-.37.58,7.6,9,7.6,9s5.42,4.62,7.88,7c4.32,4.16,12.24,8.17,15.39,10.76,2.61,2.15,1.1,2.29,1.08,2.67s-3.89-2-9.27-5.14c-2.7-1.56-6.09-2.74-9-5a76.44,76.44,0,0,0-9.2-5.92c-7-3.93-8.29,1.08-2.33,5.78,2.27,1.8,4.75,3.73,7.28,5.68,9.82,7.57,20.35,12.39,19.92,13.63-.55,1.6-19.22-8.32-19.22-8.32s-11.6-2.54-2.8,4.39a94.43,94.43,0,0,0,20.06,12.25c2.89,1.05,12,7.72,22.56,9.81S719.54,999,719.54,999c8.33,4.72,76.62,46.32,117.83,70.51l30.19-36.75c-3.44-1.54-10.08-4.57-18.41-8.38A21.44,21.44,0,0,0,851.14,1021.26Z" transform="translate(-475.59 -243.12)"/><path class="cls-3" d="M806,932l68.4,7.08s3.14-56.84,3.14-84c0-32.9-4.36-73.86-8.28-72.95-11,2.56-24.22,7.31-33,19.59C805.7,844.3,806,932,806,932Z" transform="translate(-475.59 -243.12)"/><path class="cls-3" d="M1156.51,1638.49s-26.48,81.23-37.83,85.23c-3,1.06-20,5.35-22.69,11.83a2.84,2.84,0,0,0-.17.58c-.88,4.11,2.56,7.9,6.76,7.9h53.83s7.64-36.45,10.66-52.47c0,0,16-39.13,14.22-42.69S1156.51,1638.49,1156.51,1638.49Z" transform="translate(-475.59 -243.12)"/><path class="cls-3" d="M959.71,1743.9l-8.7-28.57s-18.85,8.12-28.18,6.78-27.54-6.66-27.54-6.66c-37.24,12.42-67.75,18.45-62.2,28.45H959.71Z" transform="translate(-475.59 -243.12)"/><path class="cls-4" d="M956.45,778.32s36.21,5,45.73,12c10.74,7.88,30.76,39.31,30.76,39.31s-56,203.5-53.28,238.75,10.26,87.48,10.26,87.48-134.34,8.48-185.22-11.6c0,0,16.07-79.89,16.07-100.87s9-230.65,15.44-241.63,19.37-17.23,43.92-22.58S956.45,778.32,956.45,778.32Z" transform="translate(-475.59 -243.12)"/><path class="cls-5" d="M946.56,721.75l9,58.68s-31.3,50.07-50.84,44c-16.4-5.09-7.73-47.11-7.73-47.11s3.12-11.61,5.12-24.54c1.38-8.93,2.23-18.49,1.13-25.27C900.52,710.9,946.56,721.75,946.56,721.75Z" transform="translate(-475.59 -243.12)"/><path class="cls-3" d="M903.2,727.52c-2.68-16.62,43.36-5.77,43.36-5.77l.74,4.86a26.72,26.72,0,0,1-5,8.18c-10.28,11-26.36,17.6-40.25,18.1C903.45,743.93,904.3,734.33,903.2,727.52Z" transform="translate(-475.59 -243.12)"/><path class="cls-5" d="M954.11,638.73c1.3-.47,10.43,66.83-6.89,85.35s-51.08,24.58-63.18,10c-13.39-16.14-12.72-88.47,14.21-107.52S954.11,638.73,954.11,638.73Z" transform="translate(-475.59 -243.12)"/><path class="cls-3" d="M916.71,596.94c20.82,4.22,53.35,22.16,66.62,44,16.32,26.83,4.27,56.56-14.72,71.14s-18.78,31.52-18.78,31.52l-3-8.8a48.36,48.36,0,0,1-2.38-20.53,40.15,40.15,0,0,1,3.07-12.34c4.57-9.74-9.81-16.21-13.84-24.31-3.1-6.24-3.25-20.52-8.15-30.83l-5.84-7.87s-13.16-8-26.66-7.48C884.94,631.72,890,591.53,916.71,596.94Z" transform="translate(-475.59 -243.12)"/><path class="cls-5" d="M934.62,689.58c-.14,8.21,3.62,14.93,8.39,15s8.75-6.51,8.89-14.72-3.62-14.93-8.39-15S934.75,681.36,934.62,689.58Z" transform="translate(-475.59 -243.12)"/><rect class="cls-3" x="507.01" y="1479.02" width="29.81" height="22.49"/><path class="cls-3" d="M1041,1240.13a4.63,4.63,0,0,1,4.41-4.82h75.75a4.64,4.64,0,0,1,4.42,4.82v133.74H1139V1240.13c0-10.75-8-19.49-17.84-19.49h-75.75c-9.83,0-17.84,8.74-17.84,19.49v133.74H1041Z" transform="translate(-475.59 -243.12)"/><path class="cls-3" d="M1180.55,1745.64l-181.29-10.17c-9.69,0-17.55-8.24-17.55-18.42l-17.19-322.51c-.54-22.55,25.05-26.12,34.74-26.12h197.27c9.69,0,17.55,8.25,17.55,18.43v330.2C1214.15,1734.17,1197.32,1745.35,1180.55,1745.64Z" transform="translate(-475.59 -243.12)"/><rect class="cls-6" x="488.87" y="1135.44" width="232.37" height="367.05" rx="21.64" ry="21.64"/><path class="cls-3" d="M600.27,1247.77h11.58A66.27,66.27,0,0,1,678.13,1314v188.44a0,0,0,0,1,0,0H534a0,0,0,0,1,0,0V1314A66.27,66.27,0,0,1,600.27,1247.77Z"/><path class="cls-3" d="M1086.52,1354.58c18.26,0,33.73,8.09,34.36,17.81h14.64c-.54-16-22.26-28.87-49-28.87s-48.45,12.87-49,28.87h14.65C1052.8,1362.67,1068.27,1354.58,1086.52,1354.58Z" transform="translate(-475.59 -243.12)"/><rect class="cls-3" x="569.35" y="974.57" width="77.58" height="18.71" rx="8.01" ry="8.01"/><path class="cls-4" d="M1000.65,919.62s47.07,82.37,49.42,104.34,9.44,153,9.44,153-9.44,56.5-4.73,61.21,18,3.14,22,3.92c2.91.58,12.28-.56,16.93-1.19a18.71,18.71,0,0,0,5-1.43l6.47-3s-13.51-53.3-13.13-57.18,11.35-149.79,5.08-178.82-48.64-126.3-48.64-126.3Z" transform="translate(-475.59 -243.12)"/><path class="cls-6" d="M1080.63,926.16l-63.25,33s-20.56-48-34-76.36c-13.6-28.71,5.3-96,19.77-92.09C1035.52,799.37,1080.63,926.16,1080.63,926.16Z" transform="translate(-475.59 -243.12)"/><path class="cls-3" d="M911.09,1130.3q.95,16,1.72,32c1,15.64-14.14,29.59-33.45,29.62a517.91,517.91,0,0,1-74.69-5.21c-19-2.7-30.92-18.39-27.21-33.6q3.62-15.63,7-31.28c3.55-15.28,18.53-25,33.91-22.87a428.14,428.14,0,0,0,62,4.14C896.13,1103.05,910,1114.65,911.09,1130.3Z" transform="translate(-475.59 -243.12)"/><path class="cls-3" d="M986.23,1115.22s-53.19,14.89-79.63,19.25l1.88,27,81.44-5.59Z" transform="translate(-475.59 -243.12)"/><path class="cls-3" d="M901.65,1130.3q.95,16,1.72,32c1,15.64-14.14,29.59-33.45,29.62a517.71,517.71,0,0,1-74.69-5.21c-19-2.7-30.92-18.39-27.21-33.6q3.62-15.63,7-31.28c3.55-15.28,18.53-25,33.91-22.87a428.14,428.14,0,0,0,62,4.14C886.68,1103.05,900.53,1114.65,901.65,1130.3Z" transform="translate(-475.59 -243.12)"/><path class="cls-3" d="M843.41,1138.73a199.18,199.18,0,0,1-58.2-9.11l1.82-5.36c.53.18,53.22,17.67,96.84,2.6l1.85,5.35C871.75,1137,857.09,1138.73,843.41,1138.73Z" transform="translate(-475.59 -243.12)"/><rect class="cls-3" x="861.56" y="1131.07" width="8.54" height="6.8" rx="2.21" ry="2.21" transform="translate(-648.43 -87.35) rotate(-9.35)"/><path class="cls-3" d="M867.33,1134.22l-2.79.55-.48,11.76,8.82-1.22Zm-1,2.27,3.65,7.31-4,.55Z" transform="translate(-475.59 -243.12)"/><rect class="cls-7" x="649.88" y="1042.4" width="74.31" height="29.56"/><path class="cls-3" d="M1259.4,809.36c-4,88.79-29,96.65-29.5,97.88-.52.1-20.46,15.38-42.53-4.83l7.33-7.42a30.18,30.18,0,0,0,12.56,7.39,22.56,22.56,0,0,0,17.7-2.67c.54-.44,5.78-3.59,8.4-7.9,12.81-17.07,18.92-61.43,20.65-82.63Z" transform="translate(-475.59 -243.12)"/><path class="cls-3" d="M1518.67,744.47s-10.83,42.3-12.06,76.69-25,63.06-28.11,149.11-15.43,165.15-15.43,165.15-95.8,6.64-114.66-13.62S1277.27,921,1295.92,831.44s-2.9-117.63,39.71-147,98-9.46,121.47-1.49S1519.35,725.5,1518.67,744.47Z" transform="translate(-475.59 -243.12)"/><path class="cls-1" d="M1357.58,816.22s-8.42,68.13.09,137.72-5,206.88-5,206.88-71.36,49.66-92.33,10.23c-3.94-7.4-13.36-95.35-14.21-132.12C1245,992.11,1253,805.34,1253,805.34S1278.48,774.67,1357.58,816.22Z" transform="translate(-475.59 -243.12)"/><path class="cls-3" d="M1336.92,731.54c-24.33,6.49-28.38,100-28.38,100l-77.13-8.81s14.06-97.48,54.79-138.21S1429.88,668.65,1469,694s22.16,57.66,22.16,57.66S1361.25,725.05,1336.92,731.54Z" transform="translate(-475.59 -243.12)"/><path class="cls-3" d="M1372.33,910.22c56.3,0,104.21-55.63,107-58.5l2.06-15.25c-.65.68-56.75,59.85-108.65,59.85Z" transform="translate(-475.59 -243.12)"/><path class="cls-3" d="M1357.21,942.15l-.76-11.57c-25-2.71-84.67-57.94-106.82-79.45l-.33,14.41C1252.66,868.81,1323.55,938.5,1357.21,942.15Z" transform="translate(-475.59 -243.12)"/><path class="cls-3" d="M1360.86,1030.83l-.23-11.26c-19.27,8.45-88.75,3-115.31,0l.14,11C1270,1033.26,1338.15,1040.78,1360.86,1030.83Z" transform="translate(-475.59 -243.12)"/><path class="cls-3" d="M1357.4,1102.08l1-12.66c-23.05,10-83.26,35.41-106.6,30.34l1.31,10.55C1279.91,1136.12,1332.42,1112.87,1357.4,1102.08Z" transform="translate(-475.59 -243.12)"/><path class="cls-3" d="M1355.07,1142.91l.8-10.41c-10.08,0-69.36-24.73-107-40.37l1.46,12.63C1260.51,1109,1339.6,1142.91,1355.07,1142.91Z" transform="translate(-475.59 -243.12)"/><path class="cls-3" d="M1323.65,965.4h23.88A15.59,15.59,0,0,1,1363.12,981v139.46a15.6,15.6,0,0,1-15.6,15.6h-23.88a15.6,15.6,0,0,1-15.6-15.6V981A15.59,15.59,0,0,1,1323.65,965.4Z" transform="translate(2195.58 1858.32) rotate(180)"/><rect class="cls-3" x="832.46" y="773.08" width="55.07" height="11.49"/><path class="cls-5" d="M1319.05,1616.44s-25.51,23.34-25.57,23.38c-3.57,2.64-13.15,8.41-15.94,11.26-10.45,10.71,56.53,37.42,50.48,22.25-.55-1.38-1.57-13.46,1.67-17.41,5-6.1,14-14.78,14-14.78Z" transform="translate(-475.59 -243.12)"/><path class="cls-3" d="M1328,1673.11s-14.38-7.64-20.91-12.41-7.36-19-13.23-21.14c-6.46-2.3-33.61,25.37-33.61,25.37s53.07,57.49,80.84,76.64c6,4.13,13.23,2.81,15.8,2.86C1366.7,1744.6,1343.43,1703.06,1328,1673.11Z" transform="translate(-475.59 -243.12)"/><path class="cls-5" d="M1640.23,1661.7s7.92,38.21,7.93,38.29c.49,5,.56,17.62,1.72,22,4.36,16.32,68.92-33.24,50.71-36.13-1.65-.26-9.84-3.54-12.65-8.58-4.9-8.76-9.55-25.17-9.55-25.17Z" transform="translate(-475.59 -243.12)"/><path class="cls-3" d="M1700.37,1685.71s-15.72,9.55-24.12,13.13-23.76-6.36-29.18-1.87c-6,4.94,3.75,48.7,3.75,48.7s110.44-29.17,133.93-44.32C1794.06,1695.35,1738.33,1688,1700.37,1685.71Z" transform="translate(-475.59 -243.12)"/><path class="cls-4" d="M1717.58,1110.76c-17.62-7.74-18.36-4.54-20.59-5.59-2.64-1.24-22.1-34.28-22.1-34.28s-58-97-61-102.34l-11.56-116.87-61.48-8.84S1557,969.53,1559,976s96.51,128.1,104.46,139.09c0,0,4.39,16.68,7.5,27.06s10.87,18.7,12.21,21.47a92.73,92.73,0,0,0,14.52,18.7c8,8,4.32-3.29,4.32-3.29s-12-17.57-10.35-18.3c1.25-.56,7.19,9.43,15.94,18.42,2.25,2.31,4.48,4.58,6.55,6.65,5.42,5.43,10.52,3.63,5.81-3a73.35,73.35,0,0,0-7-8.55c-2.64-2.61-4.17-5.87-6-8.41-3.7-5-6.47-8.65-6.17-8.7s.4-1.58,2.87.8c3,2.85,7.85,10.33,12.56,14.19,2.68,2.19,8,7.11,8,7.11s9.47,5.93,10,5.49c3-2.35-2.19-8.22-6.24-10.72-1.69-2.9-7.4-7.92-7.4-7.92s-9.14-12.74-7.25-14.09c.8-.58,7.38,6.55,15,12.52,7.08,5.54,15.2,10,16.59,8.74,2.36-2.09-4.8-9.08-4.8-9.08s-5.29-4.63-6.92-6.3c-1.91-2-7.16-8.27-7.16-8.27s-17.19-22.83-15.31-24,7.86-2.2,9.44-1.16,3.41,4.45,5,5.49a5,5,0,0,0,6.14-.8c1.53-1.84-4-9.78-4-9.78S1722.67,1113,1717.58,1110.76Z" transform="translate(-475.59 -243.12)"/><path class="cls-3" d="M1546,744.76c47.58,11.3,59.57,117.14,62.45,130.81-15.77,5.53-34.48,11.1-50.67,15.8l-19.38-148.74A77,77,0,0,0,1546,744.76Z" transform="translate(-475.59 -243.12)"/><path class="cls-3" d="M1580.79,1137.46l68.44,272.65,43.27,264-53.88,7.24s-75.89-201.92-78-225.16-40.21-131.88-40.21-131.88Z" transform="translate(-475.59 -243.12)"/><path class="cls-3" d="M1421.07,1105.9s5.12,261.42.9,285.72-118.88,231.56-118.88,231.56l38.6,41.82s164-189.58,171.28-206.3c11.33-26.21,67.29-321.77,67.29-321.77Z" transform="translate(-475.59 -243.12)"/><path class="cls-6" d="M1483.94,744.14s-29.07-2.66-40.69,24.8-23.24,159.5-18,222.88-11,137.94-11,137.94c101.32,52.26,167.36,8.89,167.36,8.89s26.75-242.53,16.9-287.32c-20.6-93.61-60.18-108.7-60.18-108.7Z" transform="translate(-475.59 -243.12)"/><path class="cls-4" d="M1403.44,1180.89c-11-17.83-13.44-15.3-14.79-17.62-1.59-2.75.18-45.2.18-45.2s4.4-125.14,4.87-131.89l56.2-115.53-48.58-45.36s-57.85,127.39-59.73,134.6,11.5,177.29,12.21,192.3c0,0-5.64,18.15-8.8,29.66s-1.14,23.94-1.54,27.33a108.67,108.67,0,0,0,2.06,26.13c2.41,12.3,5.63-.43,5.63-.43s-.48-23.56,1.35-23.26c1.41.23.92,13.1,3.46,26.74.65,3.5,1.31,7,1.93,10.13,1.65,8.32,7.12,9.72,6.75.75a87,87,0,0,0-1.23-12.15c-.82-4-.31-8-.5-11.46-.37-6.91-.73-12-.44-11.8s1.25-1.23,2.06,2.47c1,4.45,1,14.34,2.9,20.77,1.08,3.65,2.91,11.41,2.91,11.41s4.89,11.23,5.63,11.17c4-.35,2.76-9,.64-13.73.18-3.72-2-11.83-2-11.83s-.74-17.35,1.67-17.47c1,0,2.72,10.55,6,20.7,3,9.42,7.59,18.45,9.5,18.14,3.24-.52,1-11.34,1-11.34s-2-7.49-2.46-10c-.56-3-1.56-12-1.56-12s-2-31.59.24-31.5,8.1,2.7,8.89,4.62.44,6.2,1.24,8.12,3.43,3.75,5.81,3,2-11.51,2-11.51S1406.61,1186,1403.44,1180.89Z" transform="translate(-475.59 -243.12)"/><path class="cls-3" d="M1377.39,859.12l63.69,49.23s28.12-26.72,42.25-56.28c14.3-29.92-3.12-108.78-18.34-104.72C1431,756.43,1377.39,859.12,1377.39,859.12Z" transform="translate(-475.59 -243.12)"/><path class="cls-7" d="M1515.11,578.83s-21.78-17.3-33.9,8.79a51.07,51.07,0,0,0-9.3-.55c-4.89,1.18-9.91,5.67-14.38,8-15.92,8.23-24.49,26.1-26.78,43-2.79,20.49,4.55,36.26,17,52.27,3.68,4.72,7.64,9.36,12.71,12.6,6.11,3.92,11.41,1.66,17.3,3.6,5,1.63,6.29,7,12.44,5.65,8.61-2,18.31-11.53,28.57-9.13s35-4.77,35.07-4.79c31.82-9.22,16.12-69.54,12-90.83C1562,587.39,1534.77,573.36,1515.11,578.83Z" transform="translate(-475.59 -243.12)"/><path class="cls-5" d="M1531.35,714.27l6.13,22.12,3.27,12.35s11.71,14.78,4.9,18.07c-28.79,13.89-54.58-21.11-54.58-21.11l-5.54-68.43Z" transform="translate(-475.59 -243.12)"/><path class="cls-3" d="M1487.33,699.44c11.88,22,34.66,33.57,50.21,37.16l-6.19-22.33-45.82-37Z" transform="translate(-475.59 -243.12)"/><path class="cls-5" d="M1500.91,608.74c19.31-9.48,42.66.91,48.52,21a253.89,253.89,0,0,1,7.15,32c4.53,29.39-7.11,60.09-20.72,61.87s-53.81-12.39-60.82-54C1470.71,643.87,1480.65,618.7,1500.91,608.74Z" transform="translate(-475.59 -243.12)"/><path class="cls-5" d="M1485.51,671.58c.88,6.5-2.79,12.34-8.2,13s-10.5-4-11.38-10.49,2.8-12.34,8.2-13S1484.63,665.08,1485.51,671.58Z" transform="translate(-475.59 -243.12)"/><path class="cls-7" d="M1525.73,687s-18.1,4.17-20.09,10.41S1505,713,1513,720.8s26.83,5,32.2,1.52,10.63-19.63,6.4-29.23S1525.73,687,1525.73,687Z" transform="translate(-475.59 -243.12)"/><path class="cls-5" d="M1518.83,699.82s-.51,7.09,1.78,8.57a22.79,22.79,0,0,0,7.81,3.21,11.67,11.67,0,0,0,11.18-3.9,9.68,9.68,0,0,0,.7-1c2.11-3.38,3-9.59,3-9.59s-7.27-2.39-11.65-2S1518.83,699.82,1518.83,699.82Z" transform="translate(-475.59 -243.12)"/><path class="cls-3" d="M1520.29,876.87c1.33-54.55-2.07-129.51-54.27-150.78-18.65-7.8-41.43,1-58.7,7.37h0c21.2-3,41.19,5.19,51.51,11,43,21.65,42.63,83.67,41.08,132C1496,997.85,1402.6,985,1402.6,985l-2.17,8.08s35.08,11.48,79.83-10.53C1516,965,1520.29,876.87,1520.29,876.87Z" transform="translate(-475.59 -243.12)"/><polygon class="cls-3" points="626.26 175.14 617.89 190.6 591.52 179.88 576.5 200.98 555.46 196.19 553.03 206.84 581.17 213.25 595.41 193.26 622.84 204.41 635.43 181.14 626.26 175.14"/><polygon class="cls-7" points="2493.93 19.16 2487.07 37.08 2502.17 45.97 2492.93 65.95 2513.86 70.17 2504.47 92.9 2522.53 99.06 2517.37 121.28 2507.85 121.82 2511.71 105.2 2492.66 98.71 2501.68 76.86 2480.39 72.57 2490.59 50.52 2475.84 41.83 2482.2 25.23 2470.54 21.67 2475.76 13.62 2493.93 19.16"/><path class="cls-1" d="M739.45,577.71a57.28,57.28,0,1,1-77.75-22.77A57.28,57.28,0,0,1,739.45,577.71Z" transform="translate(-475.59 -243.12)"/><path class="cls-8" d="M666.68,627.85a30.63,30.63,0,1,0,53.74-29.39Z" transform="translate(-475.59 -243.12)"/><polygon class="cls-6" points="1683.1 49.99 1660.68 55.6 1647.67 20.51 1613.88 24.66 1599.85 0 1587.37 7.1 1606.12 40.09 1638.15 36.15 1651.68 72.65 1685.42 64.22 1683.1 49.99"/><path class="cls-1" d="M1646.39,446.12l21.86-6.88s21.49-29.23,20.14-36.92-10.53-22.11-6.82-25.35,12.35-7.49,21,.67c6.28,5.92,10.51,33.06,13.61,34.05,1.94.61,14.61-3,23.83-5.76a17,17,0,0,1,17.11,4.56h0a9.34,9.34,0,0,1,1.12,11.55l-3.67,5.62,5.4,4.08a9.34,9.34,0,0,1,2,12.85l-3,4.15,3.56,2.29a9.32,9.32,0,0,1,2.31,13.53l-2.71,3.47.8.82a9.31,9.31,0,0,1,.58,12.43l-2.77,3.35L1702.51,503a41.52,41.52,0,0,1-16.91,1.65l-21.56,3a4.77,4.77,0,0,1-5.21-3.41l-15.52-52.14A4.76,4.76,0,0,1,1646.39,446.12Z" transform="translate(-475.59 -243.12)"/><polygon class="cls-4" points="2232.06 73.08 2211.97 71.46 2209.22 90.05 2189.36 89.33 2184.55 106.76 2169.59 108.65 2170.55 116.22 2190.55 113.7 2195.11 97.17 2215.78 97.92 2218.47 79.64 2236.68 81.11 2232.06 73.08"/><path class="cls-3" d="M929.58,424.83,915.94,440l4.8,19.85a2,2,0,0,1-2.74,2.29l-18.68-8.27-17.39,10.69a2,2,0,0,1-3-1.9L881,442.38l-15.55-13.24a2,2,0,0,1,.88-3.46l20-4.29,7.79-18.87a2,2,0,0,1,3.56-.24l10.25,17.66,20.36,1.57A2,2,0,0,1,929.58,424.83Z" transform="translate(-475.59 -243.12)"/><path class="cls-3" d="M1260.06,341.54l-16.32,5-5.11,16.28a1.66,1.66,0,0,1-3,.46l-9.81-14-17.07.17a1.66,1.66,0,0,1-1.34-2.66l10.25-13.65L1212.28,317a1.66,1.66,0,0,1,2.11-2.1l16.15,5.53,13.71-10.17a1.66,1.66,0,0,1,2.65,1.37l-.27,17.06,13.9,9.9A1.66,1.66,0,0,1,1260.06,341.54Z" transform="translate(-475.59 -243.12)"/><path class="cls-4" d="M1473.12,477.45c0,3.89-18,7.05-40.1,7.05s-40.11-3.16-40.11-7.05,18-7.05,40.11-7.05S1473.12,473.56,1473.12,477.45Z" transform="translate(-475.59 -243.12)"/><path class="cls-3" d="M1433,352c-18.25,0-33,13.19-33,29.47s33,95.95,33,95.95,33-79.67,33-95.95S1451.26,352,1433,352Zm0,46.6a14,14,0,1,1,14-14A14,14,0,0,1,1433,398.63Z" transform="translate(-475.59 -243.12)"/><polygon class="cls-3" points="3006.37 112.93 2947.33 132.37 2969.7 86.68 3006.37 112.93"/><path class="cls-9" d="M3680.63,382.77l24.87,119.5,165.23-34.4a9.56,9.56,0,0,0,7.41-11.31l-21-100.77a9.56,9.56,0,0,0-11.31-7.41Z" transform="translate(-475.59 -243.12)"/><path class="cls-3" d="M3731.7,456.71l7-18.95-8.36,1a1.23,1.23,0,0,0-1,.91l-5.13,19.65,5.81-1.21A2.37,2.37,0,0,0,3731.7,456.71Z" transform="translate(-475.59 -243.12)"/><path class="cls-3" d="M3713.09,446.15l3.5-5.61-3.54.54a.62.62,0,0,0-.47.29l-2.73,5.76,2.48-.52A1.22,1.22,0,0,0,3713.09,446.15Z" transform="translate(-475.59 -243.12)"/><path class="cls-3" d="M3722.82,414.05l14,14.59-8.07,2.39a1.25,1.25,0,0,1-1.33-.42l-12.54-16,5.81-1.21A2.4,2.4,0,0,1,3722.82,414.05Z" transform="translate(-475.59 -243.12)"/><path class="cls-3" d="M3710,431.16l5.44,3.75-3.46.92a.58.58,0,0,1-.54-.08l-4.8-4.19,2.47-.51A1.24,1.24,0,0,1,3710,431.16Z" transform="translate(-475.59 -243.12)"/><path class="cls-3" d="M3737.17,429l-23.58,7.08c-1.05.31-4.33,1.94-4.11,3s3.88,1.26,5,1.13l24.44-2.92c2.48-.3,12.62-4.41,12.11-6.86S3739.56,428.3,3737.17,429Z" transform="translate(-475.59 -243.12)"/><path class="cls-3" d="M3714.14,417.47l-15.23,3.17a.64.64,0,0,1-.76-.49h0a.64.64,0,0,1,.49-.76l15.24-3.17a.65.65,0,0,1,.76.49h0A.65.65,0,0,1,3714.14,417.47Z" transform="translate(-475.59 -243.12)"/><path class="cls-3" d="M3716.57,421.78,3701.34,425a.65.65,0,0,1-.76-.49h0a.64.64,0,0,1,.5-.76l15.23-3.17a.64.64,0,0,1,.76.49h0A.64.64,0,0,1,3716.57,421.78Z" transform="translate(-475.59 -243.12)"/><path class="cls-3" d="M3722.43,457.3l-15.23,3.18a.64.64,0,0,0-.5.75h0a.65.65,0,0,0,.76.5l15.23-3.17a.64.64,0,0,0,.5-.76h0A.65.65,0,0,0,3722.43,457.3Z" transform="translate(-475.59 -243.12)"/><path class="cls-3" d="M3723,452.38l-15.24,3.17a.66.66,0,0,0-.5.76h0a.66.66,0,0,0,.76.5l15.24-3.18a.64.64,0,0,0,.49-.75h0A.64.64,0,0,0,3723,452.38Z" transform="translate(-475.59 -243.12)"/><path class="cls-9" d="M3935.54,329.7l-66.78,13.9c-7.48,1.56-12.68,7-11.6,12.19l21,100.77c1.08,5.17,8,8.1,15.5,6.54l66.78-13.9Z" transform="translate(-475.59 -243.12)"/><path class="cls-10" d="M3699.07,471.35l6.43,30.92,165.23-34.4a9.56,9.56,0,0,0,7.41-11.31L3873.65,435Z" transform="translate(-475.59 -243.12)"/><path class="cls-10" d="M3862,379.08l-4.85-23.29a9.56,9.56,0,0,0-11.31-7.41l-165.22,34.39,6.79,32.66Z" transform="translate(-475.59 -243.12)"/><rect class="cls-6" x="3769.95" y="397.29" width="87.66" height="6.54" transform="translate(-477.17 542.62) rotate(-11.76)"/><rect class="cls-6" x="3890.37" y="381.73" width="35.93" height="6.54" transform="translate(-472.02 561.59) rotate(-11.76)"/><rect class="cls-6" x="3865.62" y="349.38" width="66.65" height="6.54" transform="translate(-465.62 558.97) rotate(-11.76)"/><rect class="cls-6" x="3772.24" y="408.33" width="87.66" height="6.54" transform="translate(-479.38 543.34) rotate(-11.76)"/><rect class="cls-6" x="3774.8" y="420.59" width="87.66" height="6.54" transform="matrix(0.98, -0.2, 0.2, 0.98, -481.82, 544.09)"/><rect class="cls-6" x="3915.92" y="449.69" width="44.55" height="4.09" transform="translate(-485 569.04) rotate(-11.76)"/><rect class="cls-6" x="3914.89" y="445.21" width="44.55" height="3.15" transform="translate(-484.01 568.77) rotate(-11.76)"/><rect class="cls-6" x="3913.96" y="440.73" width="44.55" height="3.15" transform="translate(-483.11 568.47) rotate(-11.76)"/><rect class="cls-6" x="3907.64" y="410.39" width="44.55" height="3.15" transform="translate(-477.07 566.51) rotate(-11.76)"/><rect class="cls-6" x="3906.95" y="407.66" width="44.55" height="1.97" transform="translate(-476.4 566.34) rotate(-11.76)"/><rect class="cls-6" x="3906.38" y="404.91" width="44.55" height="1.97" transform="translate(-475.85 566.14) rotate(-11.76)"/><rect class="cls-6" x="3912.76" y="433.66" width="44.55" height="5.76" transform="translate(-481.96 568.12) rotate(-11.76)"/><rect class="cls-6" x="3911.41" y="427.19" width="44.55" height="5.76" transform="translate(-480.67 567.7) rotate(-11.76)"/><rect class="cls-6" x="3910.07" y="420.73" width="44.55" height="5.76" transform="translate(-479.39 567.24) rotate(-11.76)"/><rect class="cls-6" x="3908.72" y="414.27" width="44.55" height="5.76" transform="translate(-478.1 566.83) rotate(-11.76)"/><rect class="cls-6" x="3887.39" y="363.35" width="7.01" height="17.62" transform="translate(-469.78 557.6) rotate(-11.76)"/><rect class="cls-6" x="3895.83" y="361.59" width="7.01" height="17.62" transform="translate(-469.22 559.5) rotate(-11.76)"/><rect class="cls-6" x="3907.26" y="359.21" width="7.01" height="17.62" transform="translate(-468.51 561.67) rotate(-11.76)"/><rect class="cls-6" x="3915.71" y="357.45" width="7.01" height="17.62" transform="translate(-467.95 563.57) rotate(-11.76)"/><polygon class="cls-6" points="1985.79 59.17 1885.88 151.14 1845.29 83.98 1985.79 59.17"/><polygon class="cls-7" points="1844.2 52.83 1845.29 83.98 1985.79 59.17 1844.2 52.83"/><polygon class="cls-7" points="1843.03 95.34 1985.79 59.17 1843.15 142.61 1843.03 95.34"/><path class="cls-1" d="M2210.49,447.71a3.59,3.59,0,0,1,3.93-3.21c.22,0,22.8,2.1,53.75-9.54,30.49-11.47,45.54-38.34,46.53-41.67a3.59,3.59,0,0,1,7,1.47c-1,5.09-18.25,34.58-51,46.91s-56,10.06-57,10A3.58,3.58,0,0,1,2210.49,447.71Zm104.2-54.35v0Z" transform="translate(-475.59 -243.12)"/><path class="cls-1" d="M2064.87,455A373.24,373.24,0,0,0,2189.3,433.5c33.2-11.73,62.5-33.88,95.76-42.78a3.59,3.59,0,0,0-1.86-6.93c-34.42,9.22-63.53,31.37-96.29,42.95a366.32,366.32,0,0,1-122,21.11c-15.23,0-32.8-2.37-52.22-7.1a3.59,3.59,0,0,0-1.7,7C2028.19,451.91,2047,455,2064.87,455Z" transform="translate(-475.59 -243.12)"/><path class="cls-5" d="M4392.32,1155.45s-6.95-3.31-13.28-15c-4.06-7.52-16.12-17.16-11.1-18.72s12.71,11.16,14.16,7.51-12.93-31.15-8.38-32.56,16.46,25.35,17.75,22.09-12.16-26.64-5.73-28.64,13.38,28.79,16.84,27.72-1.58-24.56,3.6-26.17,4.45,29,6.31,28.17c1-.48,5.6-15.33,8.41-14.21,3.18,1.25-5.4,31.73-1.59,38.45s34.32,90.22,23.89,100.65c-11.37,11.37-83.69,37.44-98.83,33s-23.8-19.44-20.16-28.63,75.14-29.86,76.28-32.75S4392.32,1155.45,4392.32,1155.45Z" transform="translate(-475.59 -243.12)"/><path class="cls-4" d="M4386.41,1130.93a16.47,16.47,0,0,1,6.41,1.16,17.33,17.33,0,0,1,10.11,9.79C4399.67,1138,4396.05,1133.72,4386.41,1130.93Z" transform="translate(-475.59 -243.12)"/><path class="cls-5" d="M4055,1654.45s3.58,39.06,1.23,51.8a50,50,0,0,1-1.82,6.25c-2.42,7.13,4.22,28.94,4.22,28.94l89,.33c4.85,0,1.61-3.06-2.33-5.88-6.46-4.61-11.66-7.65-32.22-17.26-1.34-.63-6.23-3.65-8-4.69-4.47-2.65-9-6.85-12.87-11.07-6.48-7-7.46-41.44-7.46-41.44Z" transform="translate(-475.59 -243.12)"/><path class="cls-3" d="M4105.11,1713.93c-23.47,6.32-40.91,2.44-50.69-1.36-2.43,7.13-6.75,31.66-4,31.66,22.32,0,41.11.26,104.57.54,2.29,0,2.37-5.65.88-7.38C4151.71,1732.59,4106.87,1715,4105.11,1713.93Z" transform="translate(-475.59 -243.12)"/><path class="cls-3" d="M3943.4,1190.79s1.27,55.75,17.25,91.46c15.56,34.77,90,120.54,109.84,170.59-6.12,28.24-22.95,67.93-21.73,99.22,1.38,35.47-.68,129.3-.68,129.3l40,1.27,52.43-242.16-79-261.28-35.86-63.44Z" transform="translate(-475.59 -243.12)"/><path class="cls-5" d="M3772.64,1598.92s-24.56,33.7-35.38,42.22c-5.79,4.56-21.52,10.69-23.18,18.24s71.25,74.28,71.25,74.28c3.86,3.42,3.42-1.31,2.25-6.33-1.91-8.22-3.93-14.29-13.6-36.4-.63-1.44-2.42-7.29-3.09-9.36-1.71-5.25-2.37-11.77-2.51-17.86-.25-10.16,23.12-38.34,23.12-38.34Z" transform="translate(-475.59 -243.12)"/><path class="cls-3" d="M3770.88,1681.56c-23.17-11.42-34.38-26.77-39.52-36.66-6.94,4-25.61,12.51-24,14.89,12.89,18.71,26.27,42,78,86.06,1.85,1.58,9.45-7.52,9.48-9.95C3795,1729.17,3771.56,1683.64,3770.88,1681.56Z" transform="translate(-475.59 -243.12)"/><path class="cls-3" d="M4066.67,792.05c-6.9-45-47.57-77.28-90.11-55.47-9.57,4.91-22.52,14.86-29.13,23.34-18.17,23.32-22.57,52.23-41.83,74.66-16.61,19.33-60.94,15.68-81.64,30.56s-35.21,41.53-35.21,73.42c0,35.67,8.05,73.54,35.69,96.09s66.92,28.17,101.29,18.61,63.85-33,85.07-61.64,36.23-60.1,46.8-94.16C4069.41,859.43,4071.12,821.1,4066.67,792.05Z" transform="translate(-475.59 -243.12)"/><path class="cls-4" d="M4064.61,1003.1s43.17,97.72,51.38,119.78,51.3,95.8,53.07,98.61,40.92,7.8,38.73,12.85-18.87-1.28-18.87,1.49c0,6.23,24.36,51.92,20.4,53-7.39,2.06-15.11-28.23-18.4-26.65s15.52,28,11,32.56-15.37-26.7-18.37-26.73,16.07,30.84,9.58,30.31c-3.52-.29-17.27-28.71-20.22-25.75-1.25,1.24,13.41,24.13,9.4,23.42s-15.6-18.79-20.23-29-2.55-20-14.8-34-61.45-58-76-93.19-47-113-47-113Z" transform="translate(-475.59 -243.12)"/><path class="cls-3" d="M4028.21,903.76s35.89,17.13,53.57,123.83l-60.82,17-25.31-68.77Z" transform="translate(-475.59 -243.12)"/><path class="cls-3" d="M3946.22,1155.08s-30.9,46.42-38.26,84.84c-7.17,37.42,4.75,150.39-7.71,202.76-21.19,19.63-57.71,42.53-74.64,68.87-19.19,29.86-74.64,105.59-74.64,105.59l32,23.94,181.71-168.44,73.56-224.72,25.24-65.71Z" transform="translate(-475.59 -243.12)"/><path class="cls-1" d="M3971.24,891s-40.92-2.6-57.11,15,35.91,156.9,38.86,179.31-29.3,99.31-29.3,99.31,117.76,20.45,145.23,2.31c0,0-4.4-179.61-7.35-195.62s-27.47-81.11-33.36-87.51S3971.24,891,3971.24,891Z" transform="translate(-475.59 -243.12)"/><path class="cls-5" d="M3984.86,836.39s-.21,1.2-.59,3.25c-1.83,9.81-8.85,42.38-13.6,51.34-5.73,10.82,19.64,45.33,44.06,41.11,7.27-1.25-6.15-31.7-5.5-34.93,1.23-6.17,2.9-14.6,4.62-23.24,1-4.87,1.94-9.81,2.86-14.45l4.74-24Z" transform="translate(-475.59 -243.12)"/><path class="cls-3" d="M3984.27,839.64c.38-2,.59-3.25.59-3.25l36.59-.91-4.74,24c-.91,4.61-1.89,9.53-2.85,14.37-5.65-.83-11.55-3.57-17.47-8.74a46.08,46.08,0,0,1-13.23-19.64C3983.61,843.15,3984,841.16,3984.27,839.64Z" transform="translate(-475.59 -243.12)"/><path class="cls-5" d="M4009.49,753.38s-17.25-2-28.06,12-22.46,57.1,4.39,80.57,53.39-3.1,57.33-31.26S4048.61,752.36,4009.49,753.38Z" transform="translate(-475.59 -243.12)"/><path class="cls-5" d="M4051.09,814.25c-3.2,6.22-8.58,9.66-12,7.69s-3.62-8.61-.41-14.83,8.58-9.66,12-7.69S4054.3,808,4051.09,814.25Z" transform="translate(-475.59 -243.12)"/><path class="cls-3" d="M4011.42,748.77s-23,41-39.53,42.93-18.65,23.7-18.65,23.7,5.9-50.24,22.22-59.93S4011.42,748.77,4011.42,748.77Z" transform="translate(-475.59 -243.12)"/><path class="cls-5" d="M3976.21,802c1.34,7.29-1.35,14-6,14.93s-9.53-4.18-10.87-11.46,1.35-14,6-14.93S3974.87,794.72,3976.21,802Z" transform="translate(-475.59 -243.12)"/><path class="cls-3" d="M3465.55,1676l21.77,8.62,318.16-427.86h0c-12-4.75-18,3.37-24.52,12.09Z" transform="translate(-475.59 -243.12)"/><path class="cls-10" d="M3499.26,1700.58l21.77,8.63,318.28-439.08c4.52-6.07-7.6-9.94-7.6-9.94Z" transform="translate(-475.59 -243.12)"/><path class="cls-3" d="M3528.12,1472.72l-32.39-12.88,39.78-53c33-44,108.64-60.23,168.92-36.27l54.46,21.65-237.86,317-131.22-52.16-40.6-28.65Z" transform="translate(-475.59 -243.12)"/><path class="cls-3" d="M3758.89,1392.22l-237.86,317-131.22-52.16,3.09-4.13h0c91.35,6.22,302.22-210.35,354.23-265.37Z" transform="translate(-475.59 -243.12)"/><path class="cls-3" d="M3591.62,1493.11c19.62-21.78,49.94-53.64,71.79-72.9-23.62,33.31-68,81.22-68.63,81.92-26.05-10.49-60.05-23.53-99.05-42.29C3528.55,1469.78,3560.26,1481.21,3591.62,1493.11Z" transform="translate(-475.59 -243.12)"/><circle class="cls-3" cx="3516.54" cy="1714.43" r="29.83" transform="translate(573.48 4507.24) rotate(-76.89)"/><circle class="cls-7" cx="3516.54" cy="1714.43" r="12.29" transform="translate(619.15 4543.8) rotate(-77.74)"/><path class="cls-4" d="M3893.86,998.94s-28.49,103-33.41,126-36.81,102.24-38.15,105.27-29.5,31.82-25.73,37.63c2.1,3.24,8.33,7,11.3,6.58s4.71,1.95,8.66,3.29,11.34.4,14.44-10.34,4.51-13.28,14.61-28.85,52.35-66.29,61.66-103.26,30.08-118.6,30.08-118.6Z" transform="translate(-475.59 -243.12)"/><path class="cls-10" d="M3818.19,1278.09c4.11.55,10.08-1.36,12.78-10.73.75-2.6,1.41-4.72,2.1-6.66-.82-.33-1.36-.51-1.36-.51Z" transform="translate(-475.59 -243.12)"/><path class="cls-1" d="M3882.87,1030.57s2.59-84.69,14.07-108.48,40.09-37.4,50.89-16.56c11.14,21.5-8.23,126-8.23,126Z" transform="translate(-475.59 -243.12)"/><polygon class="cls-3" points="3897.23 979.01 3850.59 982.42 3864.9 1037.76 3912.72 1029.15 3897.23 979.01"/><path class="cls-6" d="M4213,1251.48s-10.41,128.43-10.41,139.59,44.31,14.31,44.31,14.31l13.55-131.8Z" transform="translate(-475.59 -243.12)"/><path class="cls-10" d="M4279.11,1220.21s-28.76-15.39-52.46-1.28-30.16,97-30.16,97l75.93,9.1Z" transform="translate(-475.59 -243.12)"/><path class="cls-5" d="M4179,1681.69s-4.91,17.45-8.81,21.35-16.81,19-13.63,26.5,81.87,18.23,84.86,15.25-13.6-15.63-23-23.38-16.13-17.27-12.19-28.83,3.94-10.42,3.94-11.57S4179,1681.69,4179,1681.69Z" transform="translate(-475.59 -243.12)"/><path class="cls-3" d="M4241.45,1744.79c3.56-2.67-7.5-14.61-23.52-23.82-6.71,0-15.65-.46-23.23-2.35-11.86-3-21-13.24-23.66-16.58-.24.34-19.32,18.72-15.6,27.5C4158.62,1737,4234.33,1750.12,4241.45,1744.79Z" transform="translate(-475.59 -243.12)"/><path class="cls-5" d="M4309.61,1690.16s1.46,17.92-1.5,22.57-13.28,23.09-7.52,28.85c5.19,5.19,77.28,1.85,79.54-1.71s-10.07-14.21-20.94-19.72-19.51-13.34-18.19-25.48,1.57-11,1.32-12.15S4309.61,1690.16,4309.61,1690.16Z" transform="translate(-475.59 -243.12)"/><path class="cls-3" d="M4389.09,1742.74c3.76-2.39-12.86-17.42-30.5-22.91-6.55,1.46-15.38,3-23.19,2.77-12.22-.3-23.34-8.35-26.7-11-.16.39-16.59,24.18-9.23,30.25C4305.22,1746.57,4383.38,1746.36,4389.09,1742.74Z" transform="translate(-475.59 -243.12)"/><path class="cls-3" d="M4314.88,1436.42l-46.55,134.87-53.39,124.85-44.72-11.23s16.14-86.55,31.3-113.73c11.47-20.57,19.48-138.63,19.48-138.63Z" transform="translate(-475.59 -243.12)"/><path class="cls-3" d="M4292.52,1459.12l16.13,237h38.11s16.65-248.32,10.55-272-69.59-18.3-69.59-18.3Z" transform="translate(-475.59 -243.12)"/><path class="cls-6" d="M4329.1,1226.41s-49.11-14.72-56.68-13.77c-8.27,1-28.4,11.7-28.4,11.7s1.24,85.27-2.32,109.38-28.45,101.35-28.45,101.35,35.06,20.32,94,13.72,54.88-20.83,54.88-20.83-5.59-85.38-11.17-123S4329.1,1226.41,4329.1,1226.41Z" transform="translate(-475.59 -243.12)"/><path class="cls-6" d="M4251.9,1220.4s11.05-1.67,20.52,34.19c10.75,40.64-.82,82.73-18.59,93.39s-25.09,8.61-25.09,8.61l2.79,25.06s52.5-11.75,59.65-56.62c11.72-73.55-22.85-111.44-22.85-111.44s-6.5,1.05-8.52,1.87S4251.9,1220.4,4251.9,1220.4Z" transform="translate(-475.59 -243.12)"/><path class="cls-5" d="M4224.76,1305.32v52.51c0,9.15,10.51,71.07,23.38,92.28s30.32,44.86,33.93,46.22,11.46,6.32,15.53,2.26,7.28-2.2,12.36-4.41-.67-9.48-7.79-16.6-8.64-8.8-7.45-10,6.94,5.42,10,4.4-1.86-11.68-9.82-15.41-20.67-11-21.85-14.91-1.19-2.88-1.19-3.89-9-62.5-9-74.53-3.56-51.15-3.56-51.15Z" transform="translate(-475.59 -243.12)"/><path class="cls-3" d="M4248.78,1222.25c-4.62.58-17.16,5.15-21.56,20.06s-16,57.25-14,77.92c0,0,49.46,6.43,49.46,4.4s10.82-55.05,5.42-78.26C4263.42,1226.13,4256.81,1221.25,4248.78,1222.25Z" transform="translate(-475.59 -243.12)"/><path class="cls-6" d="M4321.41,1224.15l34.39,123.58h0c-1.52-16.13-3.18-31.55-4.84-42.74-5.59-37.6-22.15-79.63-22.15-79.63A65.42,65.42,0,0,0,4321.41,1224.15Z" transform="translate(-475.59 -243.12)"/><path class="cls-3" d="M4301.73,1097.84s18.65-6.76,30.7,12.14,5.54,17.1,11.41,26.55S4365,1144,4365,1158.68s-6.84,17-6.84,17,6.19,11.4-.65,23.13-23.9,21.82-38.18,20.2c0,0-21.44,11.75-42.94,6.2s-14-5.55-22.81-5.55-32.58-12.06-28.67-29.65c0,0-14.49-17.21-.43-31.28s16.72-28.34,24.87-47.23S4292,1093.28,4301.73,1097.84Z" transform="translate(-475.59 -243.12)"/><path class="cls-5" d="M4314.19,1198.43s-.78,26,1.65,28.38,5.84,6.48,2.26,12.67-19.14,2.24-26.39-1.3a34.24,34.24,0,0,1-11.45-9.73l3.63-41.1Z" transform="translate(-475.59 -243.12)"/><path class="cls-3" d="M4303.85,1209.18a36.38,36.38,0,0,1-20.47-16.07l.51-5.76,30.3,11.08s-.19,6.33-.09,13A34.38,34.38,0,0,1,4303.85,1209.18Z" transform="translate(-475.59 -243.12)"/><path class="cls-5" d="M4278.55,1158s-.73-15.25-10.1-12.29-2.23,26,5.54,25.23S4278.55,1158,4278.55,1158Z" transform="translate(-475.59 -243.12)"/><path class="cls-5" d="M4308,1108.19s14.66-.33,22.15,11.07,15.64,44,3.26,66.46-28.18,17-34.7,14.66-19.38-7.33-25.9-28.34S4271,1103.79,4308,1108.19Z" transform="translate(-475.59 -243.12)"/><path class="cls-4" d="M2129.38,1209.43c-8.93-25.09-59-147.4-71.55-150.67L2037,1112.88c1.09.47,3,2.09,49.71,85.68,1.15,2.11,2.38,4.26,3.6,6.45q4.93,8.82,10.49,18.86l-4,22.62s-.05,36.27,4,37.64c1.84.6,3-2.33,3.79-6v-.11l.33-1.61v-.07c.75-3.94,1.12-8.11,1.55-9.1a23.74,23.74,0,0,1,3.05-5.25c7.61,23.14,4.45,21.18,3.46,28.61-.28,1.87.13,3.89-.14,5.65-.47,3-2.44,5.29-2.75,7.63a10.17,10.17,0,0,0,1.58,7c.73.85,2-.55,3.49-3.34,8.76-16.85,6.89-31.44,8.33-36,1-3,1.73,2.69.17,11.46-.37,2.19.22,5.13-.67,8-.57,1.92-1.95,3.6-2.56,5.47s-.65,3.55-1,5c-.5,1.93-2.16,4.53-2.45,6.06-1.06,5.73-.25,8.61.25,9.3,1.1,1.42,13-24.09,13-24.09s3.87-17.88,4.15-21.92c0,0,1.25-2.34,1.64,2.43,0,.8-.67,4.34-.8,7.27a56.42,56.42,0,0,0,.15,7.62,21.55,21.55,0,0,0-3.1,4.42c-.66,1.22-1,3.26-1.77,4.62s-2.1,2.53-2.81,3.86c-1.8,3.46-2.39,6.72-.6,7.93,1.49,1,15-18,15-18C2143.45,1272.6,2154.18,1254,2129.38,1209.43Z" transform="translate(-475.59 -243.12)"/><path class="cls-5" d="M2126.22,1694.6c-3.78-20.16.13-63-.22-102.6-17.74-.09-28.2,32-45.93,31.62,9.67,50.12,7,74.76,7,74.76l-.76,10,.7,29.59,100.18-3.83s-21.53-8.39-51.9-25.54C2133.07,1707.37,2127.84,1703.24,2126.22,1694.6Z" transform="translate(-475.59 -243.12)"/><path class="cls-3" d="M2084.63,1744.47l105.66-3.57c3.81-.52,4.6-3.65,3.18-5.5-2.91-3.8-15.1-6.13-28.94-11.76-23.66,3.56-74.15-10.41-78.15-15.7C2084.71,1719,2082.48,1744.1,2084.63,1744.47Z" transform="translate(-475.59 -243.12)"/><path class="cls-5" d="M1819.83,1687.76c8.32-18.75,28.33-50.45,50.49-83.25-14.56-10.13-33.85,9-48.25-1.38-20.46,46.77-36.61,65.56-36.61,65.56l-6.31,7.83-16.2,24.77,72.41,36.44s.39-.62-5.58-13c-2.29-4.76-6.17-11.56-10.41-20.26C1818.24,1702.16,1816.27,1695.79,1819.83,1687.76Z" transform="translate(-475.59 -243.12)"/><path class="cls-3" d="M1757.3,1705.26,1821,1746s31.19,2.32,31.07,0c-.24-4.78-14.1-8.79-22.31-21.28-21.52-10.48-50-42-50.33-48.58C1771.82,1684.3,1755.74,1703.74,1757.3,1705.26Z" transform="translate(-475.59 -243.12)"/><path class="cls-3" d="M2105.17,1151.23c-8-27.85,22.51-136.05,22.51-163.9s-36.77-122.64-65.46-140.94-89-2.83-89-2.83l-21.89,96,4.87,101.78-56.87,231-20.77,107.05-94.9,239.47s111,74.63,218,57.31,144-12.9,144-12.9l23.58-256.67Z" transform="translate(-475.59 -243.12)"/><path class="cls-3" d="M1959.44,1272.52h-12.72V1229.8a2.28,2.28,0,0,0-2.28-2.28H1875a2.28,2.28,0,0,0-2.28,2.28v42.72H1860V1229.8a15,15,0,0,1,15-15h69.46a15,15,0,0,1,15,15Z" transform="translate(-475.59 -243.12)"/><polygon class="cls-1" points="1290.97 1132.41 1303.7 1218.02 1568.83 1218.02 1582.41 1132.41 1290.97 1132.41"/><path class="cls-1" d="M2062.57,1376.51H1762.28l15.17-102a15.76,15.76,0,0,1,15.59-13.44h237.75a15.77,15.77,0,0,1,15.57,13.29Z" transform="translate(-475.59 -243.12)"/><path class="cls-3" d="M1915.09,1357.5h0a8.39,8.39,0,0,1-8.39-8.39v-60.64a8.39,8.39,0,0,1,8.39-8.38h0a8.38,8.38,0,0,1,8.39,8.38v60.64A8.39,8.39,0,0,1,1915.09,1357.5Z" transform="translate(-475.59 -243.12)"/><path class="cls-3" d="M1874.67,1357.5h0a8.39,8.39,0,0,1-8.39-8.39v-60.64a8.39,8.39,0,0,1,8.39-8.38h0a8.38,8.38,0,0,1,8.39,8.38v60.64A8.39,8.39,0,0,1,1874.67,1357.5Z" transform="translate(-475.59 -243.12)"/><path class="cls-3" d="M1835.4,1357.5h0a8.39,8.39,0,0,1-8.39-8.39v-60.64a8.38,8.38,0,0,1,8.39-8.38h0a8.38,8.38,0,0,1,8.38,8.38v60.64A8.39,8.39,0,0,1,1835.4,1357.5Z" transform="translate(-475.59 -243.12)"/><path class="cls-3" d="M1989.45,1357.5h0a8.39,8.39,0,0,1-8.39-8.39v-60.64a8.39,8.39,0,0,1,8.39-8.38h0a8.38,8.38,0,0,1,8.39,8.38v60.64A8.39,8.39,0,0,1,1989.45,1357.5Z" transform="translate(-475.59 -243.12)"/><path class="cls-3" d="M1950.18,1357.5h0a8.39,8.39,0,0,1-8.39-8.39v-60.64a8.38,8.38,0,0,1,8.39-8.38h0a8.39,8.39,0,0,1,8.39,8.38v60.64A8.39,8.39,0,0,1,1950.18,1357.5Z" transform="translate(-475.59 -243.12)"/><rect class="cls-3" x="1281.27" y="1125.93" width="311.5" height="21.74"/><path class="cls-4" d="M1929.87,1180.14c-2.53-1.66.17-43,.17-43s-3.46-116.38-3-122.79l42.55-77.07-58.89-8s-38.62,70.45-40.41,77.31,25.78,148.69,26.45,163c0,0-9.66,21.57-12.68,32.52s2.28,22,1.9,25.21c-.06.47,12,7.43,15.14,6.52,9.5-2.73,14.82-3.5,17.06-3,13.22,3,8.85-16.33,11-16.24s11.5-.32,11.5-.32C1941.28,1214.29,1943.43,1189,1929.87,1180.14Z" transform="translate(-475.59 -243.12)"/><path class="cls-3" d="M1973.19,843.56s-20.75,4.75-31.28,15.28-49.4,87.09-49.4,87.09l56,37.36,17.11-30.6A126.6,126.6,0,0,0,1976.57,855Z" transform="translate(-475.59 -243.12)"/><path class="cls-7" d="M2113.75,790.22s38.16-75.13,1.43-98.6c-28.22-18-40.7-4.88-40.7-4.88s-43.42-31.71-59.57,19.07c0,0-33.43.75-40.48,29.43s9,41.57,9,41.57-17.55,14.81-13.1,37.15,38.17,33,57.85,20.39,17.36-2.51,33-2.51S2113.75,790.22,2113.75,790.22Z" transform="translate(-475.59 -243.12)"/><path class="cls-5" d="M2079.21,817.44s-24.51,46.27-16.52,69.2C2067.14,899.43,2015,846,2015,846l27.17-51.91Z" transform="translate(-475.59 -243.12)"/><path class="cls-3" d="M2037.62,802.78c4.41,12.34,11.87,23.69,23.42,31.69a51.4,51.4,0,0,0,8.45,4.81,215,215,0,0,1,9.72-21.84l-37-23.39Z" transform="translate(-475.59 -243.12)"/><path class="cls-5" d="M2067.43,704.51s-18.29,2.89-30.36,18.62-16.87,73.28,18.59,97.85,60.26-15.41,62.48-46.41S2115.78,701.76,2067.43,704.51Z" transform="translate(-475.59 -243.12)"/><path class="cls-5" d="M2038.75,770.32c1.58,8.36-1.89,15.92-7.75,16.89s-11.88-5-13.46-13.4,1.89-15.92,7.75-16.89S2037.18,762,2038.75,770.32Z" transform="translate(-475.59 -243.12)"/><path class="cls-7" d="M2078.52,697.25c5.89,5.43-2.31,24-18.33,41.49s-33.77,27.26-39.66,21.84,2.31-24,18.33-41.49S2072.63,691.83,2078.52,697.25Z" transform="translate(-475.59 -243.12)"/></svg>