<svg id="Layer_1" data-name="Layer 1" xmlns="http://www.w3.org/2000/svg" viewBox="0 0 272.26 133.06"><defs><style>.cls-1{fill:#aedcff;}.cls-2{fill:#9bc1f9;}.cls-3{fill:#7fc4fd;}.cls-4{fill:#2699fb;}</style></defs><title>details</title><path class="cls-1" d="M348.49,461.59a6.52,6.52,0,1,1,6.95,6.05A6.52,6.52,0,0,1,348.49,461.59Z" transform="translate(-155.87 -371.98)"/><path class="cls-1" d="M359.55,480a44.49,44.49,0,0,0-1.27-5.74,1.49,1.49,0,0,0-2.88.59,45.2,45.2,0,0,0,1.23,6.17,1.55,1.55,0,0,0,2,1,1.58,1.58,0,0,0,.95-2Z" transform="translate(-155.87 -371.98)"/><path class="cls-1" d="M370.73,471.93a65,65,0,0,1-6.05-4.37,1.49,1.49,0,0,0-1.95,2.25,28.57,28.57,0,0,0,6.59,5,1.59,1.59,0,0,0,1.41-2.84Z" transform="translate(-155.87 -371.98)"/><path class="cls-1" d="M366.63,460.25a1.11,1.11,0,0,0-.28,1.5c.73,1.33,2.58,1.26,3.9,1.22a14.31,14.31,0,0,0,4.05-.77,1.58,1.58,0,0,0-1.05-3C369.48,460.51,368.05,459.11,366.63,460.25Z" transform="translate(-155.87 -371.98)"/><path class="cls-1" d="M364.55,447.57c-1.89,2.77-3.45,3.71-3.2,5.24a1.32,1.32,0,0,0,1.71,1.13c1-.24,1.57-1.32,2.18-2.08s1.16-1.45,1.69-2.23a1.63,1.63,0,0,0-.16-2.22,1.58,1.58,0,0,0-2.22.16Z" transform="translate(-155.87 -371.98)"/><path class="cls-1" d="M357.16,447.08c-.61-1.68-.74-2.29-1.53-3.07a1.36,1.36,0,0,0-2.22.75c-.12,1.17.13,1.6.77,3.37a1.58,1.58,0,1,0,3-1.05Z" transform="translate(-155.87 -371.98)"/><path class="cls-1" d="M349.17,451.16c-2.74-2.08-3.29-2.67-4.37-2.55a1.3,1.3,0,0,0-1.2,1.38c.26,1.31,1,1.67,3.54,3.5a1.58,1.58,0,0,0,2.18-.15,1.56,1.56,0,0,0-.15-2.18Z" transform="translate(-155.87 -371.98)"/><path class="cls-1" d="M338.18,460.69a1.45,1.45,0,0,0,.52,2.59c1.12.15,1.55,0,7-1a1.62,1.62,0,0,0,1.47-1.68,1.59,1.59,0,0,0-1.68-1.47C339.82,460.12,339.26,460.12,338.18,460.69Z" transform="translate(-155.87 -371.98)"/><path class="cls-1" d="M346.69,469.58c-3,2.88-3.42,2.37-4.59,4.13a1.34,1.34,0,0,0,1.28,1.92c1.2-.22,1.53-.42,3.09-1.66.91-.72,1.78-1.5,2.62-2.3a1.61,1.61,0,0,0-.16-2.25,1.62,1.62,0,0,0-2.24.16Z" transform="translate(-155.87 -371.98)"/><polygon class="cls-2" points="237.74 71.67 235.55 77.38 240.37 80.21 237.42 86.58 244.09 87.93 241.1 95.18 246.86 97.14 245.21 104.22 242.18 104.4 243.41 99.1 237.33 97.03 240.21 90.06 233.42 88.69 236.67 81.66 231.97 78.89 234 73.6 230.28 72.47 231.94 69.9 237.74 71.67"/><polygon class="cls-1" points="62.23 15.94 55.08 17.73 50.94 6.54 40.16 7.86 35.69 0 31.71 2.26 37.69 12.78 47.9 11.53 52.21 23.16 62.97 20.47 62.23 15.94"/><polygon class="cls-3" points="270.79 119.3 264.38 118.79 263.5 124.71 257.17 124.48 255.64 130.04 250.87 130.64 251.17 133.06 257.55 132.25 259 126.98 265.59 127.22 266.45 121.39 272.26 121.86 270.79 119.3"/><polygon class="cls-4" points="153.55 81.25 141.13 85.33 145.84 75.72 153.55 81.25"/><polygon class="cls-1" points="144.48 43.21 112.63 72.53 99.69 51.12 144.48 43.21"/><polygon class="cls-2" points="99.34 41.19 99.69 51.12 144.48 43.21 99.34 41.19"/><polygon class="cls-2" points="98.97 54.74 144.48 43.21 99 69.81 98.97 54.74"/><path class="cls-2" d="M220.37,461.55a1.14,1.14,0,0,1,1.25-1c.07,0,7.27.67,17.14-3,9.72-3.65,14.52-12.22,14.83-13.28a1.14,1.14,0,0,1,2.24.47c-.32,1.62-5.82,11-16.27,14.95s-17.86,3.21-18.17,3.18A1.14,1.14,0,0,1,220.37,461.55Zm33.22-17.33h0Z" transform="translate(-155.87 -371.98)"/><path class="cls-2" d="M173.94,463.88A119.09,119.09,0,0,0,213.61,457c10.59-3.74,19.93-10.8,30.53-13.64a1.14,1.14,0,0,0-.59-2.21c-11,2.94-20.26,10-30.7,13.69a116.67,116.67,0,0,1-38.91,6.73,70.83,70.83,0,0,1-16.65-2.26,1.14,1.14,0,0,0-.54,2.22A73.91,73.91,0,0,0,173.94,463.88Z" transform="translate(-155.87 -371.98)"/></svg>