<svg id="Layer_1" data-name="Layer 1" xmlns="http://www.w3.org/2000/svg" viewBox="0 0 606.02 752.57"><defs><style>.cls-1{fill:#c7e5fd;}.cls-2{fill:#2699fb;}.cls-3{fill:#7fc4fd;}.cls-4{fill:#aedcff;}.cls-5{fill:#9bc1f9;}</style></defs><title>guy-with-baseball</title><path class="cls-1" d="M483.62,824.83s-7.87,7.78-8.05,10.63-.69,33.45,2.52,36.31,12.64,4.88,9.61,8.09c-2.29,2.43-19.93,1.91-31.62,1.26-3.41-.19-7.69-27.78-9-31.84-2-5.89-9-18.71-7.25-22.82.87-2,7.33-6.56,13.19-10.39,6.16-4,12.06-13,12.06-13Z" transform="translate(-249.82 -132.38)"/><path class="cls-1" d="M588.87,843.94l-7,19.93c-.06.18-2.68,11.37-2.68,14.27,0,10.91,48.54-9.26,37.66-14.09-1-.44-4.07-3.93-4.4-7.65-.5-5.72,4.09-12.89,4.09-12.89Z" transform="translate(-249.82 -132.38)"/><path class="cls-2" d="M655.86,461.14l17.57,45.51s11.46,108.61,4.79,173.63C675.43,707.47,615,853,615,853l-30-4.29,40.21-172.36-14.8-65.92L589.43,480.16Z" transform="translate(-249.82 -132.38)"/><path class="cls-2" d="M573.07,463.52,558,514.19,535.07,667.14,457.53,810.21s11.66,17.9,24.18,20.72l110.06-144.6,59.64-181-2.09-40.22Z" transform="translate(-249.82 -132.38)"/><path class="cls-3" d="M644.4,429.68c-1.49-3.94-16.44-82.16-16.44-82.16l37.19,3.94L676,417.67l24.11-11.09s21.76-9.85,22.7-11.36c.8-1.27-1.13-1.88,4.82-12,1.72-2.91,6-5.3,6-5.3s5.29-2.89,6.33-1.88a2.91,2.91,0,0,1,.09,3.7c-.75.89-3,1.79-3.74,2.68s-.48,4.5.1,5.68,15.86-7.85,15.86-7.85,4.26-2.8,5.6-3.83c1.14-.89,4.36-3.79,4.36-3.79s5.65-4.37,6.79-2.86c1.4,1.86-16.7,17.2-16.11,18.18.71,1.19,9.21-3.58,9.21-3.58s3.49-3.14,5.4-4c1.82-2.28,6.48-5,7.74-3.11.23.36-4.75,5.65-4.75,5.65s-3.4,2.89-4.93,4.36c-2.7,2.61-7.66,5.12-9.63,6.74-1.63,1.34-.69,1.43-.68,1.67s2.44-1.28,5.8-3.22c1.7-1,3.82-1.71,5.61-3.15a46.92,46.92,0,0,1,5.76-3.7c4.4-2.46,5.18.67,1.45,3.61-1.42,1.13-3,2.33-4.55,3.55-6.15,4.74-12.73,7.76-12.47,8.53.35,1,12-5.2,12-5.2s7.26-1.59,1.75,2.75a59.77,59.77,0,0,1-12.55,7.66c-1.8.65-7.47,4.83-14.11,6.14s-17.26,3-17.26,3c-5.21,2.95-47.93,29-73.71,44.11l-18.89-23c2.16-1,6.31-2.86,11.52-5.25A12.6,12.6,0,0,1,644.4,429.68Z" transform="translate(-249.82 -132.38)"/><path class="cls-2" d="M672.64,373.87l-42.79,4.43s-2-35.56-2-52.52c0-20.58,2.73-46.21,5.18-45.64,6.88,1.6,15.15,4.58,20.66,12.26C672.82,319,672.64,373.87,672.64,373.87Z" transform="translate(-249.82 -132.38)"/><path class="cls-2" d="M453.37,815.81s16.56,50.81,23.66,53.31c1.89.66,12.49,3.35,14.2,7.41a1.55,1.55,0,0,1,.1.36,4.21,4.21,0,0,1-4.23,4.94H453.43S448.65,859,446.76,849c0,0-10-24.48-8.9-26.7S453.37,815.81,453.37,815.81Z" transform="translate(-249.82 -132.38)"/><path class="cls-2" d="M576.48,881.74l5.44-17.87s11.79,5.08,17.63,4.25S616.78,864,616.78,864c23.29,7.77,42.38,11.54,38.91,17.79H576.48Z" transform="translate(-249.82 -132.38)"/><path class="cls-3" d="M578.52,277.71s-22.65,3.15-28.61,7.53c-6.72,4.93-19.24,24.59-19.24,24.59s35,127.3,33.33,149.36-6.42,54.72-6.42,54.72,84,5.31,115.87-7.26c0,0-10.05-50-10.05-63.09s-5.65-144.29-9.67-151.16-12.11-10.78-27.47-14.13S578.52,277.71,578.52,277.71Z" transform="translate(-249.82 -132.38)"/><path class="cls-1" d="M584.7,242.32,579.1,279s19.58,31.32,31.8,27.53c10.26-3.18,4.84-29.47,4.84-29.47s-2-7.26-3.2-15.35c-.87-5.59-1.4-11.56-.71-15.81C613.5,235.54,584.7,242.32,584.7,242.32Z" transform="translate(-249.82 -132.38)"/><path class="cls-2" d="M611.83,245.93c1.67-10.39-27.13-3.61-27.13-3.61l-.46,3.05a16.81,16.81,0,0,0,3.12,5.11,38,38,0,0,0,25.18,11.32C611.68,256.2,611.14,250.19,611.83,245.93Z" transform="translate(-249.82 -132.38)"/><path class="cls-1" d="M580,190.39c-.82-.3-6.53,41.81,4.31,53.39s32,15.38,39.53,6.25c8.37-10.09,7.95-55.34-8.9-67.26S580,190.39,580,190.39Z" transform="translate(-249.82 -132.38)"/><path class="cls-2" d="M603.38,164.25c-13,2.63-33.38,13.86-41.68,27.51-10.2,16.78-2.67,35.38,9.21,44.5S582.66,256,582.66,256l1.84-5.51A30.11,30.11,0,0,0,586,237.63a25.08,25.08,0,0,0-1.92-7.72c-2.86-6.09,6.14-10.14,8.66-15.21,1.94-3.9,2-12.83,5.1-19.28l3.65-4.93s8.23-5,16.68-4.68C623.25,186,620.09,160.86,603.38,164.25Z" transform="translate(-249.82 -132.38)"/><path class="cls-1" d="M592.18,222.2c.08,5.13-2.27,9.34-5.25,9.39s-5.48-4.07-5.57-9.21,2.27-9.34,5.25-9.39S592.09,217.06,592.18,222.2Z" transform="translate(-249.82 -132.38)"/><rect class="cls-2" x="543.51" y="868.13" width="18.65" height="14.07" transform="translate(855.84 1617.96) rotate(-180)"/><path class="cls-2" d="M525.63,566.6a2.9,2.9,0,0,0-2.76-3H475.48a2.9,2.9,0,0,0-2.76,3v83.67h-8.4V566.6c0-6.72,5-12.19,11.16-12.19h47.39c6.15,0,11.15,5.47,11.15,12.19v83.67h-8.39Z" transform="translate(-249.82 -132.38)"/><path class="cls-2" d="M438.33,882.84l113.41-6.36a11.27,11.27,0,0,0,11-11.53L573.47,663.2c.33-14.11-15.67-16.34-21.73-16.34H428.33a11.27,11.27,0,0,0-11,11.53V865C417.31,875.66,427.84,882.65,438.33,882.84Z" transform="translate(-249.82 -132.38)"/><rect class="cls-4" x="428.14" y="653.2" width="145.36" height="229.61" rx="21.64" ry="21.64" transform="translate(751.82 1403.64) rotate(-180)"/><path class="cls-2" d="M455.11,723.47h90.16a0,0,0,0,1,0,0V837.73a45.08,45.08,0,0,1-45.08,45.08h0a45.08,45.08,0,0,1-45.08-45.08V723.47A0,0,0,0,1,455.11,723.47Z" transform="translate(750.56 1473.91) rotate(-180)"/><path class="cls-2" d="M497.15,638.2c-11.42,0-21.1,5.06-21.49,11.14H466.5c.34-10,13.92-18.06,30.65-18.06s30.31,8.05,30.65,18.06h-9.16C518.25,643.26,508.57,638.2,497.15,638.2Z" transform="translate(-249.82 -132.38)"/><rect class="cls-2" x="474.63" y="552.57" width="48.53" height="11.7" rx="5.85" ry="5.85" transform="translate(747.96 984.46) rotate(180)"/><path class="cls-3" d="M550.87,366.1S521.42,417.63,520,431.37s-5.9,95.68-5.9,95.68,5.9,35.35,3,38.3-11.29,2-13.74,2.45c-1.82.36-7.68-.35-10.6-.74a11.48,11.48,0,0,1-3.15-.9l-4-1.88s8.45-33.34,8.22-35.77-7.11-93.7-3.18-111.86,30.42-79,30.42-79Z" transform="translate(-249.82 -132.38)"/><path class="cls-4" d="M500.84,370.2l39.56,20.61s12.87-30,21.27-47.77c8.5-18-3.32-60.05-12.37-57.61C529.05,290.88,500.84,370.2,500.84,370.2Z" transform="translate(-249.82 -132.38)"/><path class="cls-2" d="M606.89,497.9q-.58,10-1.08,20c-.59,9.78,8.85,18.51,20.93,18.53a323.26,323.26,0,0,0,46.72-3.26c11.86-1.69,19.35-11.5,17-21q-2.26-9.76-4.41-19.56a19,19,0,0,0-21.21-14.31,267.92,267.92,0,0,1-38.8,2.59C616.25,480.85,607.59,488.11,606.89,497.9Z" transform="translate(-249.82 -132.38)"/><path class="cls-2" d="M559.89,488.46s33.27,9.32,49.81,12l-1.18,16.91-50.94-3.5Z" transform="translate(-249.82 -132.38)"/><path class="cls-2" d="M612.8,497.9q-.6,10-1.08,20c-.59,9.78,8.85,18.51,20.93,18.53a323.26,323.26,0,0,0,46.72-3.26c11.86-1.69,19.35-11.5,17-21q-2.25-9.76-4.4-19.56a19,19,0,0,0-21.21-14.31,267.92,267.92,0,0,1-38.8,2.59C622.16,480.85,613.5,488.11,612.8,497.9Z" transform="translate(-249.82 -132.38)"/><path class="cls-2" d="M649.23,503.17a124.65,124.65,0,0,0,36.41-5.7l-1.14-3.35c-.33.11-33.29,11.06-60.58,1.63l-1.16,3.35A81.4,81.4,0,0,0,649.23,503.17Z" transform="translate(-249.82 -132.38)"/><rect class="cls-2" x="632.53" y="498.38" width="5.34" height="4.25" rx="2.13" ry="2.13" transform="translate(930.82 965.2) rotate(-170.65)"/><path class="cls-2" d="M630.8,507.29l5.51.76-.29-7.36-1.75-.34Zm4.27-.6-2.48-.35,2.29-4.57Z" transform="translate(-249.82 -132.38)"/><rect class="cls-5" x="426.29" y="595" width="46.48" height="18.49" transform="translate(649.25 1076.11) rotate(-180)"/><path class="cls-2" d="M855.84,882.84h0c0,1.16-.42,2.1-1,2.1H250.77c-.52,0-1-.94-1-2.1h0c0-1.17.43-2.11,1-2.11H854.89C855.42,880.73,855.84,881.67,855.84,882.84Z" transform="translate(-249.82 -132.38)"/><polygon class="cls-4" points="177.42 225.55 160.37 229.81 150.48 203.12 124.77 206.27 114.1 187.51 104.61 192.91 118.87 218 143.23 215.01 153.52 242.78 179.19 236.37 177.42 225.55"/><path class="cls-2" d="M428.67,447.28l-9.07,10.11,3.19,13.2a1.33,1.33,0,0,1-1.82,1.53l-12.42-5.5L397,473.73a1.32,1.32,0,0,1-2-1.26L396.35,459,386,450.14a1.32,1.32,0,0,1,.58-2.3L399.87,445l5.19-12.56a1.33,1.33,0,0,1,2.37-.16L414.24,444l13.55,1.05A1.33,1.33,0,0,1,428.67,447.28Z" transform="translate(-249.82 -132.38)"/><path class="cls-2" d="M480.91,284.29l-10.47,3.22L467.15,298a1.06,1.06,0,0,1-1.89.29l-6.3-9-11,.1a1.07,1.07,0,0,1-.86-1.71l6.58-8.76-3.49-10.39a1.07,1.07,0,0,1,1.36-1.35L462,270.74l8.8-6.52a1.06,1.06,0,0,1,1.7.87l-.17,11,8.93,6.35A1.07,1.07,0,0,1,480.91,284.29Z" transform="translate(-249.82 -132.38)"/><path class="cls-4" d="M774.88,149.73a33.33,33.33,0,1,1-45.24-13.26A33.33,33.33,0,0,1,774.88,149.73Z" transform="translate(-249.82 -132.38)"/></svg>