<svg id="Слой_1" data-name="Слой 1" xmlns="http://www.w3.org/2000/svg" viewBox="0 0 1881.24 1743.83"><defs><style>.cls-1{fill:#aedcff;}.cls-2{fill:#2699fb;}.cls-3{fill:#7fc4fd;}.cls-4{fill:#c7e5fd;}.cls-5{fill:#e9f5fe;}.cls-6{fill:#f3f8ff;}</style></defs><title>hand-and-phone</title><path class="cls-1" d="M970.17,998s-37.26,193.66-72.87,184.5,57.08-212.8,57.08-212.8S818.68,823,750.42,803.35c0,0,34.4,217.06,2.14,199.42S674,760.92,674,760.92s-159.22-99.65-227-8.75S403.7,911.56,426.64,928s187.06,78.79,174.44,98.32-136.29,9.91-190.25-33.47c0,0,1.69,194.34,94.11,221s141.76-17.55,198.58,0,91.24,48.29,57.81,52.25-122.8-42.88-182.29-22.61-104.75,29.36-28.75,79,228.64,97.66,283.46,45.77l6.86-6.49a36,36,0,0,1-6.86,6.49c11.74,14.93,17.86,66.41,20.88,105.24.07,6.44.62,15.52,1.83,28h0c.3,5.56.5,10.09.63,13.25.34,84.46-64.86,204.33-64.86,204.33l15.8,11.72c89.29-111.49,61.81-242.9,61.81-242.9-11.87-100.3,18.73-171.57,18.73-171.57s194.23-26.24,167.75-176.44C1056.32,1139.9,1026.25,1042.22,970.17,998Z" transform="translate(-44.67 -256.17)"/><path class="cls-2" d="M1593.57,997.38s-95.23,190.51-192,322c-38.49,52.34-77.22,95.33-110.28,113.26-32.35,17.54-59.74,44.8-82.41,75-58.7,78.21-85.79,176.12-85.79,176.12L875.77,1309.55s8.44-365.81,38.14-427c43.28-89.17,64.19-269.34,80.82-305.21,12.34-26.61,47.57-164.06,51-174.16,1.47-4.35,13.19-11,28.41-11,12.22,0,33,11.81,38.19,36.07,26.46,122.65-5.38,203.55-5,207.14,9.33,94.26-18.73,164.23,1,182.76.73.68,2.09.36,4-.87C1146.32,795.38,1358,486.81,1384,480.15,1411.58,473.13,1593.57,997.38,1593.57,997.38Z" transform="translate(-44.67 -256.17)"/><path class="cls-2" d="M1809.84,352.63l-76.6,112.29-75.17,110.2c-4.58,5.53-9.88,7.46-15.62,6.9-18-1.71-40.36-27.72-57.75-42.13l-1.77-1.45a54.27,54.27,0,0,1-7.2-76.18l114.89-138.88h0l34.08-41.18a54.26,54.26,0,0,1,76.18-7.21l1.76,1.45A54.27,54.27,0,0,1,1809.84,352.63Z" transform="translate(-44.67 -256.17)"/><path class="cls-3" d="M1733.24,464.92l-75.17,110.2c-4.58,5.53-9.88,7.46-15.62,6.9l48.17-258.64C1690.73,324.83,1698.92,440.88,1733.24,464.92Z" transform="translate(-44.67 -256.17)"/><path class="cls-3" d="M1401.61,1319.4c-38.49,52.34-77.22,95.33-110.28,113.26-32.35,17.54-59.74,44.8-82.41,75-26.07-12.15-55.79-26.41-84.84-40.53-35.37-17.19-36.72-67.41-2.08-86l1-.55c32.46-18.57,65.73-84.17,65.73-84.17Z" transform="translate(-44.67 -256.17)"/><path class="cls-4" d="M1044,408.87l-20.05,80.92s17.53,7.17,28.78,1.6S1073.12,413.23,1044,408.87Z" transform="translate(-44.67 -256.17)"/><rect class="cls-1" x="1067.61" width="585.13" height="1101.47" rx="77.08" ry="77.08"/><path class="cls-5" d="M1668.42,340.54V1265.9c0,31.39-25.51,57.07-56.66,57.07H1197.94c-31.16,0-56.65-25.68-56.65-57.07V340.54c0-31.39,25.49-57.07,56.65-57.07h413.82C1642.91,283.47,1668.42,309.15,1668.42,340.54Z" transform="translate(-44.67 -256.17)"/><path class="cls-4" d="M1611.76,283.47,1203.06,1323h-5.12c-31.16,0-56.65-25.68-56.65-57.07V340.54c0-31.39,25.49-57.07,56.65-57.07Z" transform="translate(-44.67 -256.17)"/><rect class="cls-3" x="1248.09" y="6.46" width="224.19" height="55.26" rx="25.62" ry="25.62"/><path class="cls-2" d="M1771.71,776.7,1760.29,781l-76.82,29.19A48.19,48.19,0,0,1,1678,812a52.47,52.47,0,0,1-62-32l-1.12-2.95a52.48,52.48,0,0,1,30.32-67.5l71.61-27.21,5.2-2,11.43-4.34a52.46,52.46,0,0,1,67.48,30.32l1.12,3A52.48,52.48,0,0,1,1771.71,776.7Z" transform="translate(-44.67 -256.17)"/><path class="cls-2" d="M1709.33,778.46c-12.82,4.86-36,13.48-48.44,15.26-3.51.51-10-1.4-16-8a47.38,47.38,0,0,1-9.66-17.42,55.11,55.11,0,0,1-2.63-11.12,47.31,47.31,0,0,1,.42-13.23,13.22,13.22,0,0,1,7.33-9.43l.06,0c13.2-6.31,31-14,46.59-18.27,10.78-3,21.69,1.78,25.1,11.22l1.62,4.41,8.24,22.58C1725.35,763.79,1719.81,774.51,1709.33,778.46Z" transform="translate(-44.67 -256.17)"/><path class="cls-4" d="M1709.33,778.46c-12.82,4.86-36,13.48-48.44,15.26-3.51.51-10-1.4-16-8-.65-1.5-1.24-3.09-1.8-4.78a55.18,55.18,0,0,1-2.62-11.13,46.86,46.86,0,0,1,.42-13.22,13.21,13.21,0,0,1,7.33-9.44s0,0,0,0c13.2-6.3,31-14,46.59-18.26a22.08,22.08,0,0,1,18.86,3l8.24,22.58C1725.35,763.79,1719.81,774.51,1709.33,778.46Z" transform="translate(-44.67 -256.17)"/><path class="cls-2" d="M1736.86,884.69l-59.24,16.13A34,34,0,0,1,1636,877l-1.82-6.7A34,34,0,0,1,1658,828.66l59.24-16.13a34,34,0,0,1,41.64,23.82l1.82,6.71A34,34,0,0,1,1736.86,884.69Z" transform="translate(-44.67 -256.17)"/><path class="cls-2" d="M1704.82,881.79c-10.88,2.9-30.55,8-40.85,8.59-3.75.21-11.27-3-16.17-12.82a44.82,44.82,0,0,1-4.35-17.06,34.13,34.13,0,0,1,1.32-10.14,10.52,10.52,0,0,1,6.7-6.77l.06,0c11.28-4,26.45-8.75,39.56-11,9.06-1.59,17.65,2.77,19.77,10.24l1.53,5.33,4.57,16C1719.06,871.54,1713.71,879.43,1704.82,881.79Z" transform="translate(-44.67 -256.17)"/><path class="cls-4" d="M1704.82,881.79c-10.88,2.9-30.55,8-40.85,8.59-3.75.21-11.27-3-16.17-12.82a38,38,0,0,1-1.19-8.17,34.13,34.13,0,0,1,1.32-10.14,10.54,10.54,0,0,1,6.7-6.77s0,0,0,0c11.29-4,26.46-8.74,39.57-11,7.5-1.32,14.69,1.45,18.14,6.67l4.57,16C1719.06,871.54,1713.71,879.43,1704.82,881.79Z" transform="translate(-44.67 -256.17)"/><path class="cls-3" d="M894.82,1590.34a19.2,19.2,0,1,1,19,19.37A19.2,19.2,0,0,1,894.82,1590.34Z" transform="translate(-44.67 -256.17)"/><path class="cls-2" d="M1769.84,663.17l-1.27.43-77.67,19.94c-34.14,8.78-69.46-9.7-78.47-41l-4.62-16.07c-8.66-30.1,10-61.58,41.69-71.79l25.64-6.58,52-13.36c34.15-8.77,69.46,9.71,78.47,41.06l4.62,16.06C1818.79,621.51,1800.79,652.53,1769.84,663.17Z" transform="translate(-44.67 -256.17)"/><path class="cls-2" d="M1734.25,641.49l-37.72,17-.24.06a41.19,41.19,0,0,1-4.57.94c-.63.1-1.27.17-1.91.24a4.27,4.27,0,0,1-.8,0,6,6,0,0,1-5.2-8.48,37.55,37.55,0,0,0,2.13-25.58l-.9-3.29a.22.22,0,0,0,0-.1l-2.92-10.71a40.13,40.13,0,0,0-13.67-20.85c-.78-.63-1.58-1.22-2.39-1.78-7.46-5.17-5.56-16.87,3.17-19.29l.24-.07,41.41-6.27c10.23-2.78,20.09,5.1,22.88,15.34l3.33,12.2,7.08,26C1746.92,627.13,1744.49,638.71,1734.25,641.49Z" transform="translate(-44.67 -256.17)"/><path class="cls-4" d="M1734.25,641.49l-37.72,17-.24.06c-.89.17-3.65.63-7.28,1.19a6,6,0,0,1-5.2-8.48,37.55,37.55,0,0,0,2.13-25.58l-.9-3.29a.22.22,0,0,0,0-.1l-2.92-10.71a40.13,40.13,0,0,0-13.67-20.85,10.49,10.49,0,0,1,5.94-4.23l.23-.07,41.41-6.26c8.62-2.34,17,2.88,21.06,10.69l7.08,26C1746.92,627.13,1744.49,638.71,1734.25,641.49Z" transform="translate(-44.67 -256.17)"/><path class="cls-3" d="M1112.28,1067.12s-16.94-147.89-32.57-176.73-28.86-86.6-4.81-129.51,32.36-125.5,32.36-125.5c9.33,94.26-18.73,164.23,1,182.76.73.68,2.09.36,4-.87Z" transform="translate(-44.67 -256.17)"/><path class="cls-1" d="M1917.35,1472.46c-27.12-100.13-196.08-68.84-196.08-68.84s-114.73,175.22-148.11,179.4,68.84-169,68.84-169c-64.67-6.26-229.46,73-229.46,73s10.43,204.43-23,200.26,0-181.49,0-181.49c-62.58,18.78-121,91.79-121,91.79-73,118.9,83.44,206.51,83.44,206.51s2.09,70.93-41.72,152.28h0s-9.89,15-19.94,40.56h17.07c1.39-4.58,2.92-9,4.63-13.25a.09.09,0,0,1,0-.07c0-.07.05-.13.07-.19,1.17-2.63,2.85-6.38,4.94-11h0v0c5.22-10.21,8.74-17.75,11-23.19,0,0,0,0,0,0,15.62-32,38.12-73.76,53.13-82.52a33,33,0,0,1-3.66-7.82c1.17,2.49,2.38,5.1,3.66,7.82,29.2,62.58,175.22,73,256.58,56.33s45.89-39.64,2.08-76.88-135.59-27.42-162.71-42,12.52-29.2,66.76-25,81.35,58.41,169,66.75,154.37-156.45,154.37-156.45c-60.5,18.78-169-14.6-173.14-35.46s156.45-18.77,181.48-25S1944.47,1572.59,1917.35,1472.46Z" transform="translate(-44.67 -256.17)"/><path class="cls-3" d="M53.23,1472.46c27.11-100.13,196.08-68.84,196.08-68.84S364,1578.84,397.42,1583s-68.84-169-68.84-169c64.67-6.26,229.46,73,229.46,73s-10.43,204.43,23,200.26,0-181.49,0-181.49c62.58,18.78,121,91.79,121,91.79,73,118.9-83.44,206.51-83.44,206.51s-2.09,70.93,41.71,152.28h0s9.88,15,19.93,40.56H663.13q-2.08-6.87-4.63-13.25a.09.09,0,0,0,0-.07,1.08,1.08,0,0,0-.08-.19c-1.16-2.63-2.84-6.38-4.94-11h0v0c-5.21-10.21-8.73-17.75-11-23.19a.09.09,0,0,1,0,0c-15.62-32-38.12-73.76-53.13-82.52a32.78,32.78,0,0,0,3.65-7.82l-3.65,7.82c-29.2,62.58-175.22,73-256.58,56.33s-45.89-39.64-2.08-76.88,135.59-27.42,162.7-42-12.51-29.2-66.75-25-81.35,58.41-169,66.75S103.29,1689.4,103.29,1689.4c60.49,18.78,169-14.6,173.14-35.46S120,1635.17,95,1628.91,26.11,1572.59,53.23,1472.46Z" transform="translate(-44.67 -256.17)"/><path class="cls-1" d="M1197.55,1609.72s-3.37,166.3-13,390.28H560.58c142.63-304.14,266.62-560.12,266.62-560.12S1182.47,1450.73,1197.55,1609.72Z" transform="translate(-44.67 -256.17)"/><path class="cls-3" d="M766.46,1566.05s121.93,116.78,204.12,161.87l62.23-44.14v65.11s122.4,21.65,161,0V1571.32L850.05,1399Z" transform="translate(-44.67 -256.17)"/><path class="cls-6" d="M875.77,1296.38s-77.43,115.84-154.38,239.69c0,0,162.18,111.56,250.1,144.29l115.33-132.09-16.46,159s102.06,37.2,149.42,27.49c0,0-3-144.24-3-238.75C1216.82,1496,936.24,1417.37,875.77,1296.38Z" transform="translate(-44.67 -256.17)"/></svg>