<svg id="Layer_1" data-name="Layer 1" xmlns="http://www.w3.org/2000/svg" viewBox="0 0 673.01 650.92"><defs><style>.cls-1{fill:#7fc4fd;}.cls-2{fill:#9bc1f9;}.cls-3{fill:#aedcff;}.cls-4{fill:#2699fb;}.cls-5{fill:#e9f5fe;}.cls-6{fill:#c7e5fd;}</style></defs><title>Home-landing sutff</title><path class="cls-1" d="M425.56,703.64a136.12,136.12,0,0,0,15.25-2.84c1.52-.38,4.26-.58,5-2.14a1.64,1.64,0,0,0-.52-2.19c-1.43-1-3.59.08-5.12.45-4.66,1.15-10,2.22-15.43,3a1.92,1.92,0,0,0-1.45,2.27,1.94,1.94,0,0,0,2.28,1.45Z" transform="translate(-255.47 -430.2)"/><polygon class="cls-2" points="38.93 473.1 48.37 473.92 50.53 465.54 61.27 467.21 60.43 456.7 72.5 458.06 72.96 448.65 84.21 448.08 85.76 452.52 77.35 452.95 76.86 462.88 65.26 461.57 66.12 472.26 54.27 470.42 52.15 478.6 43.41 477.84 43.3 483.86 38.77 482.48 38.93 473.1"/><polygon class="cls-3" points="596.19 55.02 594.63 66.32 576.16 65.81 571.83 82.06 557.94 83.93 558.89 90.96 577.46 88.45 581.57 73.06 600.78 73.59 603.14 56.58 596.19 55.02"/><polygon class="cls-4" points="46.97 365.89 17.81 375.49 28.86 352.93 46.97 365.89"/><path class="cls-4" d="M523.93,620.9l-17.52-42.44c-8.11-19.67-34.53-36.85-53.82-27.89L405,450.14a19.26,19.26,0,0,0-25.14-10.46h0a19.27,19.27,0,0,0-10.46,25.15l47.06,99.25c-44.05,16.11-3.18,74.3,5,94,0,0-13.36,28.7-6.45,55.06,19.05,72.72,64.45,77.78,98.56,63.71l20.74-8.56c34.12-14.07,33.29-80.92,15.41-118.29C544.85,640,523.93,620.9,523.93,620.9Z" transform="translate(-255.47 -430.2)"/><path class="cls-4" d="M650.48,536.31c2.54-11.56,5-23.19-1.67-35.89a32.59,32.59,0,0,0-25.66-17.48c-30.76-3.65-33.47,23.83-62.69,35.86-12.48,5.14-25.28,3.67-36.43,10.31-20.14,12-12.72,26.52.63,57.87,32.71,76.76,89,32.31,98.88,17.2C630.92,592.93,648.84,543.75,650.48,536.31Z" transform="translate(-255.47 -430.2)"/><path class="cls-1" d="M632.72,575.76c-16.49,5.15-51.46,30.89-53.7,30.35l-40.71-32.4-25,22s55.89,41.39,59.06,42.9c2.35,1.12,46.66-36.52,69.86-47.87C641.85,583.17,636.43,582.37,632.72,575.76Z" transform="translate(-255.47 -430.2)"/><path class="cls-4" d="M567.94,591.85l-25.51,33s-26.9-20.67-36.81-31.79c-12-13.5-25.19-42.47-23.25-43.52,5.45-3,17.2-5.36,25.32-3.55C535.75,552.3,567.94,591.85,567.94,591.85Z" transform="translate(-255.47 -430.2)"/><path class="cls-1" d="M631.67,594.23l-3.15-16.42a27.5,27.5,0,0,1,15.21,11.4c5.91,9.19,15.81,40.24,17.5,41.16s20.39-27.9,23.66-32.44c4.05-5.62,5.56-12.07,8.09-17s11.46-6.57,14.83-6-4.64,15-4.64,15-20.27,35.21-27,54.51-27.87,28.47-31.25,25.72S631.67,594.23,631.67,594.23Z" transform="translate(-255.47 -430.2)"/><path class="cls-5" d="M635.33,643.54l25.82-14.73s-11.72-49.42-32.63-51Z" transform="translate(-255.47 -430.2)"/><path class="cls-6" d="M693.21,583.66s.84-3.71,3.11-4.47,6.24-.08,6.49,0a47.78,47.78,0,0,0,4.64-2.28l-3.63,6.75s-7.07,8.34-9.43,5.22S693.21,583.66,693.21,583.66Z" transform="translate(-255.47 -430.2)"/><path class="cls-1" d="M708.71,577.22s2.56,13,1.91,15.73-2.28,1.27-2.58.68c-1.26-2.45-2.14-10.79-2.14-10.79Z" transform="translate(-255.47 -430.2)"/><path class="cls-1" d="M703.21,588s1.22,8.06,2.47,9c.81.61,1.85.25,2.19-1.38s-1.63-11.57-1.63-11.57Z" transform="translate(-255.47 -430.2)"/><path class="cls-4" d="M695.76,610.93l-4.25-2.07,18-37h0a4.72,4.72,0,0,1,2.18,6.31Z" transform="translate(-255.47 -430.2)"/><path class="cls-6" d="M527.47,1021.2s-2.19,22.24-7.82,26.32-13.14,19.19-9.38,27.35c1.17,2.56,3.52,4,6.19,4.85a16.41,16.41,0,0,0,19.69-9.22,46.83,46.83,0,0,0,3.86-17c.85-18.07,6.48-27.25,6.48-27.25Z" transform="translate(-255.47 -430.2)"/><path class="cls-6" d="M614,1030.3s1.78,22.44.33,29.73c-.77,3.91-5.06,11.94-3.09,15.62s4.22,4.59,4.22,4.59l51.07.82c2.78,0,1-1.74-1.3-3.39-3.67-2.69-6.63-4.47-18.36-10.13-.76-.37-3.55-2.14-4.55-2.75a35.33,35.33,0,0,1-7.31-6.44c-3.67-4.08-4-23.84-4-23.84Z" transform="translate(-255.47 -430.2)"/><path class="cls-4" d="M653.91,732s6.43,36.43,2.21,60.31-24.49,245.28-24.49,245.28l-22.53,1.26s-4.72-92.47-3.87-105.33,7.52-34.39,7.52-34.39l-2.24-74.67,28.42-98.09Z" transform="translate(-255.47 -430.2)"/><path class="cls-4" d="M587.71,724.37S570,751,565.75,773.06s3.1,89.8-5,118.7c-4.4,15.64-21.06,39.79-23.6,60s-12.47,73.15-12.47,73.15l22.51,4.45L599.5,897.15l41-119.5,10.51-61.54Z" transform="translate(-255.47 -430.2)"/><path class="cls-5" d="M602.07,572.8s-12.16,2-21.22,10.87c-19.42,19,11.41,92.33,13.1,105.19s-13.84,42.86-13.84,42.86,58,10.73,73.8.32c0,0,1.85-103.2.16-112.38s-20.58-37.54-24-41.22S602.07,572.8,602.07,572.8Z" transform="translate(-255.47 -430.2)"/><path class="cls-6" d="M580.11,592.29a8.15,8.15,0,0,1,11-4.81c6,2.59,14.27,7.51,18.32,15.94,6.75,14.09,30.4,62.47,37.72,64.31s37.16-50.22,37.16-50.22-.84-9.19,1.69-14.39,10.14-10.72,11.26-8.89-4.22,6.44-4.22,7.35,2.25,1.54,5.35-.3a14,14,0,0,0,4.77-5.56s5.08,9.23-.27,17.5-7.6,11.64-7.6,11.64S660.66,701.72,648,702.64C636.2,703.49,568.25,628.13,580.11,592.29Z" transform="translate(-255.47 -430.2)"/><path class="cls-6" d="M609.89,541.49s-.13.69-.34,1.86c-1,5.63-5.08,24.32-7.81,29.46-3.29,6.21,11.27,26,25.28,23.6,4.18-.72-3.52-18.2-3.15-20,.71-3.54,1.67-8.38,2.65-13.33.55-2.8,1.12-5.63,1.64-8.3,1.5-7.57,2.72-13.77,2.72-13.77Z" transform="translate(-255.47 -430.2)"/><path class="cls-4" d="M609.55,543.35c.21-1.17.34-1.86.34-1.86l21-.53s-1.22,6.2-2.72,13.77c-.52,2.65-1.08,5.47-1.63,8.25a19.73,19.73,0,0,1-10-5,26.37,26.37,0,0,1-7.59-11.27C609.17,545.37,609.38,544.22,609.55,543.35Z" transform="translate(-255.47 -430.2)"/><path class="cls-6" d="M622.52,491.58a24.79,24.79,0,0,0-14.77,9.19c-6.21,8-12.89,32.78,2.52,46.24s30.64-1.78,32.9-17.93S645,491,622.52,491.58Z" transform="translate(-255.47 -430.2)"/><path class="cls-6" d="M648.1,523.55c-1.84,3.57-4.93,5.55-6.9,4.42s-2.07-4.94-.23-8.51,4.92-5.55,6.89-4.42S649.94,520,648.1,523.55Z" transform="translate(-255.47 -430.2)"/><path class="cls-4" d="M625.13,491.2s-13.23,23.55-22.69,24.64-10.7,13.6-10.7,13.6,3.38-28.83,12.75-34.39S625.13,491.2,625.13,491.2Z" transform="translate(-255.47 -430.2)"/><path class="cls-6" d="M605.54,521.45c.77,4.18-.78,8-3.46,8.57s-5.47-2.4-6.24-6.58.78-8,3.45-8.57S604.77,517.27,605.54,521.45Z" transform="translate(-255.47 -430.2)"/><path class="cls-4" d="M537.68,1066.52c-12.27,2.23-20.43-4.93-24.68-10.29-3.12,6.07-5,13.65-2.73,18.64,2,4.4,7.31,4.75,12,4.93,4.91.18,9.72-1.54,12.16-5.82A40.15,40.15,0,0,0,537.68,1066.52Z" transform="translate(-255.47 -430.2)"/><path class="cls-4" d="M642.3,1064.78c-13.51,3.46-23.49,1.11-29.08-1.14-1.44,4.08-3.35,9.19-2.33,12.14,1.24,3.6,3,4.42,4.56,4.46,12.34.32,45.19.76,54.6.89a1.53,1.53,0,0,0,1.19-2.52C668.91,1075.82,643.31,1065.4,642.3,1064.78Z" transform="translate(-255.47 -430.2)"/><path class="cls-5" d="M599.06,659.85l30.41-20s-12.67-35.8-26.6-48.47-20.53-9.59-23.44-7c-8.08,7.29-6.66,25,2.53,46.88S599.06,659.85,599.06,659.85Z" transform="translate(-255.47 -430.2)"/><path class="cls-6" d="M551.3,1034.23s-1.18,21-1.19,21c-.44,2.66-2.15,9.23-2.15,11.65,0,9.09,40.41-7.71,31.35-11.73-.82-.37-5.11-3.12-5.38-6.22-.42-4.76-1.47-14.4-1.47-14.4Z" transform="translate(-255.47 -430.2)"/><path class="cls-4" d="M579.21,1055.05a144.22,144.22,0,0,1-14.34,3.47c-4.86.7-11.77-2.62-15.21-1-3.78,1.73-2.54,22.33-2.54,22.33s51.31,1.32,68.33.43C621.4,1079.93,598.61,1061.52,579.21,1055.05Z" transform="translate(-255.47 -430.2)"/><path class="cls-6" d="M462.26,1036.24s-1.19,21-1.19,21c-.44,2.66-2.16,9.23-2.16,11.65,0,9.09,40.42-7.71,31.36-11.73-.82-.37-6.39-5.18-6.66-8.27-.41-4.77-.19-12.35-.19-12.35Z" transform="translate(-255.47 -430.2)"/><path class="cls-4" d="M490.17,1057.06a144.66,144.66,0,0,1-14.35,3.47c-4.86.7-11.26-5.15-14.7-3.57-3.78,1.74-4.76,22.69-4.76,22.69s55.84,2.48,68.9.62C531.15,1079.43,509.57,1063.53,490.17,1057.06Z" transform="translate(-255.47 -430.2)"/><path class="cls-4" d="M526.31,733.83l17.08,7.37,36,171.64-1.46,128.68-28.81.67s-13.41-112.56-13.41-121.28-62.07-152.65-62.07-152.65Z" transform="translate(-255.47 -430.2)"/><path class="cls-3" d="M513.12,743.27s-4.78,130.21-4.78,152.5-6.8,147.62-6.8,147.62l-40.1,1.31s-2.08-38-5.18-94c-.48-8.77.63-26.45,0-35.52-4.49-65.24-13.38-126.66-9.13-151,.68-3.92,2-14.16,4.46-16.75C470.51,727.88,513.12,743.27,513.12,743.27Z" transform="translate(-255.47 -430.2)"/><path class="cls-4" d="M465.55,545.5s-19.93,2.77-25.18,6.62c-5.9,4.34-12.46,14-12.46,14s24.47,115.66,24.51,135.12c0,15.06-5.3,52-5.3,52s74,4.67,102-6.39c0,0-8.84-44-8.84-55.52s-10.58-116.53-13-123.87c-2.18-6.65-6.17-18.6-19.68-21.55S465.55,545.5,465.55,545.5Z" transform="translate(-255.47 -430.2)"/><path class="cls-6" d="M471,514.36l-4.77,31.2s15,26.75,25.74,23.41c9-2.8,6.34-24,6.34-24s-4.92-18.27-3.44-27.42S471,514.36,471,514.36Z" transform="translate(-255.47 -430.2)"/><path class="cls-4" d="M494.86,517.53c1.47-9.14-23.87-3.17-23.87-3.17l-.41,2.68a14.91,14.91,0,0,0,2.75,4.5,33.5,33.5,0,0,0,22.16,10C494.72,526.57,494.25,521.28,494.86,517.53Z" transform="translate(-255.47 -430.2)"/><path class="cls-6" d="M466.83,468.66c-.71-.25-5.74,36.79,3.8,47s28.11,13.53,34.77,5.5c7.37-8.88,7-48.69-7.82-59.17S466.83,468.66,466.83,468.66Z" transform="translate(-255.47 -430.2)"/><path class="cls-4" d="M491.94,442.15a41.22,41.22,0,0,0-21.61,12.24c-5.2.61-12.28,3.47-19.58,15.48-9,14.77-2.35,31.13,8.11,39.16a26.33,26.33,0,0,1,9.33,12.5,1.38,1.38,0,0,0,2.62,0h0a26.61,26.61,0,0,0,1.31-11.3,21.64,21.64,0,0,0-1.69-6.79c-2.51-5.36,5.4-8.92,7.62-13.38,1.71-3.44,1.79-11.29,4.49-17l3.21-4.33s7.42-5.74,14.67-4.12S506.64,439.17,491.94,442.15Z" transform="translate(-255.47 -430.2)"/><path class="cls-6" d="M477.56,496.65c.08,4.52-2,8.22-4.62,8.26s-4.81-3.58-4.89-8.1,2-8.22,4.62-8.26S477.49,492.13,477.56,496.65Z" transform="translate(-255.47 -430.2)"/><path class="cls-4" d="M516.37,663.15l.48,2.76a2.6,2.6,0,0,0,3,2.12l57.15-9.9a2.61,2.61,0,0,0,2.13-3l-.48-2.76a2.59,2.59,0,0,0-3-2.12l-57.16,9.89A2.62,2.62,0,0,0,516.37,663.15Z" transform="translate(-255.47 -430.2)"/><path class="cls-6" d="M435.35,560.39c6.7-.19,12.64,44,8.38,48.4s-5.06,58.84-5.06,58.84l63.26-1.57v0c1.23-.83,14.48-9.73,16.38-11.68s11.65-1,14.2,1.79-4.92,1.83-7.14,2.88c-2.48,1.17.89,4.52.89,4.52s16,2.32,19.16-1S556.9,653.67,558,657c.58,1.72-3.72,6.9-6.15,9.08,3-2.27,6.65-4.68,7.9-4.26,2.27.77,1.32,3.66.09,4.51s-14,10.57-15.94,11.25-31.55,1.39-36.66,2.52c0,0-83.42,19-88.16,17.81-4.16-1-8.32-27.74-8.32-48.19S414.4,561,435.35,560.39Z" transform="translate(-255.47 -430.2)"/><path class="cls-4" d="M444.05,550.3s-14.58,3.41-23.73,16.23c-9.57,13.43-17.86,81.3-17.86,81.3L440.31,654l3-33.36,10.11-15.27Z" transform="translate(-255.47 -430.2)"/><path class="cls-6" d="M625.94,576.45a9.56,9.56,0,0,1,7.55-2.55c4.93.35,11.38,6.58,12.28,8.82.47,1.15-2.63,10.24-4,12.23-.8,1.19-2.63,1.78-3.27,1.15-.42-.41,0-2.47.14-2.92.23-.86,1.86-6.48,1.86-6.48s-3.18,5.66-4.66,6a1.69,1.69,0,0,1-2.22-1.33c.45-2.39,2.93-7,2.93-7s-3.73,5.48-5.57,4.9-1.07-2.52-.79-3.18,2.82-4.44,2.82-4.44-4,5.6-4.83,3.59c-.48-1.22,2.16-6.53,2.16-6.53Z" transform="translate(-255.47 -430.2)"/><polygon class="cls-4" points="186.56 114.34 283.77 211.76 283.77 223.75 172.48 122.3 186.56 114.34"/><rect class="cls-4" x="416.73" y="630.84" width="19.65" height="18.63"/><rect class="cls-4" x="495.43" y="630.84" width="19.65" height="18.63"/><rect class="cls-4" x="410.28" y="622.84" width="15.77" height="11.9"/><path class="cls-4" d="M696.64,798a2.45,2.45,0,0,1,2.34-2.55h40.08A2.45,2.45,0,0,1,741.4,798v70.76h7.1V798c0-5.69-4.24-10.31-9.44-10.31H699c-5.21,0-9.44,4.62-9.44,10.31v70.76h7.1Z" transform="translate(-255.47 -430.2)"/><path class="cls-4" d="M770.48,1065.48l-95.92-5.38a9.53,9.53,0,0,1-9.29-9.75L656.18,879.7c-.29-11.93,13.25-13.82,18.38-13.82H778.94a9.52,9.52,0,0,1,9.28,9.75v174.72C788.26,1059.4,779.36,1065.32,770.48,1065.48Z" transform="translate(-255.47 -430.2)"/><rect class="cls-4" x="400.68" y="441.04" width="122.95" height="194.21" rx="21.64" ry="21.64"/><path class="cls-4" d="M462.69,500.48h0a38.13,38.13,0,0,1,38.13,38.13v96.65a0,0,0,0,1,0,0H424.56a0,0,0,0,1,0,0V538.61A38.13,38.13,0,0,1,462.69,500.48Z"/><path class="cls-4" d="M720.73,858.56c9.66,0,17.85,4.28,18.18,9.42h7.75c-.29-8.46-11.78-15.28-25.93-15.28S695.09,859.52,694.8,868h7.75C702.89,862.84,711.07,858.56,720.73,858.56Z" transform="translate(-255.47 -430.2)"/><rect class="cls-4" x="443.27" y="355.93" width="41.05" height="9.9" rx="4.95" ry="4.95"/><path class="cls-1" d="M642.56,625.64a136.12,136.12,0,0,0,15.25-2.84c1.52-.38,4.26-.58,5-2.14a1.64,1.64,0,0,0-.52-2.19c-1.43-1-3.59.08-5.12.45-4.66,1.15-10,2.22-15.43,3a1.92,1.92,0,0,0-1.45,2.27,1.94,1.94,0,0,0,2.28,1.45Z" transform="translate(-255.47 -430.2)"/><polygon class="cls-2" points="8.86 72.99 11.33 82.14 19.94 81.3 22.06 91.96 31.64 87.56 34.5 99.36 43.5 96.57 47.9 106.95 44.25 109.93 40.96 102.17 31.47 105.12 28.72 93.77 18.98 98.24 16.64 86.48 8.23 87.3 5.95 78.82 0.25 80.79 0 76.06 8.86 72.99"/><polygon class="cls-1" points="68.85 216.73 60.14 211.9 55.12 219.7 46.33 215.33 40.62 222.19 33.51 219.99 32.39 223.59 41.9 226.53 47.32 220.03 56.46 224.58 61.4 216.91 69.29 221.28 68.85 216.73"/><path class="cls-1" d="M257.78,637.47A134,134,0,0,0,273,634.62c1.51-.37,4.25-.57,5-2.13a1.64,1.64,0,0,0-.51-2.19c-1.43-1-3.59.07-5.12.45-4.66,1.14-10,2.22-15.44,3a1.91,1.91,0,0,0-1.44,2.28,2,2,0,0,0,2.27,1.45Z" transform="translate(-255.47 -430.2)"/><polygon class="cls-2" points="624.06 429.29 627.15 440.76 637.96 439.71 640.61 453.08 652.62 447.56 656.21 462.37 667.49 458.87 673 471.87 668.44 475.61 664.31 465.89 652.41 469.58 648.96 455.35 636.75 460.96 633.82 446.21 623.27 447.23 620.4 436.6 613.27 439.07 612.95 433.14 624.06 429.29"/><path class="cls-3" d="M805.56,667a10.77,10.77,0,0,1,6.94-6.11A8.35,8.35,0,0,1,823,666.61c1.53,5.11-1.13,12.49-11.17,21.24-13.19-1.76-19.48-6.45-21-11.55a8.35,8.35,0,0,1,5.58-10.62A10.77,10.77,0,0,1,805.56,667Z" transform="translate(-255.47 -430.2)"/><path class="cls-3" d="M766.78,680.81a111.07,111.07,0,0,0,12.49-2.33c1.24-.31,3.49-.47,4.09-1.75a1.34,1.34,0,0,0-.43-1.79c-1.17-.81-2.94.06-4.19.36-3.82.94-8.18,1.82-12.64,2.46a1.57,1.57,0,0,0-1.19,1.86,1.6,1.6,0,0,0,1.87,1.19Z" transform="translate(-255.47 -430.2)"/><path class="cls-3" d="M832.89,675c1.84-.42,3.66-.87,5.49-1.32s3.88-.62,5.39-1.62a1.36,1.36,0,0,0-.57-2.54c-1.8-.19-3.77.61-5.52,1s-3.65.9-5.47,1.38-1.29,3.5.68,3.05Z" transform="translate(-255.47 -430.2)"/><path class="cls-3" d="M789.46,700.62c1.35-4.41,3.86-6.27,5.63-8.27a1.26,1.26,0,0,0-1.43-2c-3.69,1.54-6.1,5.76-7.18,9.4a1.56,1.56,0,0,0,3,.91Z" transform="translate(-255.47 -430.2)"/><path class="cls-3" d="M812.86,705.15a13.78,13.78,0,0,1-.42-5.71c.16-1.19,1.61-4.72-.67-4.76s-2.44,3.54-2.58,5.06a16.48,16.48,0,0,0,.6,6.09c.57,1.93,3.62,1.27,3.07-.68Z" transform="translate(-255.47 -430.2)"/><path class="cls-3" d="M825.57,689.89l3.58,1.48c1.19.49,2.42,1.33,3.69.73a1.38,1.38,0,0,0,.58-1.82c-.46-1.2-2.25-1.54-3.34-2l-3.59-1.45a1.59,1.59,0,1,0-.92,3Z" transform="translate(-255.47 -430.2)"/><path class="cls-3" d="M790.28,658.79c-6.14-8.4-6.07-8.46-7-9a1.39,1.39,0,0,0-2.06,1.46c.28,1.15.25,1,6.74,9.77a1.62,1.62,0,0,0,2.28.08,1.64,1.64,0,0,0,.08-2.27Z" transform="translate(-255.47 -430.2)"/><path class="cls-3" d="M806.93,654.65a24.24,24.24,0,0,0,.15-5.11c-.13-1.58-.1-4-1.78-4.76a1.19,1.19,0,0,0-1.19.28c-1.09,1.19-.31,3.21-.2,4.67a28.63,28.63,0,0,1-.1,4.81,1.57,1.57,0,0,0,1.5,1.61,1.6,1.6,0,0,0,1.62-1.5Z" transform="translate(-255.47 -430.2)"/><path class="cls-3" d="M830.82,650.5a1.38,1.38,0,0,0-1.3-1.41c-1.38-.19-2.74,1.43-3.64,2.31a26,26,0,0,0-2.88,3.32,1.57,1.57,0,0,0,.51,2.16,1.59,1.59,0,0,0,2.16-.51C829.14,652,830.58,652.41,830.82,650.5Z" transform="translate(-255.47 -430.2)"/><polygon class="cls-4" points="608.49 565.09 590.73 540.06 615.54 543.96 608.49 565.09"/><polygon class="cls-2" points="524.82 0 523.8 7.37 511.75 7.04 508.93 17.63 499.88 18.86 500.5 23.44 512.6 21.8 515.28 11.76 527.81 12.11 529.35 1.02 524.82 0"/></svg>