<svg id="Layer_1" data-name="Layer 1" xmlns="http://www.w3.org/2000/svg" viewBox="0 0 687.17 637.19"><defs><style>.cls-1{fill:#c7e5fd;}.cls-2{fill:#7fc4fd;}.cls-3{fill:#2699fb;}.cls-4{fill:#e9f5fe;}.cls-5{fill:#86b1f2;}.cls-6{fill:#9bc1f9;}.cls-7{fill:#aedcff;}</style></defs><title>womanandgirl</title><path class="cls-1" d="M833.53,706.77s-4.36-2.08-8.33-9.43c-2.54-4.71-10.11-10.75-7-11.73s8,7,8.88,4.71-8.11-19.53-5.25-20.42,10.32,15.9,11.13,13.86-7.63-16.71-3.6-18,8.39,18.05,10.56,17.38-1-15.4,2.25-16.41,2.79,18.21,4,17.66c.63-.3,3.51-9.61,5.27-8.91,2,.79-3.38,19.9-1,24.11s21.52,56.56,15,63.1c-7.13,7.12-52.46,23.46-61.95,20.65s-14.93-12.18-12.64-18,47.1-18.72,47.82-20.53S833.53,706.77,833.53,706.77Z" transform="translate(-179.61 -439.81)"/><path class="cls-2" d="M829.82,691.4a10.32,10.32,0,0,1,4,.72,10.89,10.89,0,0,1,6.34,6.14A18.5,18.5,0,0,0,829.82,691.4Z" transform="translate(-179.61 -439.81)"/><path class="cls-1" d="M622.08,1019.59s2.25,24.49.77,32.47a31.05,31.05,0,0,1-1.14,3.92c-1.52,4.47,2.64,18.14,2.64,18.14l55.8.21c3,0,1-1.92-1.46-3.68-4.05-2.9-7.31-4.8-20.2-10.83-.84-.39-3.9-2.29-5-2.94a38.48,38.48,0,0,1-8.07-6.94c-4.06-4.4-4.67-26-4.67-26Z" transform="translate(-179.61 -439.81)"/><path class="cls-3" d="M653.47,1056.87c-14.7,4-25.64,1.53-31.77-.85-1.52,4.47-4.23,19.85-2.53,19.85,14,0,25.78.17,65.56.34,1.43,0,1.48-3.54.55-4.63C682.69,1068.58,654.58,1057.53,653.47,1056.87Z" transform="translate(-179.61 -439.81)"/><path class="cls-3" d="M552.1,728.92s.8,35,10.81,57.34c9.76,21.8,56.45,75.56,68.86,106.94-3.84,17.7-14.38,42.58-13.62,62.2.87,22.23-.43,81.06-.43,81.06l25.06.8,32.87-151.81-49.53-163.8-22.48-39.77Z" transform="translate(-179.61 -439.81)"/><path class="cls-1" d="M445.05,984.78s-15.39,21.12-22.17,26.47c-3.64,2.86-13.5,6.7-14.54,11.43S453,1069.25,453,1069.25c2.42,2.14,2.15-.83,1.41-4-1.2-5.15-2.47-9-8.53-22.82-.39-.91-1.51-4.57-1.94-5.87a41,41,0,0,1-1.57-11.2c-.15-6.36,14.5-24,14.5-24Z" transform="translate(-179.61 -439.81)"/><path class="cls-3" d="M444,1036.58c-14.52-7.16-21.55-16.78-24.78-23-4.35,2.5-16.05,7.84-15,9.33,8.09,11.73,16.48,26.32,48.93,54,1.17,1,5.93-4.72,5.95-6.24C459.07,1066.43,444.37,1037.88,444,1036.58Z" transform="translate(-179.61 -439.81)"/><path class="cls-3" d="M629.38,479c-4.33-28.18-29.83-48.44-56.49-34.77-6,3.08-14.12,9.32-18.26,14.64-11.39,14.62-14.15,32.74-26.23,46.79-10.41,12.13-38.2,9.84-51.17,19.16s-22.08,26-22.08,46c0,22.37,5.05,46.1,22.38,60.24s42,17.66,63.49,11.67,40-20.67,53.33-38.64,22.72-37.68,29.34-59C631.09,521.2,632.17,497.17,629.38,479Z" transform="translate(-179.61 -439.81)"/><path class="cls-2" d="M628.09,611.26s27.06,61.26,32.21,75.09,32.15,60,33.26,61.82,25.66,4.89,24.28,8.05-11.83-.8-11.83.94c0,3.9,15.27,32.55,12.8,33.24-4.64,1.29-9.48-17.7-11.54-16.7s9.73,17.56,6.87,20.41-9.63-16.74-11.52-16.76,10.08,19.33,6,19c-2.21-.18-10.82-18-12.67-16.14-.79.78,8.4,15.13,5.89,14.68s-9.78-11.78-12.69-18.16-1.59-12.55-9.27-21.29S641.37,719.1,632.22,697s-29.47-70.81-29.47-70.81Z" transform="translate(-179.61 -439.81)"/><path class="cls-3" d="M605.27,549s22.49,10.75,33.58,77.63l-38.13,10.64-15.86-43.12Z" transform="translate(-179.61 -439.81)"/><path class="cls-3" d="M553.87,706.54s-19.37,29.1-24,53.18c-4.49,23.46,3,94.28-4.83,127.11-13.28,12.31-36.18,26.66-46.79,43.18-12,18.71-46.79,66.19-46.79,66.19l20.08,15,113.91-105.6,46.12-140.87,15.82-41.2Z" transform="translate(-179.61 -439.81)"/><path class="cls-4" d="M569.55,541s-25.65-1.63-35.8,9.41,22.52,98.36,24.36,112.41S539.75,725,539.75,725s73.82,12.82,91,1.45c0,0-2.76-112.6-4.61-122.63S609,553,605.27,549,569.55,541,569.55,541Z" transform="translate(-179.61 -439.81)"/><path class="cls-1" d="M578.09,506.75s-.13.75-.37,2c-1.14,6.15-5.55,26.57-8.52,32.18-3.6,6.78,12.31,28.42,27.62,25.78,4.55-.79-3.86-19.88-3.45-21.9.77-3.87,1.82-9.15,2.89-14.57.61-3,1.22-6.15,1.8-9.06,1.64-8.27,3-15,3-15Z" transform="translate(-179.61 -439.81)"/><path class="cls-3" d="M577.72,508.79c.24-1.29.37-2,.37-2l22.94-.57s-1.33,6.77-3,15c-.57,2.89-1.18,6-1.79,9a21.51,21.51,0,0,1-10.95-5.48A28.89,28.89,0,0,1,577,512.44C577.31,511,577.54,509.74,577.72,508.79Z" transform="translate(-179.61 -439.81)"/><path class="cls-1" d="M593.53,454.71s-10.81-1.24-17.59,7.5S561.86,498,578.7,512.72s33.47-1.94,35.93-19.59S618.06,454.08,593.53,454.71Z" transform="translate(-179.61 -439.81)"/><path class="cls-1" d="M619.61,492.87c-2,3.9-5.38,6.06-7.53,4.82s-2.27-5.4-.26-9.29,5.39-6.06,7.54-4.83S621.62,489,619.61,492.87Z" transform="translate(-179.61 -439.81)"/><path class="cls-3" d="M594.74,451.82S580.3,477.55,570,478.74s-11.69,14.85-11.69,14.85S562,462.1,572.2,456,594.74,451.82,594.74,451.82Z" transform="translate(-179.61 -439.81)"/><path class="cls-1" d="M572.67,485.2c.84,4.57-.85,8.76-3.77,9.36s-6-2.62-6.82-7.19.85-8.76,3.77-9.36S571.83,480.63,572.67,485.2Z" transform="translate(-179.61 -439.81)"/><path class="cls-3" d="M252.54,1033.08l13.65,5.4L465.64,770.26h0c-7.52-3-11.31,2.11-15.37,7.58Z" transform="translate(-179.61 -439.81)"/><path class="cls-5" d="M273.67,1048.51l13.65,5.4L486.85,778.66c2.83-3.81-4.77-6.23-4.77-6.23Z" transform="translate(-179.61 -439.81)"/><path class="cls-3" d="M291.77,905.66l-20.31-8.07,24.94-33.23c20.69-27.58,68.1-37.76,105.89-22.73l34.14,13.57L287.32,1053.92l-82.26-32.7-25.45-18Z" transform="translate(-179.61 -439.81)"/><path class="cls-3" d="M436.43,855.2,287.32,1053.92l-82.26-32.7,1.94-2.59h0c57.26,3.9,189.46-131.87,222.06-166.36Z" transform="translate(-179.61 -439.81)"/><path class="cls-3" d="M331.57,918.45c12.3-13.66,31.31-33.63,45-45.71-14.81,20.89-42.65,50.92-43,51.36-16.34-6.58-37.65-14.75-62.1-26.51C292,903.82,311.91,911,331.57,918.45Z" transform="translate(-179.61 -439.81)"/><circle class="cls-3" cx="284.5" cy="1057.19" r="18.7" transform="translate(-989.27 654.64) rotate(-76.89)"/><circle class="cls-6" cx="284.5" cy="1057.19" r="7.7" transform="translate(-988.59 671) rotate(-77.74)"/><path class="cls-2" d="M521,608.66s-17.86,64.54-20.94,79-23.07,64.1-23.91,66-18.5,19.94-16.14,23.59c1.32,2,5.23,4.41,7.09,4.12s2.95,1.23,5.43,2.07,7.11.25,9.05-6.49,2.83-8.32,9.16-18.08,32.82-41.56,38.65-64.73,18.86-74.35,18.86-74.35Z" transform="translate(-179.61 -439.81)"/><path class="cls-5" d="M473.61,783.65c2.57.35,6.32-.85,8-6.73.47-1.63.88-3,1.32-4.17-.52-.21-.86-.32-.86-.32Z" transform="translate(-179.61 -439.81)"/><path class="cls-4" d="M514.16,628.48s1.62-53.09,8.81-68S548.11,537,554.88,550.1c7,13.47-5.16,79-5.16,79Z" transform="translate(-179.61 -439.81)"/><polygon class="cls-3" points="641.7 308.76 612.46 310.9 621.43 345.59 651.41 340.19 641.7 308.76"/><path class="cls-7" d="M721.12,767s-6.53,80.51-6.53,87.5,27.78,9,27.78,9l8.5-82.63Z" transform="translate(-179.61 -439.81)"/><path class="cls-5" d="M762.56,747.37s-18-9.65-32.89-.81-18.91,60.81-18.91,60.81l47.6,5.7Z" transform="translate(-179.61 -439.81)"/><path class="cls-1" d="M699.82,1036.67s-3.08,10.93-5.53,13.38-10.53,11.92-8.54,16.61,51.32,11.43,53.2,9.56-8.53-9.8-14.42-14.65-10.11-10.83-7.64-18.08,2.46-6.53,2.46-7.25S699.82,1036.67,699.82,1036.67Z" transform="translate(-179.61 -439.81)"/><path class="cls-3" d="M739,1076.22c2.23-1.67-4.7-9.16-14.75-14.93a63.42,63.42,0,0,1-14.56-1.48c-7.44-1.85-13.14-8.3-14.83-10.39-.15.22-12.11,11.74-9.78,17.24C687,1071.36,734.49,1079.56,739,1076.22Z" transform="translate(-179.61 -439.81)"/><path class="cls-1" d="M781.68,1042s.91,11.23-.94,14.15-8.33,14.47-4.72,18.08c3.26,3.25,48.45,1.16,49.87-1.07s-6.32-8.91-13.13-12.37-12.23-8.36-11.41-16,1-6.91.83-7.61S781.68,1042,781.68,1042Z" transform="translate(-179.61 -439.81)"/><path class="cls-3" d="M831.5,1074.93c2.36-1.49-8.06-10.91-19.12-14.35a64.17,64.17,0,0,1-14.54,1.73c-7.66-.19-14.63-5.23-16.73-6.91-.11.25-10.4,15.16-5.79,19C778.93,1077.34,827.92,1077.21,831.5,1074.93Z" transform="translate(-179.61 -439.81)"/><path class="cls-3" d="M785,882.91,755.8,967.46l-33.47,78.27-28-7s10.12-54.25,19.63-71.29c7.19-12.9,12.21-86.91,12.21-86.91Z" transform="translate(-179.61 -439.81)"/><path class="cls-3" d="M771,897.14l10.1,148.59H805s10.43-155.68,6.61-170.49S768,863.77,768,863.77Z" transform="translate(-179.61 -439.81)"/><path class="cls-7" d="M793.9,751.25s-30.79-9.22-35.54-8.63c-5.18.65-17.8,7.34-17.8,7.34s.78,53.45-1.45,68.57-17.84,63.53-17.84,63.53,22,12.74,58.93,8.6,34.4-13.06,34.4-13.06-3.5-53.52-7-77.09S793.9,751.25,793.9,751.25Z" transform="translate(-179.61 -439.81)"/><path class="cls-7" d="M745.5,747.48s6.92-1,12.86,21.44c6.74,25.48-.51,51.86-11.65,58.55S731,832.86,731,832.86l1.75,15.71s32.91-7.36,37.39-35.5c7.35-46.1-14.32-69.85-14.32-69.85a40.44,40.44,0,0,0-5.34,1.17A43.62,43.62,0,0,0,745.5,747.48Z" transform="translate(-179.61 -439.81)"/><path class="cls-1" d="M728.49,800.72v32.92c0,5.73,6.58,44.55,14.65,57.85s19,28.12,21.27,29,7.19,4,9.74,1.42,4.56-1.38,7.75-2.76-.43-6-4.89-10.41-5.41-5.52-4.67-6.26,4.35,3.39,6.27,2.76-1.17-7.33-6.16-9.67-13-6.9-13.7-9.34-.74-1.8-.74-2.44-5.63-39.18-5.63-46.72S750.15,805,750.15,805Z" transform="translate(-179.61 -439.81)"/><path class="cls-3" d="M743.54,748.65A17.4,17.4,0,0,0,730,761.22c-2.76,9.34-10,35.89-8.76,48.85,0,0,31,4,31,2.76s6.78-34.51,3.4-49.06C752.72,751.08,748.57,748,743.54,748.65Z" transform="translate(-179.61 -439.81)"/><path class="cls-7" d="M789.08,749.84l21.55,77.47h0c-1-10.11-2-19.78-3-26.79-3.5-23.57-13.88-49.92-13.88-49.92A40.15,40.15,0,0,0,789.08,749.84Z" transform="translate(-179.61 -439.81)"/><path class="cls-3" d="M776.74,670.66s11.69-4.24,19.24,7.6,3.48,10.73,7.15,16.65,13.28,4.7,13.28,13.89-4.29,10.62-4.29,10.62a15.64,15.64,0,0,1-.41,14.5c-4.29,7.35-15,13.68-23.93,12.66,0,0-13.44,7.37-26.92,3.89s-8.79-3.48-14.3-3.48-20.42-7.56-18-18.59c0,0-9.09-10.79-.27-19.6S738.8,691,743.9,679.18,770.61,667.8,776.74,670.66Z" transform="translate(-179.61 -439.81)"/><path class="cls-1" d="M784.55,733.71s-.49,16.27,1,17.79,3.66,4.07,1.42,8-12,1.4-16.55-.82a21.41,21.41,0,0,1-7.17-6.1l2.27-25.76Z" transform="translate(-179.61 -439.81)"/><path class="cls-3" d="M778.06,740.45a22.81,22.81,0,0,1-12.83-10.07l.32-3.61,19,6.94s-.12,4-.06,8.17A21.67,21.67,0,0,1,778.06,740.45Z" transform="translate(-179.61 -439.81)"/><path class="cls-1" d="M762.21,708.37s-.46-9.56-6.34-7.7-1.39,16.29,3.48,15.81S762.21,708.37,762.21,708.37Z" transform="translate(-179.61 -439.81)"/><path class="cls-1" d="M780.67,677.14s9.19-.2,13.88,6.94,9.81,27.58,2.05,41.67-17.67,10.62-21.75,9.19-12.16-4.6-16.24-17.77S757.49,674.38,780.67,677.14Z" transform="translate(-179.61 -439.81)"/></svg>